<svg width="32" height="32" viewBox="0 0 32 32" fill="none" xmlns="http://www.w3.org/2000/svg">
<g id="dollar-coin-1--accounting-billing-payment-cash-coin-currency-money-finance">
<path id="Union" fill-rule="evenodd" clip-rule="evenodd" d="M31.5195 12.5918C31.5195 19.1513 26.202 24.4688 19.6425 24.4688C13.0831 24.4688 7.76555 19.1513 7.76555 12.5918C7.76555 6.03234 13.0831 0.714844 19.6425 0.714844C26.202 0.714844 31.5195 6.03234 31.5195 12.5918ZM19.6424 3.62277C20.5891 3.62277 21.3567 4.39029 21.3567 5.33705V6.06155C22.1728 6.2557 22.8932 6.69707 23.4324 7.29941C23.7794 7.68713 24.0536 8.14377 24.2319 8.64782C24.5474 9.54046 24.0795 10.5199 23.1869 10.8354C22.2942 11.1509 21.3148 10.683 20.9992 9.79038C20.9729 9.71579 20.9316 9.64629 20.8776 9.58597C20.7626 9.45742 20.6008 9.38055 20.4188 9.38055H19.6538L19.6424 9.38059L19.631 9.38055H18.6159C18.4144 9.38055 18.251 9.54391 18.251 9.74542C18.251 9.91689 18.3704 10.0652 18.5379 10.1019L21.2829 10.7023C23.1398 11.1085 24.4623 12.7535 24.4623 14.6531C24.4623 16.5629 23.138 18.165 21.3567 18.5882V19.3126C21.3567 20.2594 20.5891 21.0269 19.6424 21.0269C18.6956 21.0269 17.9281 20.2594 17.9281 19.3126V18.5882C16.5864 18.2696 15.5057 17.2826 15.053 16.0017C14.7375 15.109 15.2054 14.1296 16.098 13.8141C16.9907 13.4986 17.9701 13.9665 18.2856 14.8591C18.3708 15.1003 18.6009 15.269 18.866 15.269H20.4188C20.7576 15.269 21.0338 14.9936 21.0338 14.6531C21.0338 14.3635 20.832 14.1133 20.5502 14.0517L17.8053 13.4512C16.0638 13.0703 14.8225 11.5281 14.8225 9.74542C14.8225 7.88523 16.1614 6.33776 17.9281 6.01417V5.33705C17.9281 4.39029 18.6956 3.62277 19.6424 3.62277ZM19.6425 27.3259C20.3888 27.3259 21.1222 27.2706 21.8387 27.1634C19.66 29.7595 16.3912 31.4098 12.7368 31.4098C6.17737 31.4098 0.859863 26.0923 0.859863 19.5329C0.859863 15.9003 2.49065 12.6486 5.06007 10.47C4.96013 11.1629 4.90841 11.8713 4.90841 12.5919C4.90841 20.7293 11.5051 27.3259 19.6425 27.3259Z" fill="#0CB0A6"/>
</g>
</svg>
