<svg width="20" height="20" viewBox="0 0 20 20" fill="none" xmlns="http://www.w3.org/2000/svg">
<g id="fluent:building-24-filled">
<path id="Vector" d="M3.45801 3.62976C3.45801 3.1484 3.64923 2.68675 3.9896 2.34638C4.32997 2.00601 4.79162 1.81479 5.27298 1.81479H11.7262C12.2076 1.81479 12.6692 2.00601 13.0096 2.34638C13.35 2.68675 13.5412 3.1484 13.5412 3.62976V7.86469H14.5495C14.7878 7.86469 15.0239 7.91164 15.2441 8.00285C15.4643 8.09406 15.6643 8.22775 15.8329 8.39629C16.0014 8.56482 16.1351 8.7649 16.2263 8.98511C16.3175 9.20531 16.3645 9.44132 16.3645 9.67967V17.3429C16.3645 17.5033 16.3007 17.6572 16.1873 17.7707C16.0738 17.8841 15.9199 17.9479 15.7595 17.9479H13.5412V14.9229C13.5412 14.3663 13.0895 13.9146 12.5329 13.9146H7.28961C6.73302 13.9146 6.2813 14.3663 6.2813 14.9229V17.9479H4.063C3.90254 17.9479 3.74866 17.8841 3.63521 17.7707C3.52175 17.6572 3.45801 17.5033 3.45801 17.3429V3.62976ZM12.3312 15.1246V17.9479H10.5162V15.1246H12.3312ZM9.30625 15.1246V17.9479H7.49128V15.1246H9.30625ZM6.2813 5.44473C6.2813 5.65867 6.36628 5.86385 6.51756 6.01512C6.66884 6.1664 6.87401 6.25139 7.08795 6.25139C7.30189 6.25139 7.50706 6.1664 7.65834 6.01512C7.80962 5.86385 7.89461 5.65867 7.89461 5.44473C7.89461 5.23079 7.80962 5.02562 7.65834 4.87434C7.50706 4.72306 7.30189 4.63808 7.08795 4.63808C6.87401 4.63808 6.66884 4.72306 6.51756 4.87434C6.36628 5.02562 6.2813 5.23079 6.2813 5.44473ZM7.08795 10.2847C6.87401 10.2847 6.66884 10.3696 6.51756 10.5209C6.36628 10.6722 6.2813 10.8774 6.2813 11.0913C6.2813 11.3052 6.36628 11.5104 6.51756 11.6617C6.66884 11.813 6.87401 11.898 7.08795 11.898C7.30189 11.898 7.50706 11.813 7.65834 11.6617C7.80962 11.5104 7.89461 11.3052 7.89461 11.0913C7.89461 10.8774 7.80962 10.6722 7.65834 10.5209C7.50706 10.3696 7.30189 10.2847 7.08795 10.2847ZM7.08795 7.46137C6.87401 7.46137 6.66884 7.54635 6.51756 7.69763C6.36628 7.84891 6.2813 8.05408 6.2813 8.26802C6.2813 8.48196 6.36628 8.68714 6.51756 8.83841C6.66884 8.98969 6.87401 9.07468 7.08795 9.07468C7.30189 9.07468 7.50706 8.98969 7.65834 8.83841C7.80962 8.68714 7.89461 8.48196 7.89461 8.26802C7.89461 8.05408 7.80962 7.84891 7.65834 7.69763C7.50706 7.54635 7.30189 7.46137 7.08795 7.46137ZM9.91124 4.63808C9.6973 4.63808 9.49213 4.72306 9.34085 4.87434C9.18957 5.02562 9.10459 5.23079 9.10459 5.44473C9.10459 5.65867 9.18957 5.86385 9.34085 6.01512C9.49213 6.1664 9.6973 6.25139 9.91124 6.25139C10.1252 6.25139 10.3304 6.1664 10.4816 6.01512C10.6329 5.86385 10.7179 5.65867 10.7179 5.44473C10.7179 5.23079 10.6329 5.02562 10.4816 4.87434C10.3304 4.72306 10.1252 4.63808 9.91124 4.63808ZM9.91124 10.2847C9.6973 10.2847 9.49213 10.3696 9.34085 10.5209C9.18957 10.6722 9.10459 10.8774 9.10459 11.0913C9.10459 11.3052 9.18957 11.5104 9.34085 11.6617C9.49213 11.813 9.6973 11.898 9.91124 11.898C10.1252 11.898 10.3304 11.813 10.4816 11.6617C10.6329 11.5104 10.7179 11.3052 10.7179 11.0913C10.7179 10.8774 10.6329 10.6722 10.4816 10.5209C10.3304 10.3696 10.1252 10.2847 9.91124 10.2847ZM12.7345 10.2847C12.5206 10.2847 12.3154 10.3696 12.1641 10.5209C12.0129 10.6722 11.9279 10.8774 11.9279 11.0913C11.9279 11.3052 12.0129 11.5104 12.1641 11.6617C12.3154 11.813 12.5206 11.898 12.7345 11.898C12.9485 11.898 13.1536 11.813 13.3049 11.6617C13.4562 11.5104 13.5412 11.3052 13.5412 11.0913C13.5412 10.8774 13.4562 10.6722 13.3049 10.5209C13.1536 10.3696 12.9485 10.2847 12.7345 10.2847ZM9.91124 7.46137C9.6973 7.46137 9.49213 7.54635 9.34085 7.69763C9.18957 7.84891 9.10459 8.05408 9.10459 8.26802C9.10459 8.48196 9.18957 8.68714 9.34085 8.83841C9.49213 8.98969 9.6973 9.07468 9.91124 9.07468C10.1252 9.07468 10.3304 8.98969 10.4816 8.83841C10.6329 8.68714 10.7179 8.48196 10.7179 8.26802C10.7179 8.05408 10.6329 7.84891 10.4816 7.69763C10.3304 7.54635 10.1252 7.46137 9.91124 7.46137Z" fill="#0CB0A6"/>
</g>
</svg>
