<svg width="60" height="60" viewBox="0 0 60 60" fill="none" xmlns="http://www.w3.org/2000/svg">
<g id="foundation:burst-sale">
<path id="Vector" d="M26.4631 33.3846L28.6219 32.1372L25.8223 29.7822L26.4631 33.3846Z" fill="white"/>
<path id="Vector_2" d="M53.1347 29.976C53.1347 29.445 52.8737 28.9782 52.4765 28.6854L52.4849 28.671L46.8905 25.4412L50.1107 19.8636L50.0999 19.857C50.2016 19.6271 50.2477 19.3765 50.2345 19.1255C50.2213 18.8745 50.1491 18.6301 50.0237 18.4122C49.8975 18.1945 49.7216 18.0097 49.5105 17.8727C49.2994 17.7357 49.059 17.6504 48.8087 17.6238V17.6082H42.3479V11.166H42.3347C42.3078 10.9161 42.2225 10.676 42.0855 10.4652C41.9485 10.2544 41.7638 10.0789 41.5463 9.9528C41.3281 9.82708 41.0832 9.75476 40.8317 9.74172C40.5802 9.72869 40.3292 9.77532 40.0991 9.8778L40.0913 9.864L34.4027 13.1484L31.2527 7.692L31.2413 7.6986C31.093 7.49564 30.899 7.33045 30.675 7.21641C30.451 7.10237 30.2033 7.04269 29.9519 7.0422C29.4209 7.0422 28.9535 7.3032 28.6613 7.7004L28.6469 7.692L25.4447 13.2384L19.9307 10.0548L19.9241 10.0662C19.6943 9.96448 19.4436 9.91838 19.1926 9.93161C18.9416 9.94485 18.6972 10.0171 18.4793 10.1424C18.2615 10.2685 18.0765 10.4443 17.9394 10.6555C17.8023 10.8666 17.717 11.1071 17.6903 11.3574H17.6741V17.7618H11.3069V17.7744C11.057 17.8013 10.8169 17.8867 10.6061 18.0236C10.3954 18.1606 10.2198 18.3453 10.0937 18.5628C9.96834 18.7809 9.89615 19.0255 9.88301 19.2768C9.86988 19.528 9.91617 19.7788 10.0181 20.0088L10.0043 20.0172L13.1519 25.4694L7.51552 28.7238L7.52212 28.7352C7.31916 28.8835 7.15397 29.0775 7.03994 29.3015C6.9259 29.5255 6.86622 29.7732 6.86572 30.0246C6.86572 30.5556 7.12672 31.023 7.52392 31.3152L7.51552 31.3296L13.1099 34.5594L9.88972 40.137L9.90052 40.143C9.79881 40.3729 9.7527 40.6235 9.76594 40.8745C9.77918 41.1255 9.85139 41.3699 9.97672 41.5878C10.103 41.8055 10.2788 41.9903 10.4899 42.1273C10.701 42.2643 10.9415 42.3496 11.1917 42.3762V42.3924H17.6519V48.834H17.6651C17.7203 49.3236 17.9945 49.782 18.4535 50.0472C18.6718 50.1728 18.9167 50.245 19.1681 50.2581C19.4196 50.2711 19.6706 50.2245 19.9007 50.1222L19.9085 50.136L25.5971 46.8516L28.7471 52.308L28.7585 52.3014C28.9068 52.5044 29.1008 52.6695 29.3248 52.7836C29.5488 52.8976 29.7966 52.9573 30.0479 52.9578C30.5789 52.9578 31.0463 52.6968 31.3385 52.3002L31.3523 52.308L34.5545 46.7616L40.0691 49.9452L40.0757 49.9338C40.3056 50.0355 40.5562 50.0816 40.8072 50.0684C41.0583 50.0551 41.3026 49.9829 41.5205 49.8576C41.7384 49.7315 41.9235 49.5558 42.0606 49.3446C42.1977 49.1335 42.283 48.8929 42.3095 48.6426H42.3257V42.2388H48.6935V42.2262C48.9435 42.1993 49.1835 42.1139 49.3943 41.9769C49.6051 41.84 49.7806 41.6553 49.9067 41.4378C50.0321 41.2197 50.1043 40.9751 50.1174 40.7238C50.1306 40.4726 50.0843 40.2218 49.9823 39.9918L49.9961 39.984L46.8485 34.5318L52.4849 31.2774L52.4783 31.266C52.6813 31.1176 52.8465 30.9235 52.9605 30.6994C53.0746 30.4752 53.1342 30.2274 53.1347 29.976ZM22.5221 39.1182C21.1841 39.891 19.9709 39.9966 18.9395 39.7194L19.0841 38.1012C19.8653 38.3274 20.8751 38.3262 21.8291 37.7748C22.6493 37.3014 22.8239 36.7158 22.5905 36.312C21.8951 35.1084 18.3953 38.25 16.8911 35.6454C16.2263 34.4934 16.6709 32.9628 18.3011 32.022C19.4009 31.3866 20.5061 31.1922 21.5567 31.4292L21.3713 33.003C20.5115 32.8086 19.6265 33.0006 18.9209 33.4074C18.2981 33.7674 18.1007 34.2408 18.3407 34.6566C18.9701 35.7462 22.5197 32.715 24.0113 35.298C24.7427 36.5634 24.3809 38.046 22.5221 39.1182ZM30.8879 34.1226L29.7755 33.2016L26.8073 34.9152L27.0479 36.3396L25.3769 37.3038L24.0479 28.842L25.8953 27.7758L32.5589 33.1584L30.8879 34.1226ZM33.1397 32.823L29.1431 25.9002L30.6275 25.0428L33.8753 30.6678L36.8021 28.9782L37.5515 30.276L33.1397 32.823ZM38.5469 29.7012L34.5503 22.779L39.4487 19.95L40.1975 21.2472L36.7733 23.2248L37.6121 24.678L40.9637 22.7424L41.7125 24.0396L38.3609 25.9746L39.2717 27.5526L42.6965 25.575L43.4459 26.8722L38.5469 29.7012Z" fill="white"/>
</g>
</svg>
