<svg width="20" height="21" viewBox="0 0 20 21" fill="none" xmlns="http://www.w3.org/2000/svg">
<g id="game-icons:hand-ok">
<path id="Vector" d="M14.0151 2.13083C13.9887 2.15843 13.9772 2.1658 13.9439 2.20551C13.7898 2.3889 13.5741 2.68867 13.3269 3.05839C12.8326 3.79788 12.2051 4.82273 11.5842 5.85761C11.0162 6.80423 10.4647 7.73936 10.0092 8.49839C11.3074 7.27816 12.5974 5.92355 14.0108 4.71784C14.4159 3.81516 14.5403 3.24174 14.5209 2.90162C14.5007 2.52494 14.2742 2.31841 14.0151 2.13083ZM17.1848 3.29215C14.7725 4.64275 12.7724 6.82264 10.7045 8.78047C11.5034 8.62446 12.3313 8.51329 13.2431 8.39887C13.8533 7.99806 15.2123 6.96966 16.1928 5.87133C16.6957 5.30809 17.0939 4.72393 17.2518 4.23986C17.3805 3.84511 17.3785 3.55641 17.1848 3.29215ZM10.6169 3.34599C10.5247 3.61082 10.3907 4.06979 10.2472 4.69296C9.99096 5.8415 9.58301 7.25287 9.38454 8.28566C9.80451 7.58247 10.5017 6.33918 11.0007 5.50747C11.2179 5.14506 11.4368 4.7836 11.6571 4.4231C11.5628 3.85263 11.0924 3.4488 10.6169 3.34599ZM13.795 9.01607C11.8186 9.26136 10.3275 9.45099 8.71674 10.0159C6.44538 12.1233 4.18449 14.511 2.48193 16.947C3.45937 18.3414 4.65064 18.7267 5.97999 18.6211C7.59134 18.3534 9.09456 17.6883 10.3049 16.973L13.7912 16.5677L16.3932 15.0853C16.2809 14.9073 16.0771 14.6795 15.7528 14.5476C15.2705 14.3515 14.5193 14.3163 13.3944 14.9043C12.6394 15.299 11.9634 15.3165 11.4843 15.0081C11.0053 14.6998 10.7853 14.1379 10.7534 13.5544C10.7216 12.971 10.8719 12.3387 11.207 11.7952C11.5422 11.2517 12.0769 10.7964 12.7889 10.6336L12.7991 10.6313L12.8096 10.6296C13.714 10.4813 14.4835 11.151 15.037 11.5565C15.4184 11.8831 15.0815 12.7312 15.2522 13.1749C15.3188 13.3331 15.4259 13.4693 15.6977 13.6049C15.9189 13.7153 16.2594 13.8118 16.7357 13.874L16.9353 11.1788C16.2038 10.3618 14.8994 9.504 13.795 9.01607H13.795Z" fill="#0CB0A6"/>
</g>
</svg>
