<svg width="20" height="20" viewBox="0 0 20 20" fill="none" xmlns="http://www.w3.org/2000/svg">
<g id="mdi:user-box">
<path id="Vector" d="M5.07133 13.9202C5.07133 12.3069 8.29795 11.4196 9.91125 11.4196C11.5246 11.4196 14.7512 12.3069 14.7512 13.9202V14.7269H5.07133M12.3312 7.467C12.3312 8.10881 12.0763 8.72434 11.6224 9.17817C11.1686 9.632 10.5531 9.88696 9.91125 9.88696C9.26944 9.88696 8.65391 9.632 8.20008 9.17817C7.74625 8.72434 7.49129 8.10881 7.49129 7.467C7.49129 6.82519 7.74625 6.20966 8.20008 5.75583C8.65391 5.302 9.26944 5.04704 9.91125 5.04704C10.5531 5.04704 11.1686 5.302 11.6224 5.75583C12.0763 6.20966 12.3312 6.82519 12.3312 7.467ZM2.65137 4.24038V15.5335C2.65137 15.9614 2.82134 16.3718 3.12389 16.6743C3.42645 16.9769 3.8368 17.1468 4.26468 17.1468H15.5578C15.9857 17.1468 16.3961 16.9769 16.6986 16.6743C17.0012 16.3718 17.1711 15.9614 17.1711 15.5335V4.24038C17.1711 3.81251 17.0012 3.40216 16.6986 3.0996C16.3961 2.79705 15.9857 2.62708 15.5578 2.62708H4.26468C3.8368 2.62708 3.42645 2.79705 3.12389 3.0996C2.82134 3.40216 2.65137 3.81251 2.65137 4.24038Z" fill="#0CB0A6"/>
</g>
</svg>
