<svg width="105" height="101" viewBox="0 0 105 101" fill="none" xmlns="http://www.w3.org/2000/svg">
<g id="Image" clip-path="url(#clip0_1762_5254)">
<g id="Character">
<g id="Group">
<g id="Group_2">
<g id="Group_3">
<g id="Group_4">
<path id="Vector" d="M100.74 96.3684C101.787 96.0194 100.857 93.0009 99.6932 92.0671C99.3222 91.7715 97.9513 91.0735 96.2314 90.2435C92.4427 88.4229 86.9969 85.9862 86.9969 85.9862L91.6409 66.3253L72.7284 66.4291C72.7284 66.4291 67.5625 84.8951 67.5939 86.0428C67.5939 86.1151 67.5939 86.1843 67.597 86.2566C67.7574 91.4666 68.0152 95.7333 68.446 96.0005C69.5936 96.7268 99.6901 96.7206 100.74 96.3684Z" fill="#EFC6BA"/>
<path id="Vector_2" d="M100.74 96.3685C99.6871 96.7238 69.5907 96.7301 68.443 96.0006C68.0154 95.7334 67.7576 91.4698 67.5941 86.2567C67.5941 86.1875 67.5909 86.112 67.5909 86.0429C67.5847 85.7976 67.8142 84.76 68.1821 83.2822H87.6322L86.9939 85.9894C86.9939 85.9894 92.4429 88.4262 96.2316 90.2435C97.9515 91.0736 99.3255 91.7716 99.6934 92.0703C100.86 93.001 101.784 96.0226 100.74 96.3685Z" fill="#E2E7E9"/>
<g id="Group_5">
<path id="Vector_3" d="M101.08 96.5383C100.008 96.8968 69.3642 96.8622 68.1977 96.1201C67.7512 95.8466 67.4934 91.3786 67.3425 85.9737C67.3425 85.9171 67.3425 85.8605 67.3394 85.8039L87.1102 85.6058L87.1008 85.9423C87.1008 85.9423 98.8256 91.2026 100.02 92.1553C101.206 93.1048 102.149 96.183 101.077 96.5383H101.08Z" fill="#479CFF"/>
<g id="Group_6">
<path id="Vector_4" d="M100.734 95.3497C95.5679 95.2177 74.7186 95.1705 69.6029 95.4315C69.562 95.4315 69.562 95.4629 69.6029 95.4629C74.7217 95.705 95.5679 95.5855 100.734 95.4346C100.844 95.4315 100.844 95.3529 100.734 95.3497Z" fill="#111111"/>
<path id="Vector_5" d="M89.3078 85.6655C87.2766 85.285 84.7895 85.5932 83.2331 87.0395C83.1734 87.0961 83.252 87.181 83.318 87.159C85.324 86.5302 87.198 86.1246 89.2983 85.9202C89.4461 85.9045 89.4524 85.6907 89.3078 85.6624V85.6655Z" fill="#111111"/>
<path id="Vector_6" d="M90.776 86.5523C88.7449 86.1719 86.2578 86.48 84.7014 87.9264C84.6417 87.983 84.7203 88.0679 84.7863 88.0458C86.7923 87.417 88.6663 87.0114 90.7666 86.807C90.9144 86.7913 90.9207 86.5775 90.776 86.5492V86.5523Z" fill="#111111"/>
<path id="Vector_7" d="M92.2414 87.4388C90.2102 87.0584 87.7231 87.3665 86.1667 88.8128C86.107 88.8694 86.1856 88.9543 86.2516 88.9323C88.2576 88.3035 90.1316 87.8979 92.2319 87.6935C92.3797 87.6778 92.386 87.464 92.2414 87.4357V87.4388Z" fill="#111111"/>
<g id="Group_7">
<path id="Vector_8" d="M91.9582 81.2353C91.1595 80.1348 89.6723 80.6284 88.8234 81.339C87.4494 82.4929 86.242 84.2946 85.6886 85.9925C85.676 86.0333 85.7043 86.0585 85.7358 86.0648C85.7421 86.2189 85.8804 86.3824 86.0533 86.3195C87.7323 85.7001 89.6063 85.2441 91.0432 84.1279C91.8827 83.4771 92.7128 82.276 91.9582 81.2353ZM88.4084 84.8605C87.5909 85.1844 86.7608 85.4674 85.9527 85.8227C86.5658 84.9171 87.1381 83.9896 87.8455 83.1438C88.182 82.7413 88.5341 82.3357 88.924 81.9804C89.5277 81.4302 91.9236 80.2637 91.5651 82.4929C91.3671 83.7223 89.3862 84.4707 88.4084 84.8574V84.8605Z" fill="#111111"/>
<path id="Vector_9" d="M80.5197 85.4549C82.1956 86.1718 84.1198 86.1372 85.9026 86.3102C86.0881 86.329 86.1793 86.1341 86.1479 85.9832C86.1793 85.9674 86.1982 85.936 86.1761 85.9014C85.2077 84.3985 83.5885 82.9616 81.966 82.1944C80.963 81.7196 79.4004 81.619 78.9067 82.8861C78.4414 84.084 79.545 85.0368 80.5228 85.4549H80.5197ZM79.6047 84.0054C78.6929 81.9397 81.3058 82.4648 82.0289 82.8421C82.4943 83.0842 82.9407 83.3892 83.3652 83.6942C84.2613 84.3324 85.0474 85.0839 85.8712 85.8071C85.0002 85.6687 84.1261 85.6027 83.252 85.4958C82.2113 85.3669 80.1047 85.1436 79.6016 84.0054H79.6047Z" fill="#111111"/>
</g>
</g>
</g>
</g>
<g id="Group_8">
<path id="Vector_10" d="M46.3706 53.2234C46.3706 53.2234 42.9811 65.4953 48.8985 69.1269C52.8508 71.5511 70.3106 68.1994 71.0527 66.0393C72.455 61.9612 72.4581 60.4677 72.4581 60.4677L67.9745 82.0843L89.9714 82.3421C89.9714 82.3421 94.0998 64.4577 93.0402 45.476C92.6472 38.4581 83.2145 36.3358 76.6525 39.8259C70.2886 43.2122 58.894 52.6071 58.894 52.6071L46.3706 53.2203V53.2234Z" fill="#37474F"/>
<g id="Group_9">
<path id="Vector_11" d="M69.8337 69.4194C71.0191 66.5173 70.9247 65.3791 73.8866 56.374C74.2828 55.1698 74.6129 53.9467 74.9682 52.7299C75.3361 51.469 75.77 50.2114 76.0467 48.9285C76.0592 48.8656 76.163 48.8908 76.1441 48.9537C75.8014 50.0667 75.5813 51.2175 75.2858 52.3431C74.9965 53.4468 74.7041 54.5473 74.3959 55.6446C74.2639 56.1194 74.1224 56.591 73.9872 57.0626C74.0469 56.9652 74.1067 56.8677 74.1633 56.7702C74.4211 56.3269 74.6821 55.8835 74.9493 55.4465C75.5027 54.5441 76.1756 53.6983 76.6629 52.755C76.6912 52.6984 76.7824 52.7488 76.751 52.8022C76.1913 53.7015 75.7951 54.7013 75.27 55.6226C75.0154 56.0691 74.7512 56.5061 74.4777 56.9431C74.2356 57.3267 73.9966 57.7669 73.6885 58.1097C73.286 59.4994 72.4182 62.848 71.9843 64.2315C70.6229 68.5862 71.0694 67.1682 70.0538 69.5043C70.0003 69.627 69.7834 69.5421 69.8337 69.4163V69.4194Z" fill="#111111"/>
<path id="Vector_12" d="M79.8505 78.5158C76.5397 78.4812 73.2319 78.2925 69.9242 78.2297C69.8613 78.2297 69.8519 78.1322 69.9179 78.1322C73.2162 78.1133 76.5145 77.9844 79.8159 78.0221C83.1299 78.063 86.4314 78.2234 89.7422 78.3366C89.8271 78.3366 89.8397 78.4686 89.7517 78.4718C86.4502 78.478 83.1551 78.5535 79.8537 78.5189L79.8505 78.5158Z" fill="#111111"/>
<path id="Vector_13" d="M71.7356 77.4087C72.0375 75.9466 72.4619 74.5097 72.8487 73.0665C73.2354 71.6233 73.6221 70.1801 74.0215 68.7401C74.8201 65.86 75.6502 62.9893 76.4802 60.1155C76.9519 58.4836 77.4581 56.8643 77.958 55.2419C77.9737 55.1948 78.0429 55.2136 78.0303 55.2608C76.5557 61.0525 74.9616 66.8158 73.2731 72.5477C72.7952 74.1733 72.3582 75.824 71.7859 77.4213C71.7733 77.4527 71.7262 77.4433 71.7356 77.4087Z" fill="#111111"/>
</g>
<path id="Vector_14" d="M48.8951 69.1267C42.9777 65.4951 46.3671 53.2232 46.3671 53.2232L56.9223 52.7075L71.2914 65.3347C71.2159 65.5611 71.1373 65.7969 71.0524 66.0422C70.3104 68.1991 52.8474 71.554 48.8951 69.1267Z" fill="#111111"/>
<path id="Vector_15" d="M90.0811 81.8484C90.0119 82.1754 89.9711 82.3452 89.9711 82.3452L67.9741 82.0874L71.4233 65.4513L90.0811 81.8484Z" fill="#111111"/>
</g>
</g>
<g id="Group_10">
<g id="Group_11">
<path id="Vector_16" d="M1.31767 98.6357C1.11959 99.7204 4.2135 100.362 5.59067 99.7896C6.02771 99.6072 7.30112 98.7426 8.85751 97.6326C12.2784 95.1896 17.0356 91.5894 17.0356 91.5894L33.2 92.5673L42.2177 75.9438C42.2177 75.9438 27.3518 75.0854 26.3299 74.5603C26.267 74.5289 26.2042 74.4943 26.1413 74.4628C21.4973 72.0952 17.633 70.2653 17.1928 70.5137C16.0043 71.1677 1.51262 97.5478 1.31453 98.6388L1.31767 98.6357Z" fill="#EFC6BA"/>
<path id="Vector_17" d="M29.1692 74.988L20.664 91.8128L17.0325 91.5927C17.0325 91.5927 12.2753 95.1928 8.85437 97.6359C7.29798 98.7427 6.02771 99.6105 5.59067 99.7928C4.2135 100.365 1.11959 99.7237 1.31767 98.6389C1.51576 97.5447 16.0075 71.1678 17.196 70.5138C17.6362 70.2685 21.5004 72.0953 26.1444 74.4661C26.2105 74.4975 26.2702 74.5321 26.3331 74.5604C26.5846 74.6925 27.6725 74.8403 29.1723 74.9912L29.1692 74.988Z" fill="#E2E7E9"/>
<g id="Group_12">
<path id="Vector_18" d="M1.00633 98.8526C1.20756 97.7395 15.998 70.9004 17.2116 70.237C17.6675 69.976 21.7047 71.9034 26.5154 74.3716C26.5657 74.3968 26.616 74.4251 26.6663 74.4502L17.3185 91.8724L17.0293 91.7026C17.0293 91.7026 6.77283 99.4437 5.36108 100.035C3.95876 100.616 0.805104 99.9593 1.00948 98.8494L1.00633 98.8526Z" fill="#479CFF"/>
<g id="Group_13">
<path id="Vector_19" d="M2.21347 99.1228C4.81688 94.658 14.9004 76.412 17.1359 71.8026C17.1548 71.7649 17.1296 71.7523 17.1076 71.7869C14.4288 76.1542 4.49303 94.4819 2.13801 99.0819C2.0877 99.1794 2.15687 99.2171 2.21347 99.1228Z" fill="#111111"/>
<path id="Vector_20" d="M16.2021 93.7747C17.5164 92.1775 18.4408 89.8507 17.922 87.7913C17.9032 87.7127 17.79 87.741 17.7742 87.8101C17.3592 89.8727 16.8121 91.709 15.9789 93.6458C15.9192 93.781 16.1047 93.8911 16.199 93.7779L16.2021 93.7747Z" fill="#111111"/>
<path id="Vector_21" d="M14.7212 94.6331C16.0355 93.0359 16.9599 90.7091 16.4411 88.6497C16.4222 88.571 16.309 88.5994 16.2933 88.6685C15.8783 90.7311 15.3312 92.5674 14.4979 94.5042C14.4382 94.6394 14.6237 94.7495 14.718 94.6363L14.7212 94.6331Z" fill="#111111"/>
<path id="Vector_22" d="M13.2373 95.4914C14.5516 93.8941 15.476 91.5642 14.9572 89.5048C14.9383 89.4262 14.8251 89.4545 14.8094 89.5236C14.3944 91.5862 13.8473 93.4225 13.0141 95.3593C12.9543 95.4945 13.1398 95.6046 13.2341 95.4914H13.2373Z" fill="#111111"/>
<g id="Group_14">
<path id="Vector_23" d="M18.8118 98.2298C20.1607 98.06 20.4468 96.5194 20.2299 95.4315C19.8808 93.6707 18.881 91.7464 17.661 90.4416C17.6296 90.4101 17.595 90.4227 17.573 90.4479C17.4346 90.3787 17.224 90.4196 17.1957 90.6051C16.9316 92.3753 16.4254 94.2335 16.7115 96.0352C16.8781 97.0853 17.5321 98.3902 18.8087 98.2298H18.8118ZM17.3466 93.372C17.4567 92.4979 17.6076 91.6364 17.6862 90.756C18.183 91.7307 18.7206 92.6803 19.1231 93.7021C19.3149 94.1895 19.5004 94.6957 19.623 95.2082C19.8148 96.0037 19.6828 98.6669 17.9031 97.2771C16.9221 96.5099 17.2208 94.4127 17.3498 93.372H17.3466Z" fill="#111111"/>
<path id="Vector_24" d="M20.6196 86.1749C19.1858 87.2974 18.2866 89.0016 17.2773 90.4794C17.1735 90.6335 17.2961 90.8064 17.4471 90.8504C17.4471 90.885 17.4628 90.9164 17.5068 90.9133C19.2896 90.7875 21.3302 90.0612 22.7859 89.0079C23.6852 88.357 24.5247 87.0365 23.6537 85.9926C22.8268 85.0053 21.4622 85.5178 20.6227 86.1718L20.6196 86.1749ZM22.3332 86.0712C24.5844 86.2661 22.8646 88.3036 22.1854 88.7564C21.7484 89.0456 21.2673 89.2909 20.7957 89.5173C19.8052 89.9952 18.7676 90.3222 17.7363 90.6963C18.2771 90.0015 18.7551 89.2657 19.2707 88.552C19.8838 87.6999 21.0944 85.9611 22.3363 86.068L22.3332 86.0712Z" fill="#111111"/>
</g>
</g>
</g>
</g>
<g id="Group_15">
<path id="Vector_25" d="M60.2871 50.2205C60.2871 50.2205 60.8468 55.3236 60.7965 59.2288C60.7965 59.2288 81.693 70.1801 82.6457 80.5875C82.9821 84.2757 82.4916 91.1804 75.2631 94.3309C67.1856 97.8493 22.5439 95.4251 22.5439 95.4251L28.1218 74.8713L47.8109 74.8807C47.8109 74.8807 33.9166 77.0911 32.4074 67.8314C31.005 59.2256 36.2905 50.2174 36.2905 50.2174H60.2871V50.2205Z" fill="#37474F"/>
<path id="Vector_26" d="M27.1528 94.4221C27.6464 92.0545 28.1212 89.6743 28.6715 87.3193C29.2217 84.9579 29.8065 82.6061 30.4291 80.2668C30.6052 79.6065 30.7844 78.9462 30.9636 78.2859C31.0485 77.9715 31.1334 77.6571 31.2246 77.3458C31.3157 77.0314 31.3881 76.7044 31.5107 76.4025C31.5233 76.3679 31.561 76.3868 31.5579 76.4214C31.5013 77.0251 31.3315 77.6476 31.2026 78.2387C31.0799 78.811 30.9605 79.3832 30.8347 79.9555C30.5769 81.1314 30.3159 82.3042 30.0455 83.4739C29.5047 85.8226 28.9073 88.1525 28.2973 90.4792C27.9514 91.8029 27.6024 93.1235 27.2503 94.4441C27.2314 94.5195 27.1339 94.5038 27.1497 94.4252L27.1528 94.4221Z" fill="#111111"/>
<path id="Vector_27" d="M41.0103 74.8808C42.6044 74.7676 44.2048 74.7142 45.802 74.6827C47.3993 74.6513 48.9997 74.667 50.6001 74.6953C52.1974 74.7488 53.7978 74.8116 55.3919 74.9531C56.986 75.0978 58.5801 75.2738 60.1397 75.6386L58.9512 75.4845L57.7595 75.3713C56.964 75.3021 56.1685 75.2392 55.373 75.2015C53.7821 75.1103 52.1848 75.0443 50.5907 75.0192C48.9966 74.9657 47.3993 74.9531 45.802 74.9311L41.0103 74.8808Z" fill="#111111"/>
<path id="Vector_28" d="M40.6602 51.9061C39.9465 53.7361 39.327 55.6069 38.802 57.4966C38.2832 59.3894 37.8681 61.3137 37.6638 63.2568C37.5663 64.2284 37.5254 65.2062 37.6009 66.1746C37.6795 67.1368 37.8713 68.1052 38.3115 68.9478C38.5253 69.3692 38.8177 69.7465 39.1635 70.0609C39.5188 70.3753 39.9182 70.6457 40.3363 70.8847C41.1758 71.3532 42.0908 71.6927 43.0215 71.9632C44.8923 72.5008 46.8386 72.7775 48.7817 73.0102C50.7311 73.2366 52.6868 73.3938 54.6488 73.595C56.6077 73.7962 58.5728 74.0289 60.5034 74.5068C61.4623 74.7458 62.4339 75.0539 63.3174 75.5444C64.201 76.0286 65.009 76.6072 65.7636 77.2769L66.207 77.6699L65.6096 77.6605L49.6904 77.4467L41.7292 77.3838C39.0755 77.3744 36.4218 77.3681 33.7681 77.4404C36.4186 77.2863 39.0724 77.2454 41.7261 77.1983C44.3798 77.1543 47.0335 77.1448 49.6904 77.1385L57.6547 77.1448L65.6159 77.2203L65.4618 77.607C64.7449 76.975 63.9431 76.4059 63.1005 75.9469C62.2578 75.4847 61.3366 75.1954 60.3902 74.9627C58.4973 74.51 56.5479 74.2867 54.5985 74.0698C52.646 73.8623 50.6871 73.6925 48.7283 73.4567C46.7726 73.2146 44.8106 72.9253 42.902 72.3687C41.9493 72.0858 41.0092 71.7305 40.1383 71.2274C39.7043 70.9727 39.2893 70.6803 38.9152 70.3407C38.5378 69.9886 38.2234 69.5704 38.0002 69.1145C37.5411 68.1995 37.3619 67.1934 37.2927 66.2029C37.2299 65.2093 37.2833 64.2158 37.3965 63.2348C37.6229 61.2696 38.0945 59.3485 38.6542 57.462C39.2201 55.5754 39.8804 53.7203 40.657 51.9124L40.6602 51.9061Z" fill="#111111"/>
<path id="Vector_29" d="M58.0104 50.0038C58.0104 49.9597 58.0828 49.9566 58.0891 50.0006C58.1708 50.7112 58.4192 54.7767 58.545 56.3111C58.589 56.8582 58.5575 57.8297 59.3562 57.8297C59.985 57.8297 60.2994 57.1411 60.3686 56.6098C60.4535 55.9589 60.1045 51.2394 60.0259 49.6673C60.0259 49.6233 60.0951 49.6202 60.1045 49.6642C60.3938 51.2394 60.9566 56.245 60.7899 56.9462C60.6579 57.4964 60.3749 58.0184 59.8152 58.2039C59.8027 58.207 59.9064 58.9396 59.7901 60.059C59.7838 60.1093 59.6266 60.125 59.614 60.0841H59.6109C59.6392 59.7163 59.4442 58.2919 59.4474 58.2825C59.0355 58.2825 58.7116 58.1882 58.4349 57.8203C57.8815 57.0845 58.0042 51.818 58.0167 50.0069L58.0104 50.0038Z" fill="#111111"/>
<path id="Vector_30" d="M55.7534 62.0615C56.3225 61.6685 56.9136 61.3101 57.5048 60.9611C58.0959 60.6058 58.7027 60.2788 59.3095 59.9518C59.9195 59.6342 60.5326 59.3166 61.1615 59.0336C61.7872 58.7444 62.4192 58.4677 63.0732 58.2382C62.7776 58.4174 62.4726 58.5809 62.1771 58.757L61.2747 59.26C60.6741 59.5965 60.0673 59.9203 59.4605 60.2442C58.8505 60.5617 58.2436 60.8825 57.6242 61.1843L56.6967 61.6371C56.3823 61.7786 56.0741 61.9295 55.7534 62.0647V62.0615Z" fill="#111111"/>
<path id="Vector_31" d="M40.9218 58.7948C42.0318 58.7917 45.4873 58.9929 47.1348 57.6C48.468 56.4744 49.0528 52.629 49.2823 51.5757C49.2949 51.5222 49.3704 51.5411 49.3704 51.5914C49.405 52.7736 49.2352 53.9779 48.9239 55.1192C48.6566 56.0939 48.295 57.1787 47.509 57.861C46.6821 58.5779 45.5564 58.8326 44.4968 58.9615C43.302 59.1093 42.1072 59.0747 40.9187 58.9112C40.8464 58.9017 40.8432 58.7948 40.9187 58.7917L40.9218 58.7948Z" fill="#111111"/>
</g>
</g>
</g>
<g id="Group_16">
<g id="Group_17">
<path id="Vector_32" d="M57.8667 4.2679C59.7627 3.73023 63.8627 4.06038 65.482 8.7044C67.7804 15.301 60.0677 25.897 58.5081 27.3088C58.5081 27.3088 49.239 25.9505 44.3623 18.3069C44.3623 18.3069 52.204 12.5246 53.6629 8.22333C54.5087 5.72996 56.477 4.66093 57.8667 4.2679Z" fill="#111111"/>
<path id="Vector_33" d="M50.6982 12.1819C50.6416 12.2322 50.585 12.2857 50.5284 12.336C49.7864 12.9742 48.9909 13.5433 48.1451 14.037C47.3371 14.5055 46.4976 14.9268 45.5794 15.15C45.5543 15.1563 45.5386 15.1186 45.5637 15.1123C46.4944 14.8576 47.3151 14.342 48.1011 13.8043C48.8683 13.2824 49.6072 12.7133 50.3052 12.1033C51.7232 10.8676 53.0155 9.44956 54.0751 7.89631C54.0971 7.86487 54.1506 7.89946 54.1317 7.9309C53.9997 8.16043 53.8645 8.38367 53.723 8.60376C53.745 8.60691 53.7607 8.62892 53.745 8.65407C52.7828 10.1287 51.7893 11.5499 50.5379 12.7982C49.3053 14.0276 47.8842 15.0369 46.3624 15.8858C45.5103 16.3637 44.6299 16.7913 43.7244 17.1623C43.7118 17.1686 43.7023 17.1466 43.7149 17.1403C46.3435 15.9392 48.6608 14.1911 50.7014 12.1756L50.6982 12.1819Z" fill="#111111"/>
<path id="Vector_34" d="M64.4005 7.30502C67.1391 11.8264 65.8091 17.2439 63.5736 21.5106C62.8881 22.8218 62.1021 24.0889 61.1714 25.2428C61.1557 25.2648 61.1211 25.2397 61.1368 25.2177C62.5894 23.0827 63.7434 20.8252 64.5357 18.3538C65.2683 16.0648 65.8186 13.584 65.5513 11.141C65.4098 9.82669 65.0388 8.50611 64.3408 7.35218C64.3156 7.31131 64.3754 7.26414 64.4005 7.30502Z" fill="#111111"/>
</g>
<g id="Group_18">
<g id="Group_19">
<path id="Vector_35" d="M55.5622 25.5102C60.0428 37.4332 64.2088 44.3316 67.4568 44.6491C71.0318 45.0013 81.3857 36.8986 86.5548 32.4999C87.2748 31.8867 79.0621 23.1206 78.1912 23.74C74.7608 26.1737 69.1075 32.0314 67.8561 32.2892C67.0418 32.4558 64.7591 29.1167 59.829 23.7117C55.427 18.8885 53.5688 20.2028 55.5622 25.5102Z" fill="#EFC6BA"/>
<g id="Group_20">
<g id="Group_21">
<path id="Vector_36" d="M86.0017 32.9212C87.2783 32.1509 91.8059 28.8243 94.1547 25.6675C95.2929 24.1362 98.0975 19.3885 96.9876 18.4232C95.8777 17.4579 94.9344 18.7753 94.9344 18.7753C94.9344 18.7753 95.818 16.5932 94.6137 15.7223C93.4095 14.8545 92.0103 16.9485 92.0103 16.9485C92.0103 16.9485 92.7555 14.6407 91.4915 13.8578C90.2275 13.078 89.1742 15.4173 89.1742 15.4173C89.1742 15.4173 89.954 13.339 88.6428 13.1346C87.0645 12.8893 86.0583 16.8825 84.7157 18.5144C84.4107 18.8854 77.9902 25.5826 77.9902 25.5826L86.0017 32.9243V32.9212Z" fill="#EFC6BA"/>
<g id="Group_22">
<path id="Vector_37" d="M89.1363 15.4361C88.3911 18.3728 87.5579 19.5267 85.3915 21.5799C85.3506 21.6208 85.4009 21.6931 85.4481 21.6554C87.7497 19.838 89.0042 18.5394 89.2809 15.4675C89.2935 15.3166 89.1709 15.2977 89.1363 15.4392V15.4361Z" fill="#111111"/>
<path id="Vector_38" d="M92.0791 16.8381C91.0384 19.8189 90.1454 21.0797 88.0356 23.397C88.0074 23.4284 88.0577 23.485 88.0922 23.4536C90.3498 21.3532 91.5729 20.0295 92.2206 16.9136C92.2489 16.7721 92.1263 16.6998 92.0791 16.8381Z" fill="#111111"/>
<path id="Vector_39" d="M94.8398 19.014C93.623 21.8281 92.7049 23.2524 90.3687 25.2396C90.3121 25.2867 90.3782 25.3716 90.4379 25.3308C93.0162 23.5386 94.1764 21.7684 94.9247 19.0612C94.975 18.8757 94.9184 18.8379 94.843 19.014H94.8398Z" fill="#111111"/>
</g>
</g>
<g id="Group_23">
<path id="Vector_40" d="M78.1731 25.6326C78.1731 25.6326 78.1353 21.8375 78.4875 20.1648C78.8396 18.4952 82.4398 12.7476 83.7226 13.455C85.3827 14.3669 83.9584 18.0959 83.0214 19.8284C83.0214 19.8284 86.8605 21.9382 86.4172 24.834C85.9739 27.7298 78.1731 25.6326 78.1731 25.6326Z" fill="#EFC6BA"/>
<path id="Vector_41" d="M84.0968 13.8579C85.0087 15.7822 83.6346 17.98 82.8517 19.7282C82.792 19.8603 82.8769 19.9546 82.9901 19.9829C84.5402 20.9733 86.4393 22.8253 86.5147 24.7653C86.5147 24.8219 86.5965 24.8281 86.6028 24.7684C86.804 22.6744 85.0873 20.7061 83.3171 19.7282C84.1471 17.9454 85.43 15.6816 84.1126 13.8485C84.1063 13.8391 84.0874 13.8485 84.0937 13.8579H84.0968Z" fill="#111111"/>
</g>
</g>
</g>
<g id="Group_24">
<path id="Vector_42" d="M72.4279 27.9313L81.2003 38.411C81.2003 38.411 69.7931 46.1458 66.5199 44.7026C63.2437 43.2594 58.1878 33.4745 55.3643 26.0227C52.5407 18.5709 56.5402 19.728 59.6215 23.0923C62.7029 26.4566 66.7778 32.2797 67.567 32.1791C68.3562 32.0785 72.4279 27.9281 72.4279 27.9281V27.9313Z" fill="#479CFF"/>
<path id="Vector_43" opacity="0.1" d="M59.2752 22.7277L54.4394 22.6679C54.4269 22.5579 54.4174 22.4541 54.4111 22.3535L58.9482 22.407C59.0583 22.5107 59.1652 22.6176 59.2752 22.7277ZM61.0769 24.7651L54.8985 24.6897C54.9299 24.7934 54.9645 24.9003 55.0022 25.0072L61.3441 25.0858C61.2561 24.9758 61.1649 24.8689 61.0769 24.7651ZM62.998 27.1202L55.7506 27.0321C55.7914 27.1359 55.8355 27.2428 55.8763 27.3497L63.2527 27.4409C63.1709 27.334 63.086 27.2271 62.998 27.1202ZM73.811 29.5821L70.7862 29.5444L64.8908 29.4752L56.7158 29.3746C56.763 29.4815 56.807 29.5884 56.8542 29.6953L65.1518 29.7959L70.4592 29.8588L74.0782 29.9028L73.811 29.5821ZM75.7824 31.9371L68.1797 31.8459L66.9786 31.8302L57.7597 31.7202C57.8069 31.8271 57.8572 31.9308 57.9075 32.0377L67.4345 32.1541H67.6483L76.0496 32.2578L75.7824 31.9371ZM77.7538 34.2953L58.8822 34.0658C58.9357 34.1727 58.9891 34.2796 59.0426 34.3833L78.0211 34.6129L77.7538 34.2953ZM79.7252 36.6503L60.1022 36.4114C60.1588 36.5183 60.2154 36.622 60.2751 36.7289L79.9925 36.9679L79.7252 36.6503ZM61.4385 38.7601C61.5045 38.867 61.5674 38.9739 61.6334 39.0777L79.8384 39.2978C80.0145 39.1877 80.1749 39.0839 80.3195 38.9896L61.4385 38.7601ZM62.9603 41.1088C63.0357 41.2189 63.1112 41.3258 63.1866 41.4295L76.0213 41.5836C76.2069 41.4798 76.3924 41.3761 76.5716 41.2755L62.9603 41.1088ZM64.8719 43.4639C64.9851 43.577 65.0952 43.6839 65.2052 43.7846L71.4245 43.86C71.6635 43.7626 71.9056 43.6588 72.1508 43.5519L64.8719 43.4639Z" fill="#111111"/>
<path id="Vector_44" d="M71.1948 28.4971L79.8163 39.9483L82.3568 38.1907L73.1537 26.2646L71.1948 28.4971Z" fill="#479CFF"/>
<path id="Vector_45" opacity="0.1" d="M71.1948 28.4971L79.8163 39.9483L82.3568 38.1907L73.1537 26.2646L71.1948 28.4971Z" fill="#111111"/>
<path id="Vector_46" opacity="0.1" d="M71.1793 43.9605C69.2394 44.7371 67.51 45.1364 66.5196 44.6994C63.2465 43.2593 58.1874 33.4745 55.3639 26.0227C53.8736 22.0955 54.2823 20.558 55.452 20.4825C57.807 23.9915 67.4094 38.26 71.1825 43.9605H71.1793Z" fill="#111111"/>
</g>
</g>
<g id="Group_25">
<path id="Vector_47" d="M31.9048 56.5468C31.9048 56.5468 61.4196 56.9775 61.4164 56.9775C61.3032 57.5403 63.2023 36.8073 58.3917 21.7465C58.0647 20.7183 53.7351 18.8381 51.3801 20.2844C41.0608 26.6295 31.9174 56.2858 31.9048 56.5436V56.5468Z" fill="#479CFF"/>
<path id="Vector_48" opacity="0.1" d="M56.4296 20.3599L51.3611 20.3002C51.3611 20.3002 51.3737 20.2908 51.38 20.2876C51.5781 20.165 51.7887 20.0675 52.012 19.9921L55.4423 20.0329C55.7882 20.1241 56.1215 20.2373 56.4296 20.3599ZM58.596 22.4037L48.8772 22.2842C48.7703 22.3848 48.6634 22.4917 48.5596 22.5986L58.6903 22.7213C58.6589 22.6143 58.6274 22.5074 58.596 22.4037ZM59.2437 24.743L46.7989 24.5921C46.7171 24.6927 46.6354 24.7964 46.5536 24.9033L59.3254 25.0606C59.2971 24.9537 59.272 24.8468 59.2437 24.743ZM59.7876 27.0791L45.0947 26.9031C45.0192 27.0068 44.9501 27.1137 44.8778 27.2175L59.8537 27.3999L59.7876 27.0791ZM60.2404 29.4185L43.6012 29.2141C43.5352 29.321 43.4723 29.4247 43.4094 29.5316L60.297 29.736C60.2781 29.6291 60.2593 29.5222 60.2404 29.4185ZM60.6177 31.7546L42.2523 31.5314C42.1926 31.6351 42.136 31.742 42.0763 31.8458L60.6649 32.0722C60.6492 31.9684 60.6334 31.8615 60.6177 31.7546ZM60.9258 34.0876L41.0104 33.8455C40.9569 33.9524 40.9035 34.0562 40.85 34.1631L60.9636 34.4052C60.951 34.2983 60.9384 34.1914 60.9258 34.0876ZM61.1742 36.4238L39.8533 36.166L39.7024 36.4772L61.2057 36.7414C61.1963 36.6376 61.1868 36.5307 61.1742 36.4238ZM61.3692 38.7568L38.7623 38.4833C38.7151 38.5902 38.6679 38.6939 38.6208 38.7977L61.3912 39.0744C61.3849 38.9675 61.3786 38.8637 61.3692 38.7568ZM61.517 41.093L37.7341 40.8037C37.6869 40.9075 37.6429 41.0112 37.5989 41.1181L61.5327 41.4074C61.5264 41.3036 61.5232 41.1967 61.517 41.093ZM61.6176 43.4228L36.7531 43.121C36.7091 43.2279 36.6651 43.3348 36.6242 43.4386L61.627 43.7404C61.6239 43.6335 61.6207 43.5297 61.6176 43.4228ZM61.6742 45.7559L35.8161 45.4414C35.7752 45.5483 35.7344 45.6521 35.6935 45.7559L61.6805 46.0734C61.6773 45.9697 61.6773 45.8628 61.6742 45.7559ZM34.92 47.7619C34.8823 47.8656 34.8414 47.9725 34.8037 48.0763L61.693 48.4033V48.0889L34.92 47.7619ZM34.0616 50.0823C34.0239 50.1892 33.9862 50.2961 33.9485 50.3999L61.6679 50.7363C61.6679 50.6326 61.671 50.5257 61.671 50.4187L34.0616 50.0823ZM33.241 52.4059C33.2064 52.5128 33.1687 52.6197 33.1341 52.7203L61.6019 53.0662C61.605 52.9624 61.6081 52.8587 61.6113 52.7518L33.241 52.4059ZM32.4644 54.7263C32.4267 54.8364 32.3952 54.9433 32.3638 55.0439L61.4981 55.3961C61.5044 55.2954 61.5075 55.1885 61.5138 55.0785L32.4644 54.7263Z" fill="#111111"/>
</g>
<g id="Group_26">
<g id="Group_27">
<path id="Vector_49" d="M48.3464 51.9748L33.0049 49.3717L31.4238 58.6901L46.7653 61.2931L48.3464 51.9748Z" fill="#111111"/>
<path id="Vector_50" d="M37.493 49.7208L34.793 49.2627L34.7246 49.6657L37.4246 50.1238L37.493 49.7208Z" fill="#111111"/>
<path id="Vector_51" d="M37.0682 49.2412L35.3633 48.9519L35.2949 49.3549L36.9999 49.6442L37.0682 49.2412Z" fill="#111111"/>
<path id="Vector_52" d="M45.4 51.4753L41.3188 50.7835L41.9603 49.6013L45.1862 50.1484L45.4 51.4753Z" fill="#111111"/>
<path id="Vector_53" d="M44.5224 50.5511L42.4609 50.2013L42.3331 50.9546L44.3946 51.3044L44.5224 50.5511Z" fill="white"/>
<path id="Vector_54" d="M32.3987 50.5414L32.2729 51.2803L32.6408 51.4816L32.5874 51.7991L31.9868 51.4721L32.1912 50.2679L32.8672 50.1578L32.8106 50.4754L32.3987 50.5414Z" fill="#111111"/>
<path id="Vector_55" d="M48.5225 53.2801L48.3967 54.019L47.9848 54.0851L47.9282 54.4026L48.6042 54.2926L48.8086 53.0884L48.2081 52.7614L48.1546 53.0789L48.5225 53.2801Z" fill="#111111"/>
<path id="Vector_56" d="M37.172 51.6105C37.15 52.7518 37.0022 53.8743 36.8198 54.9874C36.6249 56.1004 36.3985 57.2072 36.04 58.292C36.0589 57.1506 36.2098 56.0281 36.3922 54.9151C36.5871 53.802 36.8167 52.6952 37.172 51.6105Z" fill="#455A64"/>
<g id="Group_28">
<path id="Vector_57" d="M41.8944 59.7608C39.7972 59.4055 38.3791 57.4089 38.7376 55.3117C39.0929 53.2145 41.0894 51.7965 43.1866 52.1549C45.2838 52.5102 46.7019 54.5068 46.3434 56.604C45.9881 58.7012 43.9915 60.1192 41.8944 59.7608ZM43.1489 52.3687C41.1712 52.0323 39.2846 53.3686 38.9514 55.3494C38.6149 57.3303 39.9512 59.2137 41.9321 59.547C43.9098 59.8834 45.7963 58.5471 46.1296 56.5663C46.466 54.5885 45.1297 52.702 43.1489 52.3687Z" fill="#37474F"/>
<path id="Vector_58" d="M45.465 56.4559C45.1915 58.0721 43.6571 59.16 42.0409 58.8864C40.4248 58.6129 39.3369 57.0785 39.6105 55.4623C39.884 53.8462 41.4184 52.7583 43.0345 53.0319C44.6506 53.3054 45.7385 54.8398 45.465 56.4559Z" fill="#455A64"/>
</g>
<path id="Vector_59" d="M47.582 52.6543C47.5537 52.8241 47.3933 52.9404 47.2204 52.909C47.0474 52.8776 46.9342 52.7203 46.9657 52.5474C46.994 52.3776 47.1543 52.2613 47.3273 52.2927C47.4971 52.321 47.6134 52.4814 47.582 52.6543Z" fill="#FFC427"/>
</g>
<path id="Vector_60" d="M32.1904 50.268C34.8504 44.4701 37.7966 38.7979 41.1106 33.3301C42.7613 30.5946 44.5315 27.922 46.4715 25.3626C47.443 24.0829 48.4775 22.8472 49.6 21.6807L50.0276 21.2468L50.2414 21.0299L50.4772 20.8161C50.7885 20.5299 51.1343 20.2753 51.4959 20.0457C51.8638 19.8193 52.2568 19.6307 52.6687 19.4861C53.0838 19.3477 53.5208 19.2565 53.961 19.2251C54.8477 19.1653 55.7438 19.3729 56.5235 19.7785C57.3033 20.1904 57.9667 20.7972 58.4509 21.5298C58.932 22.2593 59.2401 23.1365 59.2244 24.0483L59.2024 24.3879L59.1615 24.6897L59.0829 25.2966C59.0138 25.6959 58.954 26.0984 58.8723 26.4914C58.5547 28.0761 58.1397 29.6293 57.6775 31.1637C57.2184 32.7012 56.7059 34.2168 56.1588 35.7197C53.9767 41.7315 51.3702 47.5671 48.5184 53.2739C49.7666 50.3403 50.9991 47.4005 52.1468 44.4292C53.3133 41.4673 54.4232 38.4803 55.4388 35.4713C56.4324 32.456 57.385 29.4155 57.9636 26.3216C58.0359 25.9349 58.0925 25.5481 58.1554 25.1614L58.2277 24.5797L58.2654 24.2904L58.2812 24.0326C58.2906 23.344 58.0516 22.646 57.6555 22.0549C57.2593 21.4606 56.709 20.9638 56.0739 20.6337C55.4388 20.3067 54.725 20.1495 54.0207 20.1935C53.6686 20.2187 53.3164 20.2878 52.9769 20.3979C52.6373 20.5174 52.3103 20.6714 51.9959 20.8601C51.3639 21.2374 50.8356 21.7688 50.2791 22.3379C49.1818 23.4604 48.1756 24.6772 47.1946 25.9191C45.2421 28.4094 43.4656 31.0474 41.7489 33.7231C40.0415 36.4051 38.4034 39.1343 36.8187 41.8981C35.2152 44.6524 33.6934 47.4508 32.1936 50.2649L32.1904 50.268Z" fill="#C5CFD3"/>
</g>
<g id="Group_29">
<g id="Group_30">
<path id="Vector_61" d="M56.6 25.8373C55.1663 25.7996 52.7735 23.4603 52.3239 21.275C52.2925 21.1241 52.9056 19.8318 53.5753 18.2283C53.9778 17.2535 54.4022 16.1562 54.7167 15.1281C54.7795 14.9174 60.6812 18.6716 60.6812 18.6716C60.6812 18.6716 59.3858 20.6304 58.8482 22.4258C58.8041 22.5767 58.7758 22.7214 58.7633 22.8597C58.7601 22.8786 58.757 22.9037 58.7507 22.932C58.6344 23.7747 58.1344 25.875 56.6 25.8341V25.8373Z" fill="#EFC6BA"/>
<path id="Vector_62" d="M58.7665 22.8628C58.7602 22.8848 58.757 22.91 58.7508 22.9351C58.5401 22.9005 58.32 22.8439 58.081 22.7685C54.3143 21.5202 54.7702 16.4643 54.9463 15.2003C56.0404 15.716 60.6845 18.6715 60.6845 18.6715C60.6845 18.6715 59.389 20.6335 58.8482 22.4289C58.8074 22.5798 58.7791 22.7245 58.7665 22.8628Z" fill="#111111"/>
</g>
<g id="Group_31">
<path id="Vector_63" d="M55.9776 6.7613C54.6444 8.87737 54.047 15.8701 55.2827 17.8038C57.0749 20.6053 60.9109 21.8725 63.5206 19.5111C66.0485 17.2221 66.6679 8.09131 65.2027 6.2425C63.0458 3.5196 57.9459 3.63594 55.9776 6.75816V6.7613Z" fill="#EFC6BA"/>
<g id="Group_32">
<g id="Group_33">
<path id="Vector_64" d="M64.0946 12.949C64.1009 12.9301 64.1292 12.9772 64.126 12.9961C64.0505 13.4646 64.0411 14.0117 64.4467 14.2224C64.4593 14.2286 64.4562 14.2538 64.4404 14.2475C63.9311 14.106 63.9499 13.3797 64.0977 12.949H64.0946Z" fill="#111111"/>
<path id="Vector_65" d="M64.5754 12.5149C65.3363 12.5557 65.2011 14.0744 64.4937 14.0367C63.7988 13.9989 63.9372 12.4803 64.5754 12.5149Z" fill="#111111"/>
</g>
<path id="Vector_66" d="M60.5108 11.7857C60.712 11.858 60.9101 11.8926 61.1176 11.946C61.3503 12.0058 61.5295 12.0749 61.7654 11.99C61.8911 11.946 61.9729 11.7637 61.9414 11.6379C61.866 11.3423 61.5987 11.1977 61.3189 11.116C61.017 11.0279 60.7623 11.0342 60.4731 11.1568C60.1932 11.2732 60.2436 11.6882 60.5077 11.7857H60.5108Z" fill="#111111"/>
<path id="Vector_67" d="M65.2747 11.5908C65.0703 11.5279 64.8911 11.4398 64.693 11.3581C64.4698 11.2669 64.2843 11.2166 64.1459 11.0059C64.0705 10.8927 64.1145 10.701 64.2151 10.6192C64.4541 10.4274 64.7528 10.4714 65.0232 10.572C65.3187 10.6821 65.5168 10.8393 65.6772 11.1097C65.8312 11.3707 65.5451 11.6725 65.2716 11.5939L65.2747 11.5908Z" fill="#111111"/>
<path id="Vector_68" d="M60.3913 16.8162C60.4888 16.942 60.5831 17.1055 60.7498 17.1432C60.9101 17.1778 61.1113 17.1306 61.2685 17.0898C61.2843 17.0866 61.2968 17.1023 61.2843 17.1181C61.1396 17.2816 60.8692 17.3602 60.6554 17.2941C60.4479 17.2281 60.3662 17.0332 60.341 16.8319C60.3379 16.8036 60.3756 16.7973 60.3882 16.8162H60.3913Z" fill="#111111"/>
<path id="Vector_69" d="M61.0678 15.4769C61.2784 15.9171 61.6337 16.1906 62.0425 16.3258C62.2248 16.3887 62.4198 16.4202 62.6147 16.4265C62.6524 16.4296 62.6902 16.4327 62.7248 16.4265C62.7594 16.4265 62.7908 16.4265 62.8285 16.4265C62.8851 16.4265 62.9197 16.3856 62.9354 16.3353C62.9354 16.3133 62.9386 16.3007 62.9354 16.2818L62.9386 16.2378C62.9952 15.8794 63.0329 15.3228 63.0329 15.3228C63.1555 15.4046 63.7907 15.7945 63.8032 15.6058C63.9133 14.0337 64.0359 12.2824 63.8127 10.6914C63.8095 10.6379 63.7278 10.6411 63.7246 10.6914C63.558 12.2006 63.6617 13.7256 63.5203 15.2442C63.3159 15.1342 62.9857 14.9392 62.7971 14.9172C62.7436 14.9267 62.7468 15.9894 62.709 16.1466C62.709 16.1466 62.709 16.1529 62.7028 16.1623C62.0865 16.1623 61.6526 15.9171 61.1181 15.436C61.0866 15.4046 61.0458 15.4329 61.0678 15.4738V15.4769Z" fill="#111111"/>
<g id="Group_34">
<path id="Vector_70" d="M60.25 12.4461C60.3789 12.4241 60.511 12.4335 60.643 12.4461C60.7751 12.4649 60.904 12.5027 61.0298 12.5624C61.1524 12.6253 61.2719 12.7039 61.3693 12.8139C61.4668 12.924 61.536 13.0592 61.5769 13.2007L61.646 13.4585L61.3914 13.3705C61.2184 13.3107 61.0266 13.2636 60.838 13.2416C60.6493 13.2227 60.4544 13.2227 60.2563 13.3013C60.3946 13.1378 60.621 13.0498 60.838 13.034C61.0581 13.0152 61.2719 13.0403 61.4888 13.1095L61.3065 13.2793C61.2436 13.0749 61.1052 12.9051 60.9134 12.7731C60.7216 12.6441 60.4952 12.5372 60.25 12.4492V12.4461Z" fill="#111111"/>
<path id="Vector_71" d="M60.75 13.6535C60.9607 13.6346 61.1588 13.6472 61.3631 13.5717C61.4103 13.556 61.5958 13.4774 61.5958 13.4428C61.6021 13.3516 61.5832 13.2416 61.5612 13.1378C61.6021 13.2353 61.6555 13.3296 61.6555 13.4491C61.6178 13.5403 61.5235 13.622 61.3914 13.6598C61.1776 13.7226 60.9292 13.7006 60.7531 13.6503L60.75 13.6535Z" fill="#111111"/>
</g>
</g>
<g id="Group_35">
<path id="Vector_72" d="M55.3258 13.0528C55.7942 12.8452 56.9419 10.8487 56.9419 10.8487C56.9419 10.8487 61.5136 10.572 63.1894 7.05987C63.1894 7.05987 64.4283 9.85823 65.9752 10.8864C65.9752 10.8864 67.1543 7.07874 63.8403 5.43116C63.8403 5.43116 60.8564 2.99753 56.901 5.29596C52.9456 7.59125 54.2567 12.7949 54.2567 12.7949L55.3258 13.0559V13.0528Z" fill="#111111"/>
<path id="Vector_73" d="M63.3118 6.33341C63.2867 6.97798 62.9502 7.60997 62.595 8.13505C62.2365 8.66957 61.7775 9.14749 61.2775 9.55624C60.7713 9.97442 60.2116 10.358 59.5922 10.5875C58.8848 10.8517 58.1144 10.9114 57.3661 10.9554C57.3441 10.9554 57.3441 10.9994 57.3661 10.9963C58.149 10.9774 58.9382 10.946 59.6928 10.7165C60.35 10.5152 60.9537 10.1474 61.5071 9.74175C62.0699 9.32671 62.5635 8.83936 62.9125 8.22938C63.2521 7.63197 63.3433 7.00942 63.3873 6.33655C63.3873 6.28625 63.3118 6.27996 63.3118 6.33027V6.33341Z" fill="#111111"/>
</g>
<g id="Group_36">
<path id="Vector_74" d="M64.8971 5.19211C64.4066 4.47837 63.1615 2.95028 61.7686 2.30571C60.3474 1.64857 58.1968 1.54481 57.4579 1.48507C56.8479 1.43476 54.9739 0.859369 53.2823 1.0323C52.1661 1.14549 51.204 2.29314 51.0531 2.99744C50.8267 4.05705 53.0811 4.33688 53.0119 4.75507C52.9679 5.03176 52.0875 6.13852 52.4554 6.98747C52.8201 7.83326 52.8327 7.73265 53.0465 8.20114C53.5653 9.34564 56.5869 5.16696 58.8508 4.6576C61.1115 4.14823 64.9002 5.18897 64.9002 5.18897L64.8971 5.19211Z" fill="#479CFF"/>
<path id="Vector_75" opacity="0.1" d="M64.7243 5.20179C64.7243 5.20179 61.1116 4.15161 58.8509 4.66098C56.5902 5.1672 53.9113 9.28299 53.3894 8.13849C53.1599 7.63542 53.2102 7.1292 53.4554 6.37773C54.3987 5.27725 56.0651 3.69256 57.895 3.01655C59.6086 2.38142 61.6304 2.78073 63.5012 3.67055C63.9948 4.17991 64.3879 4.71129 64.7211 5.20179H64.7243Z" fill="#111111"/>
<g id="Group_37">
<path id="Vector_76" d="M52.3582 10.2985C53.9303 9.29549 55.842 7.43096 58.0838 6.46254C60.3288 5.49412 64.4288 6.66691 64.8973 6.99706C66.0355 7.79884 65.9443 8.5283 66.1959 8.53773C66.4474 8.54716 66.1016 6.47197 65.894 6.06322C65.6865 5.65762 65.0357 4.94388 64.5137 4.63575C63.9918 4.32761 60.6275 2.67375 58.6372 3.30888C56.6469 3.94402 52.66 6.71722 52.3582 7.87115C52.2859 8.14784 52.5028 8.49057 52.3959 8.88045C52.2576 9.39296 52.0343 9.95263 51.9777 10.3362C51.9306 10.6475 52.2607 10.3582 52.355 10.2985H52.3582Z" fill="#479CFF"/>
<g id="Group_38">
<path id="Vector_77" d="M58.8354 5.86802C58.6688 5.53158 58.5273 5.18886 58.4173 4.82728C58.3104 4.46883 58.216 4.09153 58.1972 3.71736C58.1972 3.68907 58.1563 3.68592 58.1531 3.71736C58.1374 4.11354 58.1531 4.49399 58.26 4.87758C58.3638 5.24546 58.5399 5.60705 58.7726 5.91203C58.7977 5.94662 58.8512 5.90889 58.8323 5.87116L58.8354 5.86802Z" fill="#111111"/>
<path id="Vector_78" d="M52.7726 9.64435C52.7915 9.54374 52.7821 9.43998 52.7915 9.33936C52.8041 9.22303 52.8229 9.10983 52.8575 8.99979C52.9236 8.78912 53.0462 8.60676 53.0682 8.38352C53.0839 8.2043 53.0619 8.02822 53.0367 7.85214C53.0116 7.65091 52.9896 7.44654 53.0996 7.26417C53.1154 7.23902 53.0776 7.21701 53.0619 7.23902C52.8512 7.57545 52.9267 7.9559 52.8984 8.33007C52.8795 8.56903 52.7475 8.77026 52.6909 9.00293C52.6437 9.19787 52.6028 9.46199 52.694 9.6475C52.7066 9.67579 52.7601 9.6758 52.7663 9.64121L52.7726 9.64435Z" fill="#111111"/>
<path id="Vector_79" d="M53.9012 8.68557C53.8761 8.49378 53.8321 8.31141 53.8226 8.11332C53.8163 7.92467 53.8226 7.73602 53.8415 7.55051C53.8604 7.365 53.8918 7.18263 53.9138 7.00027C53.939 6.78332 53.939 6.56007 53.9736 6.34312C53.9767 6.31482 53.9358 6.31482 53.9295 6.34312C53.8918 6.56636 53.8163 6.78331 53.7723 7.00655C53.7346 7.19835 53.7157 7.39644 53.7032 7.59138C53.6906 7.78003 53.6937 7.96554 53.7157 8.1542C53.7377 8.33027 53.7818 8.53779 53.8761 8.69501C53.8824 8.70758 53.9012 8.70129 53.8981 8.68872L53.9012 8.68557Z" fill="#111111"/>
<path id="Vector_80" d="M54.9801 7.84884C54.8732 7.51241 54.804 7.14454 54.8009 6.78924C54.7946 6.44023 54.8103 6.08493 54.8292 5.73593C54.8292 5.71077 54.7915 5.70448 54.7883 5.72964C54.7129 6.08808 54.6343 6.44023 54.6468 6.81125C54.6531 6.98733 54.6657 7.16969 54.7129 7.33948C54.7632 7.52499 54.8481 7.69792 54.9424 7.86457C54.955 7.88658 54.9927 7.874 54.9864 7.84884H54.9801Z" fill="#111111"/>
<path id="Vector_81" d="M56.0678 7.08522C55.9892 6.9343 55.9766 6.77395 55.9577 6.60416C55.9389 6.41865 55.9231 6.23629 55.9168 6.05078C55.9074 5.8747 55.8948 5.69548 55.8886 5.5194C55.8791 5.34018 55.876 5.15781 55.942 4.98803C55.9514 4.96602 55.9137 4.94715 55.9043 4.96916C55.8162 5.12952 55.7816 5.30245 55.7628 5.48167C55.7408 5.67976 55.7313 5.8747 55.7439 6.07279C55.7565 6.26773 55.7785 6.45952 55.8131 6.65132C55.8445 6.81797 55.8917 6.99719 56.0175 7.11981C56.0426 7.14182 56.0835 7.11981 56.0678 7.08522Z" fill="#111111"/>
<path id="Vector_82" d="M57.2025 5.96235C57.1616 5.79885 57.1238 5.6322 57.0955 5.46556C57.0673 5.29892 57.0484 5.12913 57.0327 4.96248C57.0169 4.78641 56.9949 4.60719 56.9886 4.43111C56.9886 4.40281 56.9478 4.39967 56.9446 4.43111C56.9195 4.60719 56.8975 4.78326 56.8975 4.96248C56.8975 5.13856 56.9163 5.31149 56.9415 5.48757C56.9666 5.65736 57.0012 5.83029 57.0484 5.99693C57.0956 6.15729 57.1459 6.3428 57.2528 6.47486C57.2685 6.49372 57.3062 6.48429 57.3062 6.45599C57.2999 6.29249 57.237 6.12585 57.1993 5.96549L57.2025 5.96235Z" fill="#111111"/>
<path id="Vector_83" d="M60.0765 5.76769C60.0513 5.56331 60.0293 5.36208 59.9853 5.16085C59.9413 4.95648 59.8815 4.75525 59.8155 4.55402C59.6834 4.16413 59.5294 3.78997 59.3156 3.43782C59.303 3.41895 59.2684 3.42838 59.2747 3.45354C59.5199 4.23016 59.7998 4.99735 60.0356 5.77712C60.045 5.80542 60.0827 5.79599 60.0765 5.76769Z" fill="#111111"/>
<path id="Vector_84" d="M61.3405 5.23299C61.3122 5.02862 61.2619 4.83368 61.1864 4.64188C61.0292 4.24256 60.8028 3.87783 60.5639 3.51939C60.5481 3.49738 60.5136 3.5131 60.5261 3.53826C60.6959 3.90928 60.8689 4.27715 61.0166 4.6576C61.089 4.84626 61.1581 5.03491 61.2116 5.22985C61.265 5.42479 61.2713 5.62602 61.3153 5.82097C61.3185 5.83669 61.3436 5.83983 61.3468 5.82097C61.3971 5.63546 61.3688 5.41851 61.3405 5.22985V5.23299Z" fill="#111111"/>
<path id="Vector_85" d="M62.5354 5.37427C62.5133 5.17933 62.4693 4.98753 62.4096 4.80202C62.2964 4.44672 62.1203 4.11972 61.8939 3.82102C61.8782 3.80215 61.8468 3.82102 61.8593 3.84617C62.0291 4.17632 62.1706 4.52218 62.2807 4.87748C62.3373 5.0567 62.3813 5.23592 62.4284 5.41514C62.4756 5.59436 62.4882 5.7893 62.5542 5.96224C62.5605 5.97481 62.5794 5.96853 62.5794 5.95595C62.5951 5.7673 62.5542 5.55978 62.5322 5.37427H62.5354Z" fill="#111111"/>
<path id="Vector_86" d="M63.5477 5.23603C63.4911 5.06938 63.4251 4.90588 63.3559 4.74238C63.2898 4.58203 63.2207 4.41853 63.1043 4.28647C63.0886 4.26761 63.0603 4.28647 63.0698 4.31162C63.1861 4.63234 63.293 4.95934 63.3999 5.28319C63.5005 5.58818 63.5037 5.9026 63.5382 6.21703C63.5382 6.2296 63.5634 6.23275 63.5665 6.21703C63.6514 5.89003 63.6577 5.55674 63.5477 5.23603Z" fill="#111111"/>
<path id="Vector_87" d="M64.4915 5.5755C64.4098 5.23278 64.2368 4.93722 64.0388 4.65424C64.0262 4.63538 63.9916 4.65739 64.0042 4.6794C64.1803 4.95923 64.2809 5.28623 64.3626 5.6038C64.4475 5.92765 64.4727 6.26094 64.4852 6.59423C64.4852 6.60995 64.5104 6.61624 64.5135 6.60052C64.5921 6.26723 64.5701 5.91193 64.4915 5.57865V5.5755Z" fill="#111111"/>
<path id="Vector_88" d="M65.2745 6.75171C65.2839 6.67625 65.2839 6.60079 65.2839 6.52533C65.2839 6.37126 65.2588 6.21719 65.2242 6.06942C65.155 5.76443 65.023 5.4783 64.8972 5.19218C64.8846 5.16702 64.8469 5.18589 64.8595 5.21104C64.9884 5.48459 65.0764 5.777 65.1393 6.0757C65.1707 6.22348 65.1865 6.37126 65.1928 6.51904C65.1959 6.59136 65.1959 6.66367 65.1928 6.73599C65.1928 6.80516 65.177 6.88377 65.1865 6.9498C65.1865 6.96866 65.2179 6.97495 65.2273 6.95609C65.2588 6.89635 65.2682 6.8146 65.2745 6.74857V6.75171Z" fill="#111111"/>
<path id="Vector_89" d="M65.9063 7.2266C65.8968 7.10083 65.8811 6.97506 65.8591 6.84929C65.834 6.72352 65.8057 6.60404 65.7648 6.48456C65.7239 6.36193 65.6799 6.23931 65.6453 6.11668C65.6359 6.08524 65.595 6.10096 65.6044 6.12926C65.6484 6.25189 65.6736 6.3808 65.6956 6.50657C65.7176 6.62605 65.7396 6.74867 65.7585 6.86815C65.7805 6.98763 65.7994 7.11026 65.8214 7.22974C65.8402 7.35236 65.8465 7.48128 65.8811 7.60076C65.8874 7.61962 65.9126 7.61648 65.9157 7.60076C65.9346 7.48128 65.9157 7.34922 65.9094 7.2266H65.9063Z" fill="#111111"/>
</g>
</g>
</g>
<g id="Group_39">
<path id="Vector_90" d="M56.1622 12.7259C56.1622 12.7259 55.1906 10.1791 54.0713 10.4715C52.952 10.7639 53.3041 14.1911 54.3511 14.9111C55.3982 15.6312 56.0805 14.6753 56.0805 14.6753L56.1622 12.7259Z" fill="#EFC6BA"/>
<path id="Vector_91" d="M54.1973 11.4524C54.1784 11.4461 54.169 11.4713 54.1847 11.4807C54.911 12.0121 55.15 12.8673 55.2537 13.7225C55.0871 13.3641 54.801 13.1157 54.3293 13.3012C54.3042 13.3107 54.3168 13.3484 54.3419 13.3515C54.6909 13.3641 54.9173 13.4804 55.0745 13.8043C55.1846 14.0307 55.2349 14.2979 55.2946 14.5432C55.3135 14.6249 55.455 14.6186 55.4487 14.5275C55.4487 14.5212 55.4487 14.5149 55.4487 14.5086C55.7285 13.4836 55.2883 11.836 54.2067 11.4556L54.1973 11.4524Z" fill="#111111"/>
</g>
</g>
</g>
<g id="Group_40">
<path id="Vector_92" d="M81.5332 13.817L71.0283 14.8389L71.1258 22.1021L81.5457 22.5202L81.5332 13.817Z" fill="#455A64"/>
<path id="Vector_93" d="M63.9033 25.2648L72.2669 25.1516L71.3834 11.4333L64.0511 11.534L63.9033 25.2648Z" fill="#37474F"/>
<path id="Vector_94" d="M68.1828 11.4775L67.6986 10.1506L65.7178 10.1758L65.0166 11.5215L68.1828 11.4775Z" fill="#37474F"/>
<g id="Group_41">
<path id="Vector_95" d="M89.2933 12.5087L76.0498 13.7947L76.1724 22.9538L89.309 23.4789L89.2933 12.5087Z" fill="#37474F"/>
<path id="Vector_96" d="M88.8624 13.1878C88.8624 13.1878 87.3689 15.5177 87.2903 18.1023C87.2117 20.69 88.8844 22.7809 88.8844 22.7809L88.8592 13.1847L88.8624 13.1878Z" fill="#455A64"/>
</g>
</g>
<g id="Group_42">
<g id="Group_43">
<g id="Group_44">
<path id="Vector_97" d="M52.9161 25.7208C54.526 27.7017 65.6345 42.4513 66.4017 42.9795C66.4017 42.9795 63.8297 52.6794 58.5474 49.6515C53.567 46.7966 50.0046 34.1065 48.6211 27.3307C47.8759 23.6897 49.8568 21.9509 52.9193 25.7208H52.9161Z" fill="#EFC6BA"/>
<path id="Vector_98" d="M52.9161 25.7208C54.526 27.7017 65.6345 42.4513 66.4017 42.9795C66.4017 42.9795 63.8297 52.6794 58.5474 49.6515C53.567 46.7966 50.0046 34.1065 48.6211 27.3307C47.8759 23.6897 49.8568 21.9509 52.9193 25.7208H52.9161Z" fill="#479CFF"/>
<path id="Vector_99" opacity="0.1" d="M52.2549 24.9755L48.5636 24.9283C48.5887 24.8183 48.6202 24.7114 48.6579 24.6139L51.9247 24.6548C52.0316 24.7522 52.1417 24.8591 52.2549 24.9755ZM53.9245 27.0098L48.5479 26.9438C48.5636 27.0475 48.5824 27.1513 48.6044 27.2613L54.1729 27.3305C54.0848 27.2205 54.0031 27.1136 53.9245 27.0098ZM55.7324 29.3617L49.0415 29.2799C49.0635 29.3837 49.0887 29.4906 49.1138 29.6006L55.9776 29.6824L55.7324 29.3617ZM57.5372 31.7167L49.6075 31.6192L49.6923 31.9399L57.7824 32.0374C57.6975 31.9305 57.6158 31.8236 57.5372 31.7167ZM59.3388 34.0686L50.2457 33.9585C50.274 34.0654 50.3055 34.1692 50.3369 34.2761L59.5841 34.3893L59.3388 34.0686ZM61.153 36.4236L50.95 36.301C50.9846 36.4047 51.0192 36.5085 51.0538 36.6154L61.3983 36.7412C61.3134 36.6374 61.2316 36.5305 61.153 36.4236ZM62.9767 38.7786L51.7424 38.6403C51.7801 38.7472 51.8178 38.8541 51.8587 38.9579L63.2219 39.0962C63.1402 38.9924 63.0584 38.8855 62.9767 38.7786ZM64.8255 41.1305L52.6385 40.9827C52.6825 41.0896 52.7265 41.1965 52.7737 41.3003L65.0833 41.4512C64.9984 41.3475 64.9135 41.2406 64.8255 41.1305ZM53.6792 43.3283C53.7327 43.4352 53.783 43.5421 53.8364 43.6459L66.1492 43.7968C66.1869 43.6805 66.2215 43.5736 66.2529 43.4792L53.6792 43.3283ZM54.94 45.6739C55.0061 45.7808 55.0721 45.8877 55.1381 45.9915L65.1965 46.1141C65.2499 46.0072 65.3002 45.9035 65.3506 45.7997L54.94 45.6739ZM56.6379 48.0258C56.7323 48.139 56.8329 48.2459 56.9303 48.3465L63.747 48.4283C63.8319 48.3276 63.9136 48.2239 63.9923 48.117L56.6379 48.0258Z" fill="#111111"/>
</g>
<g id="Group_45">
<path id="Vector_100" d="M64.0325 30.3116C65.265 29.2866 74.6474 34.5469 73.4494 36.5812C67.7741 46.2025 63.5766 49.2053 61.5549 50.0636C59.5803 50.9032 56.4329 47.9759 55.977 46.1491C55.3136 43.5016 62.8125 31.3272 64.0356 30.3116H64.0325Z" fill="#EFC6BA"/>
<g id="Group_46">
<path id="Vector_101" d="M80.0872 20.2122C80.7632 21.3661 77.773 22.7905 77.773 22.7905C77.773 22.7905 78.6974 22.8156 79.3168 23.4507C80.0243 24.1802 79.1942 25.6108 79.1942 25.6108C79.1942 25.6108 80.1249 25.8309 80.7097 26.5667C81.3166 27.3307 80.6846 28.8934 80.6846 28.8934C80.6846 28.8934 81.5084 29.5726 81.4863 30.5724C81.4549 32.0125 79.5904 33.6349 78.0686 34.4901C76.6159 35.3045 71.9499 37.1721 71.0695 37.54L64.9478 27.5414C64.9478 27.5414 69.6641 22.8439 71.4217 21.9352C72.9026 21.1712 79.0527 18.4451 80.084 20.2091L80.0872 20.2122Z" fill="#EFC6BA"/>
<g id="Group_47">
<path id="Vector_102" d="M77.7316 22.7718C75.9614 23.2057 74.3013 24.064 72.7071 24.9098C72.6726 24.9287 72.7009 24.9853 72.7354 24.9633C74.3107 24.1049 76.1532 23.6459 77.7599 22.8535C77.8039 22.8315 77.7756 22.7623 77.7285 22.7718H77.7316Z" fill="#111111"/>
<path id="Vector_103" d="M79.159 25.5417C78.7628 25.6518 78.4013 25.8939 78.0523 26.1014C77.675 26.3278 77.3008 26.5573 76.9298 26.7963C76.1877 27.2711 75.4583 27.7647 74.7414 28.2772C74.71 28.2992 74.7351 28.3527 74.7697 28.3307C75.5086 27.859 76.2569 27.3968 77.0147 26.9566C77.3951 26.7366 77.7756 26.5196 78.1592 26.3027C78.5145 26.1014 78.9075 25.9222 79.2125 25.6455C79.2565 25.6046 79.2125 25.5229 79.1559 25.5386L79.159 25.5417Z" fill="#111111"/>
<path id="Vector_104" d="M80.6527 28.9126C80.3037 28.9943 79.9767 29.2742 79.6811 29.4691C79.3478 29.6924 79.0145 29.9156 78.6781 30.1357C78.0052 30.5759 77.3355 31.0161 76.6469 31.4311C76.6123 31.4531 76.6438 31.5066 76.6752 31.4846C77.3764 31.0664 78.0807 30.6545 78.7756 30.23C79.1183 30.0225 79.4579 29.8119 79.7974 29.598C80.0867 29.4188 80.4672 29.2239 80.6715 28.944C80.6841 28.9283 80.6652 28.9063 80.6495 28.9126H80.6527Z" fill="#111111"/>
</g>
<path id="Vector_105" d="M69.0064 24.064C68.2895 24.1835 67.3714 22.4856 67.0287 21.338C66.6859 20.1903 65.2648 18.6968 64.3183 18.8949C63.3751 19.093 63.7335 21.3505 64.0479 22.7497C64.3655 24.1489 64.3624 29.5696 64.0322 30.3147C63.7021 31.0599 67.2267 31.2108 67.2267 31.2108L69.0064 24.0703V24.064Z" fill="#EFC6BA"/>
</g>
<path id="Vector_106" d="M69.488 42.6147C70.1577 41.6149 70.8243 40.6119 71.4783 39.6026L72.4561 38.0871C72.7737 37.5777 73.1039 37.0683 73.3711 36.5432L73.3868 36.5118L73.4183 36.4992C74.3773 36.1188 75.33 35.7194 76.2669 35.295C76.7354 35.0812 77.2008 34.8611 77.6535 34.619C78.1126 34.3769 78.5308 34.1159 78.927 33.7795C79.7224 33.138 80.5116 32.4495 81.0304 31.5879C81.2883 31.1572 81.4266 30.673 81.3543 30.1825C81.2977 29.7014 81.0084 29.2486 80.6028 29.016L80.5022 28.9562L80.5588 28.8556C80.8921 28.2582 81.021 27.4879 80.7349 26.8527C80.5902 26.5383 80.3796 26.2459 80.1029 26.0415C79.8325 25.8372 79.4803 25.7114 79.1502 25.7114H78.9835L79.0653 25.573C79.2288 25.2901 79.3671 24.9788 79.4552 24.6644C79.5369 24.3499 79.5747 24.0041 79.4237 23.7274C79.2697 23.4538 78.9741 23.2683 78.6786 23.13C78.3767 22.9916 78.0529 22.891 77.7259 22.8218L77.5655 22.7872L77.7133 22.7212C78.273 22.4665 78.8169 22.1584 79.298 21.7685C79.5338 21.5704 79.7602 21.3535 79.9237 21.0925C80.0872 20.8347 80.1815 20.514 80.0935 20.209C80.1909 20.5108 80.106 20.841 79.9457 21.1051C79.7885 21.3755 79.5652 21.6019 79.3294 21.8063C78.8546 22.2119 78.317 22.5389 77.7542 22.8155L77.7416 22.7149C78.0812 22.7747 78.4113 22.869 78.7289 23.0073C79.0401 23.1488 79.3609 23.3312 79.5495 23.6519C79.735 23.9852 79.691 24.3688 79.6092 24.6989C79.5244 25.0385 79.3891 25.3561 79.2162 25.6611L79.1313 25.5227C79.5306 25.5133 79.9017 25.6485 80.2161 25.8717C80.5336 26.095 80.76 26.4125 80.9235 26.7584C81.087 27.1074 81.1279 27.5036 81.0902 27.8809C81.0462 28.2613 80.933 28.6198 80.7443 28.9625L80.6971 28.8053C81.1939 29.0851 81.5084 29.5976 81.5807 30.1416C81.6184 30.412 81.6058 30.6887 81.5429 30.9559C81.4769 31.2201 81.3669 31.4685 81.2348 31.7011C80.9675 32.1633 80.6154 32.5626 80.2444 32.9274C79.8702 33.2953 79.474 33.6285 79.0653 33.9524C78.8641 34.1127 78.6565 34.2731 78.4333 34.4177C78.2101 34.5592 77.9837 34.685 77.7542 34.8076C77.2951 35.0497 76.8235 35.2698 76.3518 35.4836C75.4086 35.9113 74.4464 36.2917 73.478 36.6564L73.5252 36.6124C73.2359 37.1564 72.9026 37.6531 72.5756 38.1594C72.2455 38.6624 71.9091 39.1624 71.5663 39.6592C70.8809 40.6496 70.186 41.6337 69.4849 42.6116L69.488 42.6147Z" fill="#111111"/>
<g id="Group_48">
<path id="Vector_107" d="M60.7536 34.6537L70.5824 42.4482C70.5824 42.4482 63.8915 49.9032 60.9799 50.2145C58.5369 50.4754 55.6819 47.5073 55.814 45.6396C56.0215 42.7469 60.7504 34.6568 60.7504 34.6568L60.7536 34.6537Z" fill="#479CFF"/>
<path id="Vector_108" opacity="0.1" d="M63.4202 36.7664L59.5937 36.7192C59.6534 36.6123 59.71 36.5086 59.7666 36.408L63.0146 36.4457L63.4202 36.7664ZM66.0016 38.8133L58.5372 38.7221C58.4838 38.8259 58.4303 38.9296 58.3769 39.0365L66.4072 39.134L66.0016 38.8133ZM68.9886 41.1809L57.4022 41.0425C57.355 41.1463 57.3047 41.2532 57.2607 41.357L69.3942 41.5047L68.9886 41.1809ZM56.4212 43.3598C56.3803 43.4667 56.3426 43.5737 56.308 43.6774L69.2873 43.8346C69.3911 43.7246 69.4948 43.6208 69.5892 43.5202L56.4212 43.3598ZM55.8175 45.6834C55.8112 45.7872 55.8143 45.8941 55.8301 46.001L66.9575 46.1362C67.0706 46.0324 67.1807 45.9287 67.2907 45.8249L55.8175 45.6834ZM56.7953 48.029C56.8802 48.1359 56.9683 48.2428 57.0657 48.3466L64.2943 48.4346C64.4264 48.334 64.5584 48.2303 64.6905 48.1233L56.7953 48.029Z" fill="#111111"/>
<path id="Vector_109" d="M56.971 42.0266C57.8011 38.8352 60.0963 35.9425 60.241 35.779C60.3101 35.7004 60.4391 35.735 60.4233 35.7665C60.1435 36.3387 57.9583 39.8445 57.0747 42.0581C57.0653 42.0801 56.9647 42.0486 56.971 42.0298V42.0266Z" fill="#111111"/>
<path id="Vector_110" d="M60.1841 35.6566L69.7991 43.9511L71.8994 41.6841L61.6147 33.0532L60.1841 35.6566Z" fill="#479CFF"/>
<path id="Vector_111" opacity="0.1" d="M60.1841 35.6566L69.7991 43.9511L71.8994 41.6841L61.6147 33.0532L60.1841 35.6566Z" fill="#111111"/>
</g>
</g>
</g>
<g id="Group_49">
<path id="Vector_112" d="M49.3737 31.0975C49.7007 32.0943 50.0246 33.091 50.3705 34.0845C50.7069 35.0781 51.0528 36.0686 51.4112 37.0527C52.1312 39.021 52.867 40.9861 53.7285 42.8915C54.1561 43.8442 54.5994 44.7938 55.1151 45.6993C55.3729 46.1521 55.6433 46.5954 55.9452 47.0167C56.247 47.4381 56.5866 47.8154 56.9639 48.1801C57.7059 48.9001 58.5297 49.573 59.495 49.9377C59.9761 50.1201 60.4948 50.2144 61.0105 50.1578C61.5261 50.1075 62.0166 49.8969 62.4788 49.6548C62.0355 49.9283 61.5513 50.1704 61.0199 50.249C60.4917 50.3308 59.9446 50.2647 59.4384 50.0949C58.4228 49.7428 57.5613 49.0794 56.7815 48.3688C56.3916 48.0166 56.0269 47.611 55.7125 47.1834C55.4012 46.7526 55.1182 46.303 54.8541 45.8471C54.3259 44.9321 53.8637 43.9826 53.4329 43.0204C52.5903 41.0899 51.8451 39.1247 51.1785 37.1313C50.512 35.1379 49.8988 33.1287 49.3706 31.0975H49.3737Z" fill="#111111"/>
<path id="Vector_113" d="M49.2917 32.2169C49.4458 32.4496 49.581 32.6759 49.7225 32.9023L49.93 33.2451C49.9992 33.3614 50.0715 33.4746 50.1344 33.6004C49.908 33.4369 49.7288 33.2199 49.5841 32.9841C49.5118 32.8646 49.4489 32.742 49.3986 32.6131C49.3483 32.4841 49.3043 32.3521 49.2886 32.2137L49.2917 32.2169Z" fill="#111111"/>
</g>
<g id="Group_50">
<path id="Vector_114" d="M55.9429 29.384C56.7887 30.2833 57.5559 31.2423 58.3042 32.217C59.0462 33.198 59.7662 34.1916 60.4077 35.2449C59.5619 34.3456 58.7947 33.3866 58.0464 32.4119C57.3075 31.4309 56.5843 30.4373 55.9429 29.384Z" fill="#111111"/>
<path id="Vector_115" d="M56.7134 29.5599C56.9712 29.8115 57.163 30.1228 57.3139 30.4498C57.4586 30.7799 57.556 31.1383 57.534 31.5031C57.4774 31.3301 57.4271 31.1635 57.3674 31C57.3013 30.8365 57.2416 30.6761 57.1661 30.5158C57.0247 30.1951 56.8674 29.8838 56.7134 29.5599Z" fill="#111111"/>
</g>
</g>
</g>
</g>
</g>
</g>
<defs>
<clipPath id="clip0_1762_5254">
<rect width="103.44" height="100" fill="white" transform="translate(0.825195 0.51001)"/>
</clipPath>
</defs>
</svg>
