<svg width="223" height="144" viewBox="0 0 223 144" fill="none" xmlns="http://www.w3.org/2000/svg">
<g id="Layer_1" clip-path="url(#clip0_1762_4838)">
<g id="Group">
<path id="Vector" d="M137.963 86.1644C137.963 86.1644 151.912 61.9566 160.222 76.2871C160.222 76.2871 175.684 48.3987 188.245 58.276C200.806 68.1534 181.675 119.281 181.675 119.281C181.675 119.281 202.354 99.3327 195.59 128.964C195.59 128.964 204.286 122.358 209.891 124.498C215.495 126.64 210.664 143.303 210.664 143.303H126.041L137.965 86.1633L137.963 86.1644Z" fill="#0CB0A6"/>
<g id="Group_2">
<g id="Group_3">
<path id="Vector_2" d="M96.4586 143.444C95.7261 142.857 92.0307 106.22 72.5992 113.812C72.5992 113.812 61.9053 94.4867 48.7556 95.8024C34.2164 97.257 45.2169 123.987 45.2169 123.987C45.2169 123.987 31.3087 118.265 34.5297 133.376C34.5297 133.376 16.8146 130.148 18.132 142.912L96.4586 143.443V143.444Z" fill="#0CB0A6"/>
<path id="Vector_3" d="M30.2886 109.667C31.6892 108.503 31.0676 105.436 28.9002 102.816C26.7328 100.196 23.8404 99.0158 22.4398 100.179C21.0392 101.343 21.6608 104.41 23.8282 107.03C25.9956 109.65 28.888 110.83 30.2886 109.667Z" fill="#0CB0A6"/>
<path id="Vector_4" d="M26.4026 117.342C27.2317 116.653 26.8638 114.837 25.581 113.286C24.2981 111.735 22.5861 111.036 21.757 111.724C20.928 112.413 21.2958 114.228 22.5786 115.78C23.8615 117.331 25.5735 118.03 26.4026 117.342Z" fill="#0CB0A6"/>
</g>
<g id="Group_4">
<path id="Vector_5" d="M45.8602 127.082C45.9019 127.073 45.9403 127.048 45.9651 127.01C46.0169 126.932 45.9966 126.826 45.9177 126.774C45.7757 126.679 42.4049 124.451 39.4454 125.095C39.4454 125.095 39.4454 125.095 39.4432 125.095C39.3519 125.115 39.2933 125.205 39.3136 125.297C39.3339 125.388 39.424 125.447 39.5153 125.427C39.5153 125.427 39.5153 125.427 39.5164 125.427C42.3328 124.814 45.6935 127.034 45.7273 127.056C45.7667 127.083 45.814 127.09 45.858 127.081L45.8602 127.082Z" fill="#111111"/>
<path id="Vector_6" d="M43.5949 127.336C43.6366 127.327 43.6749 127.302 43.7008 127.264C43.7527 127.186 43.7313 127.08 43.6524 127.028C43.587 126.985 42.0307 125.975 39.2662 126.147C39.1715 126.154 39.1016 126.234 39.1073 126.328C39.1129 126.421 39.194 126.493 39.2876 126.487C41.9394 126.322 43.4507 127.302 43.4653 127.311C43.5047 127.337 43.5521 127.345 43.5949 127.336Z" fill="#111111"/>
</g>
</g>
<g id="Group_5">
<path id="Vector_7" d="M187.784 67.5006C187.767 67.6124 187.671 67.6994 187.554 67.6994C187.425 67.6994 187.322 67.5955 187.322 67.4667C187.318 64.2063 185.427 62.2627 185.408 62.2435C185.318 62.152 185.318 62.0052 185.408 61.9148C185.499 61.8245 185.646 61.8245 185.736 61.9148C185.819 61.9984 187.783 64.0053 187.786 67.4667C187.786 67.478 187.786 67.4893 187.784 67.5006Z" fill="#111111"/>
<path id="Vector_8" d="M186.552 70.0823C186.535 70.1975 186.434 70.2845 186.315 70.2811C186.187 70.2766 186.086 70.1693 186.091 70.0417C186.197 66.6785 184.739 64.3542 184.724 64.3317C184.655 64.2232 184.687 64.0798 184.794 64.0098C184.902 63.9409 185.045 63.9714 185.115 64.0798C185.178 64.1792 186.667 66.5418 186.555 70.0564C186.555 70.0654 186.555 70.0744 186.553 70.0835L186.552 70.0823Z" fill="#111111"/>
</g>
</g>
<g id="Group_6">
<path id="Vector_9" d="M98.9256 14.9279C98.9256 14.9279 94.7344 9.49343 100.43 2.66984C106.126 -4.15374 109.393 4.23852 112.287 4.37969C115.18 4.52086 119.812 2.34685 122.852 6.95124C125.891 11.5556 125.777 15.5106 128.809 15.6055C131.84 15.7004 142.914 20.6571 142.798 30.7197C142.682 40.7823 133.347 42.4967 133.347 42.4967C133.347 42.4967 97.5575 52.7817 92.8456 43.9468C88.1336 35.1129 90.6479 30.1889 94.4707 25.8974C96.8204 23.2603 102.097 20.2664 98.9268 14.9268L98.9256 14.9279Z" fill="#111111"/>
<g id="Group_7">
<path id="Vector_10" d="M103.382 16.972C103.382 16.972 103.438 30.6011 106.124 33.2122C106.124 33.2122 107.458 34.6171 110.08 34.2625L111.354 42.6005L123.095 40.7981L118.913 13.4427L103.381 16.972H103.382Z" fill="#EFC6BA"/>
<path id="Vector_11" d="M108.816 26.846C108.866 26.838 108.905 26.7974 108.908 26.7454C108.911 26.6856 108.866 26.6348 108.806 26.6302C108.095 26.5885 107.53 25.8047 107.362 25.5461C108.261 24.8718 108.753 24.0994 108.828 23.2489C108.948 21.8621 107.918 20.7824 107.874 20.7373C107.832 20.6943 107.764 20.6932 107.721 20.735C107.678 20.7768 107.677 20.8457 107.719 20.8886C107.729 20.8987 108.725 21.9445 108.612 23.232C108.541 24.0418 108.051 24.7815 107.155 25.4309L107.076 25.4885L107.125 25.5732C107.153 25.6229 107.83 26.7906 108.794 26.8482C108.802 26.8482 108.809 26.8482 108.816 26.8471V26.846Z" fill="#F07162"/>
<path id="Vector_12" d="M110.592 37.6167L110.08 34.2625C110.08 34.2625 115.686 33.0608 118.823 30.3357C118.823 30.3357 114.806 35.5974 110.592 37.6167Z" fill="#E29A83"/>
<path id="Vector_13" d="M114.507 20.1873C114.56 20.1794 114.611 20.1512 114.646 20.1049C114.718 20.01 114.701 19.8733 114.605 19.8011C114.574 19.7773 111.403 17.3876 109.204 19.7965C109.123 19.8846 109.129 20.0224 109.217 20.1026C109.305 20.1839 109.443 20.1771 109.523 20.089C111.452 17.9749 114.225 20.0563 114.342 20.1455C114.39 20.1828 114.45 20.1963 114.506 20.1873H114.507Z" fill="#111111"/>
<path id="Vector_14" d="M107.001 20.8615C107.06 20.8524 107.117 20.8186 107.15 20.7621C107.214 20.6604 107.184 20.5272 107.083 20.4628C106.992 20.4052 104.838 19.0647 103.789 20.2889C103.711 20.3792 103.721 20.517 103.811 20.5949C103.901 20.6729 104.039 20.6627 104.117 20.5724C104.923 19.6327 106.833 20.8186 106.852 20.831C106.898 20.8603 106.95 20.8694 106.999 20.8615H107.001Z" fill="#111111"/>
<path id="Vector_15" d="M104.806 22.8989C104.857 23.2287 105.165 23.4557 105.494 23.4049C105.823 23.354 106.049 23.0457 105.999 22.7159C105.948 22.3862 105.64 22.1592 105.311 22.21C104.982 22.2608 104.756 22.5691 104.806 22.8989Z" fill="#111111"/>
<path id="Vector_16" d="M110.718 21.8983C110.768 22.2281 111.076 22.4551 111.405 22.4042C111.734 22.3534 111.961 22.0451 111.91 21.7153C111.859 21.3856 111.552 21.1586 111.222 21.2094C110.893 21.2602 110.667 21.5685 110.718 21.8983Z" fill="#111111"/>
<path id="Vector_17" d="M122.212 26.2637C124.023 25.8118 125.126 23.974 124.675 22.1588C124.224 20.3437 122.39 19.2385 120.579 19.6904C118.767 20.1423 117.664 21.9801 118.115 23.7953C118.566 25.6104 120.4 26.7156 122.212 26.2637Z" fill="#EFC6BA"/>
<path id="Vector_18" d="M121.958 24.996C122.659 24.8887 123.047 24.289 123.12 23.7368C123.207 23.0852 122.905 22.5103 122.35 22.2731C121.561 21.9355 120.946 22.298 120.624 22.5769C120.713 22.1986 120.892 21.9038 121.158 21.6994C121.757 21.2387 122.605 21.3776 122.614 21.3798C122.674 21.39 122.729 21.3505 122.739 21.2917C122.749 21.233 122.71 21.1765 122.651 21.1664C122.613 21.1596 121.701 21.0105 121.027 21.5278C120.637 21.827 120.412 22.2844 120.355 22.8886L120.319 23.276L120.55 22.9632C120.579 22.9248 121.249 22.0371 122.266 22.473C122.828 22.7136 122.962 23.2884 122.906 23.7086C122.847 24.149 122.551 24.6934 121.908 24.7837C121.85 24.7916 121.808 24.847 121.816 24.9057C121.824 24.9655 121.879 25.0062 121.938 24.9983C121.944 24.9983 121.951 24.996 121.958 24.9949V24.996Z" fill="#F07162"/>
</g>
<path id="Vector_19" d="M103.382 16.9721C103.382 16.9721 103.611 11.663 110.404 10.039C117.198 8.41494 118.914 13.4428 118.914 13.4428L111.306 16.2448L103.882 16.8592L103.381 16.9732L103.382 16.9721Z" fill="#EFC6BA"/>
<path id="Vector_20" d="M102.715 12.6071C102.715 12.6071 107.635 16.1487 113.043 14.344C113.043 14.344 115.935 20.857 119.906 19.9264C123.876 18.9958 120.249 9.91466 120.249 9.91466C120.249 9.91466 112.268 8.00153 111.792 8.07494C111.317 8.14834 103.275 8.89485 103.275 8.89485L102.713 12.6071H102.715Z" fill="#111111"/>
<path id="Vector_21" d="M107.988 28.4915C108.044 28.4587 111.86 27.0594 111.86 27.0594C111.86 27.0594 111.918 28.8179 110.501 29.3419C109.084 29.8659 107.988 28.4915 107.988 28.4915Z" fill="#FBFDFC"/>
</g>
<path id="Vector_22" d="M82.3859 142.457L156.406 143.258C156.472 143.01 162.094 143.081 162.067 142.811C160.778 130.014 158.003 108.116 158.003 108.116L134.113 114.571L83.4836 115.487C83.4836 115.487 81.3107 137.503 80.4937 143.206C80.4914 143.224 82.3814 142.439 82.3859 142.457Z" fill="#479CFF"/>
<g id="Group_8">
<path id="Vector_23" d="M106.977 124.07C97.422 127.952 86.5364 123.336 82.663 113.761C78.7895 104.187 83.3955 93.2771 92.9501 89.3955C102.505 85.5139 113.39 90.1296 117.264 99.7043C121.137 109.279 116.531 120.187 106.977 124.069V124.07Z" fill="#F2904A"/>
<path id="Vector_24" d="M106.029 121.727C97.765 125.083 88.3512 121.092 85.0007 112.811C81.6513 104.529 85.6341 95.0943 93.8983 91.7378C102.162 88.3814 111.577 92.3725 114.927 100.654C118.276 108.936 114.293 118.369 106.029 121.727Z" fill="#FECF8E"/>
<path id="Vector_25" d="M101.34 112.393C101.834 111.488 102.097 110.055 102.127 108.092C102.133 107.682 102.132 107.12 102.124 106.406C102.099 104.084 102.526 102.746 103.405 102.388C103.973 102.157 104.504 102.179 105 102.453C105.496 102.729 105.888 103.22 106.174 103.929C106.471 104.661 106.543 105.349 106.391 105.99C106.238 106.633 105.847 107.295 105.218 107.978L107.504 110.507C108.57 109.538 109.222 108.432 109.462 107.187C109.618 106.371 109.593 105.504 109.389 104.587L111.682 103.655L110.511 100.761L108.212 101.695C107.605 100.73 106.851 100.005 105.948 99.5237C104.648 98.8302 103.299 98.7692 101.899 99.3373C101.075 99.6727 100.407 100.147 99.8957 100.764C99.3841 101.379 99.0527 102.104 98.9006 102.937C98.736 103.784 98.6887 105.187 98.7563 107.146C98.771 107.43 98.7789 107.649 98.7789 107.804C98.8149 108.923 98.7281 109.743 98.5174 110.264C98.3078 110.784 97.9336 111.154 97.3972 111.372C96.721 111.646 96.082 111.611 95.4802 111.267C94.8784 110.921 94.4017 110.311 94.0478 109.439C93.7356 108.668 93.677 107.914 93.872 107.177C94.0669 106.44 94.5346 105.654 95.2739 104.818L92.7551 102.384C91.6169 103.509 90.9226 104.77 90.6713 106.164C90.5203 107.008 90.5338 107.888 90.7096 108.805L88.2427 109.806L89.4136 112.7L91.778 111.739C92.4644 112.995 93.3355 113.892 94.3949 114.429C95.7371 115.108 97.2101 115.122 98.8127 114.471C100.003 113.987 100.845 113.294 101.338 112.39L101.34 112.393Z" fill="#F2904A"/>
<path id="Vector_26" d="M101.933 110.493C101.971 110.271 102.003 110.036 102.029 109.788C100.888 109.143 99.8034 108.434 98.7779 107.68C98.7779 107.726 98.779 107.768 98.7779 107.806C98.8016 108.529 98.7734 109.126 98.6934 109.601C98.6494 109.861 98.5908 110.082 98.5164 110.267C98.3068 110.788 97.9326 111.157 97.3962 111.375C96.72 111.649 96.081 111.614 95.4792 111.27C94.8774 110.924 94.4007 110.315 94.0468 109.443C93.7786 108.779 93.6974 108.128 93.8045 107.489C93.8214 107.385 93.8439 107.282 93.871 107.179C94.066 106.442 94.5337 105.656 95.273 104.82L92.7542 102.386C91.6159 103.511 90.9217 104.772 90.6704 106.166C90.6658 106.191 90.6613 106.216 90.658 106.241C90.5205 107.062 90.5385 107.917 90.7087 108.808L88.2417 109.81L89.4126 112.703L91.7771 111.742C92.4634 112.998 93.3345 113.896 94.3939 114.432C95.7362 115.111 97.2091 115.126 98.8117 114.474C100.002 113.991 100.844 113.297 101.337 112.394C101.601 111.911 101.798 111.278 101.93 110.494L101.933 110.493Z" fill="#F08640"/>
<path id="Vector_27" d="M81.4348 103.646C81.6771 102.205 82.0895 100.782 82.6722 99.4016C84.6264 94.7735 88.262 91.1844 92.9097 89.2961C97.5574 87.4078 102.66 87.4462 107.28 89.4046C111.898 91.3629 115.48 95.0062 117.364 99.6636C117.387 99.7179 117.361 99.7811 117.306 99.8037C117.25 99.8263 117.188 99.7992 117.166 99.7438C113.321 90.2392 102.477 85.6415 92.9909 89.4938C88.3961 91.3606 84.8022 94.9079 82.8694 99.4841C80.9378 104.06 80.8994 109.115 82.7623 113.72C82.7849 113.774 82.759 113.837 82.7037 113.86C82.6485 113.882 82.5865 113.855 82.564 113.8C81.242 110.531 80.8667 107.037 81.4359 103.645L81.4348 103.646Z" fill="#111111"/>
<path id="Vector_28" d="M84.8947 112.794C84.9003 112.759 84.924 112.726 84.96 112.712C85.0153 112.69 85.0772 112.717 85.0998 112.772C88.4221 120.985 97.793 124.958 105.988 121.629C109.959 120.016 113.065 116.951 114.734 112.997C116.403 109.043 116.437 104.675 114.826 100.696C114.804 100.642 114.83 100.578 114.885 100.556C114.94 100.533 115.002 100.56 115.025 100.615C116.655 104.646 116.623 109.073 114.931 113.079C113.239 117.086 110.092 120.192 106.068 121.827C97.7637 125.201 88.2666 121.175 84.9003 112.852L84.8936 112.795L84.8947 112.794Z" fill="#111111"/>
<path id="Vector_29" d="M104.484 92.8028C104.493 92.7509 104.539 92.7113 104.593 92.7136C104.628 92.7147 108.037 92.8582 110.193 95.2637C110.233 95.3089 110.229 95.3766 110.185 95.4161C110.141 95.4557 110.072 95.4523 110.033 95.4082C107.939 93.0716 104.619 92.9304 104.585 92.9293C104.525 92.927 104.479 92.8773 104.482 92.8186V92.8039L104.484 92.8028Z" fill="#111111"/>
<path id="Vector_30" d="M103.937 94.6176C103.946 94.5657 103.993 94.5262 104.047 94.5284C104.081 94.5295 107.491 94.673 109.647 97.0785C109.686 97.1226 109.683 97.1914 109.639 97.231C109.595 97.2705 109.527 97.2671 109.487 97.2231C107.392 94.8842 104.073 94.7452 104.039 94.7441C103.979 94.7419 103.933 94.6922 103.935 94.6334V94.6188L103.937 94.6176Z" fill="#111111"/>
<path id="Vector_31" d="M105.842 99.5078L105.853 99.475C105.881 99.4219 105.945 99.4027 105.998 99.4298C106.89 99.9053 107.648 100.624 108.255 101.564L110.471 100.664C110.526 100.642 110.589 100.669 110.611 100.723C110.634 100.777 110.608 100.84 110.553 100.863L108.17 101.831L108.123 101.754C107.529 100.808 106.781 100.091 105.899 99.6196C105.858 99.597 105.836 99.5507 105.844 99.5066L105.842 99.5078Z" fill="#111111"/>
<path id="Vector_32" d="M103.3 102.371C103.305 102.336 103.329 102.303 103.365 102.289C103.961 102.048 104.528 102.071 105.052 102.361C105.568 102.646 105.98 103.161 106.274 103.891C106.577 104.641 106.651 105.355 106.495 106.017C106.345 106.652 105.964 107.312 105.363 107.98L107.511 110.356C108.509 109.425 109.128 108.353 109.356 107.169C109.509 106.375 109.485 105.514 109.285 104.613C109.272 104.555 109.309 104.497 109.366 104.484C109.424 104.471 109.481 104.508 109.494 104.565C109.7 105.495 109.726 106.382 109.566 107.21C109.323 108.472 108.653 109.609 107.575 110.589L107.495 110.661L105.072 107.98L105.139 107.908C105.753 107.242 106.138 106.589 106.286 105.969C106.432 105.353 106.362 104.68 106.074 103.972C105.798 103.29 105.419 102.811 104.947 102.549C104.476 102.289 103.985 102.269 103.444 102.488C103.389 102.511 103.327 102.484 103.304 102.429L103.297 102.372L103.3 102.371Z" fill="#111111"/>
<path id="Vector_33" d="M89.3101 112.685C89.3157 112.65 89.3394 112.619 89.3754 112.604L91.8289 111.607L91.8751 111.69C92.549 112.924 93.4134 113.813 94.4469 114.335C95.7542 114.996 97.2114 115.009 98.7756 114.374C98.8308 114.351 98.8928 114.378 98.9154 114.432C98.9379 114.487 98.912 114.55 98.8568 114.572C97.2328 115.232 95.717 115.217 94.3511 114.526C93.303 113.995 92.4228 113.104 91.7342 111.877L89.4577 112.802C89.4025 112.824 89.3405 112.797 89.3179 112.742L89.3112 112.684L89.3101 112.685Z" fill="#111111"/>
<path id="Vector_34" d="M90.5553 106.222C90.5598 106.197 90.5643 106.171 90.5688 106.146C90.8224 104.736 91.5335 103.445 92.6831 102.309L92.7574 102.235L95.4261 104.814L95.3574 104.89C94.6327 105.709 94.1695 106.488 93.9791 107.206C93.7909 107.916 93.8484 108.653 94.1504 109.4C94.4919 110.246 94.9584 110.842 95.5366 111.174C96.1125 111.505 96.7098 111.538 97.36 111.273C97.8661 111.068 98.2233 110.716 98.4205 110.224C98.4431 110.169 98.5051 110.143 98.5603 110.164C98.6155 110.187 98.6414 110.249 98.62 110.304C98.3991 110.851 98.0024 111.244 97.4401 111.472C96.7346 111.759 96.0584 111.722 95.4295 111.36C94.8097 111.004 94.3127 110.371 93.952 109.48C93.632 108.69 93.5722 107.905 93.7728 107.149C93.9656 106.422 94.422 105.64 95.1297 104.824L92.7597 102.533C91.6857 103.62 91.0208 104.846 90.7807 106.182C90.6364 107.011 90.6455 107.881 90.819 108.783C90.8303 108.842 90.792 108.897 90.7345 108.909C90.6759 108.92 90.6207 108.882 90.6083 108.824C90.4347 107.923 90.4178 107.046 90.5564 106.22L90.5553 106.222Z" fill="#111111"/>
</g>
<path id="Vector_35" d="M110.92 38.5845C110.92 38.5845 91.6172 43.2262 84.5871 48.7928C71.6842 59.0123 44.7323 98.7353 58.0623 111.008C71.3247 123.219 90.5826 119.751 118.417 111.008L110.344 100.028L75.9386 98.6799L115.253 37.646L110.92 38.5834V38.5845Z" fill="#EFC6BA"/>
<path id="Vector_36" d="M119.734 37.6472C119.734 37.6472 138.856 36.4071 146.61 40.9065C154.363 45.4059 186.864 91.9885 167.922 125.262C161.571 136.416 109.407 132.839 95.1582 116.209L111.373 102.898L139.368 105.037L119.734 37.6472Z" fill="#EFC6BA"/>
<path id="Vector_37" d="M103.386 41.129L111.209 38.8251L119.832 38.6444C119.832 38.6444 154.456 74.4586 154.648 75.0369C154.841 75.6151 165.797 105.663 152.726 105.47C139.655 105.277 100.19 74.7365 98.316 75.6128C91.1777 89.6169 77.2989 101.587 77.2989 101.587L68.1128 86.9064L83.6652 66.4921L103.385 41.1267L103.386 41.129Z" fill="#EFC6BA"/>
<path id="Vector_38" d="M146.242 70.9937C146.242 70.9937 147.474 83.7453 146.439 90.9054C145.697 96.0463 143.936 101.533 141.43 105.048C135.432 113.46 157.819 109.905 158.203 109.701C158.587 109.498 155.264 71.0694 155.061 70.2156C154.858 69.3618 146.242 70.9937 146.242 70.9937Z" fill="#EFC6BA"/>
<path id="Vector_39" d="M77.7215 96.6674C77.6573 96.6674 77.5942 96.6403 77.5502 96.5884C77.5378 96.5737 76.2959 95.1247 74.7204 94.0394C74.6178 93.9694 74.5919 93.8282 74.6618 93.7255C74.7328 93.6227 74.8725 93.5967 74.9751 93.6667C76.6013 94.7859 77.841 96.2338 77.8928 96.2948C77.974 96.3896 77.9627 96.5319 77.868 96.6132C77.8252 96.6494 77.7734 96.6674 77.7215 96.6674Z" fill="#111111"/>
<path id="Vector_40" d="M120.319 67.4215C105.895 53.8704 104.12 40.5665 104.12 40.5665C101.284 40.4163 95.1591 43.2657 95.1591 43.2657C93.0201 61.9487 84.1541 77.5846 84.766 106.962C100.882 112.394 145.703 105.894 145.703 105.894C162.067 74.2598 120.319 67.4215 120.319 67.4215Z" fill="#479CFF"/>
<path id="Vector_41" d="M131.588 37.4406C139.276 37.4406 139.832 38.7359 139.832 38.7359C149.4 75.658 147.093 91.7582 147.093 91.7582L120.056 86.3045L95.8265 91.5018C95.8265 91.5018 89.9425 90.988 105.959 79.857C121.977 68.7249 130.978 39.6247 130.978 39.6247L131.587 37.4417L131.588 37.4406Z" fill="#479CFF"/>
<path id="Vector_42" d="M141.429 105.265C141.386 105.265 141.342 105.253 141.305 105.226C141.207 105.157 141.183 105.021 141.252 104.924C145.262 99.2028 147.067 90.2911 146.617 78.4351C146.296 69.9829 144.878 62.6929 144.451 60.6601C144.437 60.5923 144.429 60.5528 144.427 60.5404L139.62 38.7822C139.594 38.6647 139.668 38.5495 139.784 38.5235C139.899 38.4976 140.017 38.571 140.043 38.6884L144.85 60.4557C144.854 60.476 144.862 60.5121 144.874 60.5709C145.303 62.6116 146.727 69.931 147.049 78.4181C147.503 90.3713 145.672 99.3722 141.606 105.173C141.564 105.232 141.496 105.265 141.429 105.265Z" fill="#111111"/>
<path id="Vector_43" d="M119.489 64.8162C119.447 64.8162 119.404 64.8038 119.367 64.7778C119.268 64.71 119.243 64.5756 119.311 64.4762C122.874 59.2563 129.379 43.556 129.444 43.3979C129.489 43.2872 129.617 43.2353 129.727 43.2804C129.838 43.3267 129.89 43.4532 129.844 43.5639C129.779 43.722 123.256 59.4641 119.668 64.7202C119.626 64.7812 119.558 64.815 119.489 64.815V64.8162Z" fill="#111111"/>
<g id="Group_9">
<path id="Vector_44" d="M106.023 92.9123C105.934 92.9191 105.866 92.9948 105.867 93.0851C105.869 93.1788 105.947 93.2534 106.04 93.2511L109.129 93.1834C109.222 93.1777 109.297 93.1032 109.295 93.0094C109.293 92.9157 109.215 92.8412 109.121 92.8434L106.032 92.9112C106.032 92.9112 106.026 92.9112 106.022 92.9112L106.023 92.9123Z" fill="#111111"/>
<path id="Vector_45" d="M106.432 91.9885C106.343 91.9953 106.274 92.0709 106.275 92.1613C106.277 92.255 106.355 92.3296 106.448 92.3273L109.538 92.2595C109.629 92.2539 109.705 92.1794 109.703 92.0856C109.701 91.9919 109.623 91.9173 109.53 91.9196L106.441 91.9874C106.441 91.9874 106.434 91.9874 106.43 91.9874L106.432 91.9885Z" fill="#111111"/>
</g>
<g id="Group_10">
<path id="Vector_46" d="M130.292 81.7441C131.42 92.0145 124.027 101.256 113.778 102.387C103.529 103.517 94.3073 96.1073 93.1791 85.838C92.051 75.5687 99.4441 66.3261 109.693 65.1967C119.941 64.0662 129.164 71.4748 130.291 81.7452L130.292 81.7441Z" fill="#F2904A"/>
<path id="Vector_47" d="M127.784 82.0208C128.76 90.9032 122.366 98.8957 113.502 99.8737C104.638 100.852 96.6627 94.4438 95.6868 85.5614C94.7108 76.679 101.105 68.6865 109.969 67.7085C118.833 66.7304 126.808 73.1384 127.784 82.0208Z" fill="#FECF8E"/>
<path id="Vector_48" d="M117.547 84.0028C116.813 83.28 115.508 82.6374 113.632 82.075C113.239 81.9575 112.698 81.8062 112.012 81.6199C109.775 81.0123 108.606 80.2364 108.503 79.2911C108.436 78.6813 108.602 78.1742 109 77.771C109.399 77.3667 109.978 77.1239 110.738 77.0403C111.521 76.9545 112.201 77.0719 112.776 77.3927C113.352 77.7145 113.882 78.2713 114.365 79.0641L117.415 77.5474C116.775 76.2565 115.89 75.3259 114.76 74.7567C114.018 74.3841 113.18 74.1717 112.243 74.1186L111.973 71.6555L108.876 71.9977L109.147 74.4688C108.055 74.7906 107.154 75.3214 106.446 76.0611C105.427 77.125 105.001 78.4091 105.166 79.9134C105.263 80.7999 105.538 81.5724 105.991 82.2331C106.443 82.8938 107.048 83.411 107.806 83.7837C108.575 84.1733 109.909 84.6002 111.809 85.0678C112.087 85.1299 112.298 85.183 112.447 85.2259C113.531 85.4958 114.295 85.8019 114.738 86.1474C115.181 86.4919 115.435 86.9527 115.498 87.5287C115.578 88.256 115.371 88.8624 114.876 89.3481C114.38 89.8337 113.664 90.1284 112.731 90.2312C111.905 90.3227 111.165 90.1736 110.511 89.7851C109.856 89.3966 109.229 88.7314 108.627 87.7918L105.604 89.5592C106.375 90.963 107.396 91.9761 108.667 92.5972C109.436 92.9722 110.284 93.1992 111.213 93.2794L111.504 95.9311L114.601 95.5889L114.321 93.0467C115.714 92.7271 116.813 92.1297 117.617 91.2544C118.633 90.1443 119.048 88.728 118.859 87.0058C118.718 85.7273 118.282 84.7267 117.548 84.0039L117.547 84.0028Z" fill="#F2904A"/>
<path id="Vector_49" d="M115.883 82.9141C115.679 82.817 115.463 82.7221 115.233 82.6295C114.303 83.5545 113.327 84.4071 112.324 85.192C112.368 85.2033 112.409 85.2146 112.446 85.2259C113.146 85.3998 113.713 85.5896 114.146 85.7951C114.383 85.908 114.581 86.0255 114.737 86.1475C115.18 86.4919 115.434 86.9527 115.497 87.5287C115.577 88.256 115.369 88.8624 114.875 89.3481C114.379 89.8337 113.663 90.1285 112.73 90.2312C112.02 90.3092 111.372 90.2109 110.788 89.9331C110.694 89.8879 110.601 89.8382 110.51 89.784C109.855 89.3955 109.227 88.7303 108.626 87.7907L105.603 89.5581C106.374 90.9619 107.395 91.975 108.666 92.5961C108.689 92.6074 108.711 92.6176 108.734 92.6289C109.484 92.9846 110.31 93.2003 111.212 93.2782L111.503 95.93L114.6 95.5878L114.32 93.0456C115.713 92.726 116.812 92.1285 117.616 91.2533C118.632 90.1431 119.047 88.7269 118.858 87.0047C118.717 85.7262 118.28 84.7256 117.547 84.0028C117.155 83.6177 116.6 83.254 115.883 82.9141Z" fill="#F08640"/>
<path id="Vector_50" d="M103.731 100.819C102.412 100.193 101.158 99.4084 99.9917 98.4711C96.0788 95.328 93.622 90.8445 93.0731 85.8493C92.5243 80.8542 93.9499 75.9437 97.0863 72.0215C100.223 68.1003 104.696 65.6383 109.682 65.0884C109.74 65.0816 109.793 65.1245 109.8 65.1832C109.807 65.2419 109.764 65.295 109.705 65.3018C99.5319 66.4244 92.1671 75.6309 93.2861 85.8256C93.8282 90.7643 96.258 95.1948 100.126 98.3028C103.995 101.41 108.839 102.822 113.767 102.279C113.825 102.272 113.878 102.314 113.885 102.374C113.892 102.433 113.849 102.486 113.791 102.493C110.292 102.879 106.835 102.291 103.731 100.818V100.819Z" fill="#111111"/>
<path id="Vector_51" d="M113.457 99.9708C113.424 99.955 113.4 99.9245 113.396 99.885C113.389 99.8262 113.432 99.7732 113.491 99.7664C122.281 98.7963 128.645 90.8411 127.678 82.0321C127.209 77.7653 125.111 73.9357 121.768 71.2512C118.426 68.5656 114.24 67.3459 109.982 67.8157C109.924 67.8225 109.871 67.7807 109.864 67.7208C109.857 67.6621 109.9 67.609 109.959 67.6023C114.274 67.1257 118.516 68.3623 121.902 71.0841C125.29 73.8058 127.417 77.6852 127.891 82.0095C128.872 90.9359 122.422 98.9984 113.514 99.981L113.457 99.9708Z" fill="#111111"/>
<path id="Vector_52" d="M99.5894 75.6433C99.5421 75.6207 99.5173 75.5653 99.5331 75.5134C99.5432 75.4806 100.608 72.2315 103.506 70.8062C103.56 70.7803 103.624 70.8028 103.65 70.8548C103.676 70.9079 103.654 70.9722 103.6 70.9982C100.787 72.3817 99.7483 75.545 99.7382 75.5778C99.7201 75.6342 99.6593 75.6659 99.6029 75.6478L99.5894 75.6421V75.6433Z" fill="#111111"/>
<path id="Vector_53" d="M101.183 76.6642C101.136 76.6417 101.111 76.5863 101.127 76.5344C101.137 76.5016 102.202 73.2525 105.099 71.8272C105.152 71.8012 105.217 71.8238 105.243 71.8769C105.268 71.93 105.247 71.9943 105.193 72.0203C102.377 73.4049 101.34 76.5671 101.331 76.5987C101.313 76.6552 101.252 76.6868 101.196 76.6688L101.182 76.6631L101.183 76.6642Z" fill="#111111"/>
<path id="Vector_54" d="M106.398 76.156L106.369 76.1368C106.327 76.0962 106.325 76.0273 106.366 75.9844C107.066 75.2537 107.961 74.7172 109.029 74.3886L108.768 72.0056C108.761 71.9469 108.804 71.8938 108.862 71.8871C108.921 71.8803 108.974 71.9232 108.981 71.9819L109.262 74.5433L109.176 74.5682C108.106 74.8832 107.212 75.4095 106.522 76.1323C106.489 76.1662 106.439 76.1741 106.399 76.1549L106.398 76.156Z" fill="#111111"/>
<path id="Vector_55" d="M108.456 79.3872C108.423 79.3713 108.399 79.3408 108.395 79.3013C108.325 78.661 108.502 78.12 108.922 77.6942C109.337 77.2741 109.943 77.0178 110.724 76.9319C111.527 76.8427 112.232 76.9658 112.826 77.2967C113.394 77.6141 113.925 78.1607 114.403 78.9219L117.269 77.4977C116.645 76.2825 115.784 75.3926 114.709 74.8517C113.988 74.4869 113.154 74.2768 112.234 74.2249C112.175 74.2215 112.13 74.1706 112.133 74.1119C112.136 74.0532 112.187 74.008 112.246 74.0114C113.195 74.0656 114.054 74.2825 114.805 74.6608C115.95 75.2379 116.86 76.1933 117.508 77.5L117.555 77.596L114.322 79.2042L114.271 79.1206C113.799 78.347 113.277 77.7981 112.72 77.4876C112.169 77.1793 111.503 77.0652 110.746 77.1488C110.015 77.2289 109.453 77.465 109.073 77.849C108.696 78.2318 108.542 78.7005 108.607 79.2821C108.613 79.3409 108.571 79.3939 108.512 79.4007L108.454 79.3917L108.456 79.3872Z" fill="#111111"/>
<path id="Vector_56" d="M114.554 95.6838C114.521 95.6679 114.497 95.6374 114.493 95.5979L114.203 92.9609L114.297 92.9394C115.664 92.6254 116.754 92.0325 117.537 91.1787C118.527 90.0979 118.936 88.6964 118.752 87.0148C118.745 86.9561 118.788 86.903 118.846 86.8962C118.905 86.8894 118.958 86.9324 118.965 86.9911C119.156 88.7371 118.729 90.1939 117.695 91.3233C116.9 92.1906 115.805 92.796 114.438 93.1258L114.707 95.5731C114.714 95.6318 114.671 95.6849 114.612 95.6917L114.555 95.6815L114.554 95.6838Z" fill="#111111"/>
<path id="Vector_57" d="M108.686 92.7249C108.663 92.7136 108.64 92.7023 108.618 92.6921C107.332 92.0642 106.286 91.0274 105.508 89.6101L105.458 89.5186L108.659 87.6461L108.715 87.7331C109.304 88.6547 109.925 89.3142 110.563 89.6925C111.194 90.0664 111.917 90.212 112.716 90.1251C113.621 90.0257 114.321 89.7377 114.798 89.2713C115.272 88.806 115.466 88.2391 115.39 87.54C115.33 86.9956 115.089 86.5552 114.671 86.2322C114.623 86.196 114.615 86.1283 114.651 86.0808C114.688 86.0345 114.755 86.0255 114.802 86.0616C115.267 86.423 115.536 86.9121 115.603 87.5163C115.686 88.2741 115.466 88.9167 114.948 89.4249C114.437 89.9263 113.695 90.2335 112.74 90.3385C111.894 90.4323 111.124 90.2764 110.453 89.8778C109.808 89.4938 109.181 88.841 108.589 87.9364L105.746 89.5988C106.497 90.9292 107.494 91.9049 108.711 92.5001C109.467 92.8649 110.306 93.093 111.22 93.171C111.28 93.1755 111.322 93.2286 111.318 93.2873C111.313 93.346 111.26 93.3901 111.202 93.3855C110.289 93.3076 109.444 93.0851 108.686 92.726V92.7249Z" fill="#111111"/>
</g>
<g id="Group_11">
<path id="Vector_58" d="M144.106 77.2165C152.253 83.5488 153.734 95.3009 147.414 103.464C141.095 111.628 129.368 113.112 121.221 106.779C113.075 100.446 111.593 88.6941 117.913 80.5311C124.232 72.367 135.959 70.883 144.105 77.2165H144.106Z" fill="#F2904A"/>
<path id="Vector_59" d="M142.56 79.2143C149.606 84.6917 150.886 94.8548 145.422 101.916C139.956 108.976 129.814 110.259 122.768 104.783C115.722 99.3056 114.442 89.1425 119.908 82.0817C125.374 75.021 135.515 73.738 142.561 79.2154L142.56 79.2143Z" fill="#FECF8E"/>
<path id="Vector_60" d="M136.858 87.9623C135.829 87.9882 134.461 88.4806 132.751 89.4395C132.394 89.6405 131.909 89.924 131.297 90.2887C129.306 91.4757 127.935 91.7772 127.187 91.1956C126.703 90.8195 126.456 90.3475 126.443 89.7805C126.432 89.2125 126.66 88.6263 127.127 88.021C127.611 87.3965 128.167 86.9888 128.797 86.799C129.429 86.6082 130.196 86.6149 131.101 86.8171L132.136 83.5668C130.765 83.1297 129.483 83.1196 128.288 83.5363C127.505 83.8107 126.769 84.267 126.079 84.904L124.125 83.385L122.216 85.8515L124.177 87.375C123.648 88.3846 123.401 89.4022 123.439 90.4277C123.493 91.9015 124.116 93.102 125.309 94.0292C126.013 94.5758 126.758 94.9157 127.546 95.049C128.334 95.1834 129.126 95.1066 129.921 94.8209C130.735 94.5374 131.97 93.8756 133.627 92.8332C133.864 92.6773 134.05 92.561 134.184 92.4831C135.132 91.8902 135.883 91.5536 136.438 91.4746C136.993 91.3955 137.5 91.5333 137.956 91.889C138.533 92.3374 138.824 92.9089 138.828 93.6034C138.831 94.298 138.545 95.0185 137.969 95.7616C137.459 96.4189 136.838 96.8492 136.104 97.0491C135.37 97.2501 134.456 97.2399 133.364 97.0175L132.528 100.422C134.071 100.845 135.506 100.814 136.836 100.331C137.64 100.04 138.393 99.5856 139.096 98.9724L141.199 100.608L143.108 98.1412L141.092 96.5736C141.831 95.3483 142.168 94.1421 142.099 92.9552C142.011 91.4509 141.284 90.1668 139.919 89.1052C138.904 88.3169 137.883 87.9352 136.854 87.96L136.858 87.9623Z" fill="#F2904A"/>
<path id="Vector_61" d="M134.92 88.4028C134.71 88.4819 134.491 88.5722 134.263 88.6727C134.28 89.9862 134.212 91.2815 134.076 92.5487C134.116 92.525 134.152 92.5035 134.185 92.4843C134.796 92.1014 135.327 91.8248 135.775 91.6565C136.02 91.5639 136.241 91.504 136.438 91.4758C136.993 91.3967 137.5 91.5345 137.957 91.8903C138.534 92.3386 138.824 92.9101 138.828 93.6046C138.831 94.2992 138.545 95.0197 137.969 95.7628C137.531 96.3286 137.01 96.7262 136.405 96.9532C136.307 96.9904 136.206 97.0221 136.104 97.0503C135.37 97.2513 134.456 97.2412 133.364 97.0187L132.528 100.424C134.071 100.846 135.506 100.816 136.836 100.332C136.86 100.323 136.884 100.315 136.907 100.306C137.685 100.014 138.414 99.5688 139.097 98.9736L141.2 100.609L143.109 98.1424L141.093 96.5748C141.832 95.3495 142.169 94.1433 142.1 92.9564C142.013 91.4521 141.286 90.168 139.92 89.1064C138.905 88.3181 137.884 87.9364 136.855 87.9612C136.307 87.9748 135.661 88.1216 134.918 88.4017L134.92 88.4028Z" fill="#F08640"/>
<path id="Vector_62" d="M139.301 109.606C137.935 110.12 136.5 110.477 135.017 110.665C130.042 111.295 125.119 109.944 121.157 106.864C117.194 103.785 114.665 99.3417 114.037 94.3556C113.41 89.3695 114.756 84.4364 117.83 80.4656C117.866 80.4193 117.933 80.4103 117.98 80.4464C118.027 80.4826 118.035 80.5503 117.999 80.5977C111.726 88.7009 113.201 100.409 121.287 106.695C125.205 109.74 130.071 111.075 134.989 110.452C139.907 109.829 144.29 107.325 147.33 103.399C147.366 103.353 147.433 103.344 147.48 103.38C147.527 103.416 147.535 103.484 147.499 103.532C145.342 106.319 142.514 108.398 139.3 109.608L139.301 109.606Z" fill="#111111"/>
<path id="Vector_63" d="M145.46 102.015C145.426 102.027 145.387 102.023 145.356 101.999C145.31 101.963 145.301 101.895 145.337 101.848C150.758 94.8458 149.482 84.729 142.495 79.2979C139.109 76.6665 134.906 75.5134 130.655 76.0521C126.404 76.5897 122.618 78.7547 119.992 82.1461C119.957 82.1924 119.889 82.2015 119.842 82.1653C119.795 82.1292 119.787 82.0614 119.823 82.0151C122.484 78.5774 126.321 76.3841 130.629 75.8398C134.936 75.2943 139.197 76.4632 142.627 79.1296C149.708 84.6341 151 94.8853 145.507 101.981L145.46 102.016V102.015Z" fill="#111111"/>
<path id="Vector_64" d="M118.373 95.0728C118.323 95.0908 118.267 95.0705 118.241 95.0231C118.225 94.9926 116.636 91.9659 117.63 88.8895C117.649 88.8331 117.709 88.8026 117.765 88.8206C117.822 88.8387 117.852 88.8997 117.834 88.9562C116.868 91.9433 118.413 94.8932 118.429 94.9226C118.457 94.9745 118.437 95.04 118.385 95.0682L118.372 95.0739L118.373 95.0728Z" fill="#111111"/>
<path id="Vector_65" d="M120.214 94.6358C120.164 94.6538 120.108 94.6335 120.082 94.5861C120.066 94.5556 118.477 91.5289 119.472 88.4525C119.491 88.396 119.551 88.3655 119.607 88.3836C119.664 88.4017 119.694 88.4627 119.676 88.5191C118.709 91.5097 120.255 94.4562 120.271 94.4855C120.299 94.5386 120.279 94.603 120.227 94.6312L120.214 94.6369V94.6358Z" fill="#111111"/>
<path id="Vector_66" d="M123.478 90.5294L123.444 90.5361C123.385 90.5384 123.335 90.4921 123.333 90.4322C123.296 89.4203 123.534 88.4028 124.042 87.4055L122.152 85.9363C122.105 85.9001 122.096 85.8323 122.133 85.786C122.169 85.7397 122.236 85.7307 122.282 85.7668L124.314 87.3457L124.273 87.4259C123.754 88.4152 123.511 89.4237 123.547 90.4243C123.548 90.4718 123.519 90.5135 123.477 90.5294H123.478Z" fill="#111111"/>
<path id="Vector_67" d="M127.225 91.2962C127.192 91.3086 127.152 91.3041 127.122 91.2804C126.614 90.8851 126.35 90.3814 126.336 89.7817C126.324 89.1911 126.562 88.5756 127.043 87.9544C127.538 87.3152 128.117 86.8928 128.767 86.6952C129.39 86.5066 130.15 86.5055 131.029 86.6907L132.002 83.6369C130.698 83.2405 129.46 83.2405 128.324 83.6369C127.561 83.9023 126.831 84.3563 126.153 84.982C126.109 85.0226 126.041 85.0192 126.002 84.9752C125.961 84.9311 125.964 84.8634 126.008 84.8238C126.707 84.1779 127.461 83.7103 128.254 83.4336C129.465 83.0101 130.782 83.0203 132.17 83.463L132.272 83.4957L131.174 86.9414L131.079 86.9199C130.195 86.7223 129.439 86.7155 128.829 86.8996C128.225 87.0826 127.68 87.4812 127.212 88.0854C126.761 88.6671 126.539 89.2363 126.55 89.7761C126.562 90.3148 126.792 90.7507 127.253 91.1087C127.3 91.1449 127.308 91.2126 127.272 91.2589L127.224 91.2939L127.225 91.2962Z" fill="#111111"/>
<path id="Vector_68" d="M143.15 98.244C143.116 98.2564 143.076 98.2519 143.046 98.2282L140.954 96.6019L141.004 96.5195C141.73 95.3167 142.063 94.1207 141.996 92.9631C141.91 91.4984 141.19 90.229 139.857 89.1922C139.809 89.1561 139.801 89.0883 139.837 89.042C139.874 88.9946 139.941 88.9867 139.987 89.0228C141.372 90.0991 142.12 91.4204 142.21 92.9507C142.279 94.1252 141.951 95.3359 141.236 96.5489L143.177 98.0577C143.224 98.0938 143.232 98.1616 143.196 98.209L143.149 98.244H143.15Z" fill="#111111"/>
<path id="Vector_69" d="M136.947 100.409C136.923 100.418 136.899 100.427 136.875 100.435C135.53 100.923 134.059 100.956 132.502 100.529L132.4 100.502L133.286 96.8944L133.388 96.9147C134.458 97.1316 135.363 97.1428 136.078 96.9475C136.785 96.7532 137.393 96.3342 137.887 95.6973C138.444 94.9767 138.726 94.2732 138.723 93.6057C138.719 92.9405 138.448 92.4074 137.893 91.976C137.462 91.6406 136.978 91.5085 136.455 91.583C136.397 91.5921 136.343 91.5503 136.334 91.4915C136.326 91.4328 136.366 91.3786 136.425 91.3696C137.008 91.286 137.545 91.4328 138.025 91.8055C138.627 92.2731 138.934 92.8784 138.938 93.6046C138.941 94.3206 138.645 95.0693 138.057 95.8294C137.535 96.5036 136.888 96.9486 136.135 97.1553C135.411 97.3529 134.507 97.3507 133.447 97.1462L132.661 100.349C134.137 100.734 135.53 100.696 136.804 100.233C137.591 99.9425 138.337 99.4976 139.029 98.8945C139.074 98.855 139.142 98.8606 139.18 98.9046C139.22 98.9498 139.214 99.0176 139.17 99.056C138.479 99.6591 137.732 100.113 136.948 100.408L136.947 100.409Z" fill="#111111"/>
</g>
<g id="Group_12">
<path id="Vector_70" d="M99.4757 91.8745C93.1127 100.005 81.3785 101.425 73.2654 95.0491C65.1522 88.6727 63.7344 76.9139 70.0974 68.7836C76.4604 60.6545 88.1945 59.2326 96.3077 65.609C104.421 71.9853 105.839 83.7442 99.4757 91.8745Z" fill="#F2904A"/>
<path id="Vector_71" d="M97.4909 90.3137C91.9878 97.3451 81.8393 98.5738 74.8227 93.0592C67.8061 87.5445 66.5799 77.3746 72.083 70.3433C77.586 63.3119 87.7345 62.0831 94.7512 67.5978C101.768 73.1124 102.994 83.2823 97.4909 90.3137Z" fill="#FECF8E"/>
<path id="Vector_72" d="M88.7905 84.5529C88.7703 83.5218 88.2868 82.1485 87.339 80.4296C87.1406 80.0705 86.86 79.5838 86.4994 78.9683C85.3251 76.9659 85.0309 75.5915 85.617 74.8438C85.9945 74.3605 86.4667 74.1154 87.0336 74.1064C87.6005 74.0973 88.1842 74.3289 88.7849 74.8021C89.4048 75.2899 89.8093 75.8501 89.9953 76.4825C90.1824 77.1161 90.1711 77.8852 89.9649 78.7909L93.2027 79.8446C93.6467 78.4736 93.6636 77.1884 93.2534 75.989C92.9841 75.203 92.5321 74.4632 91.8999 73.7687L93.4258 71.8183L90.9746 69.8916L89.4431 71.8477C88.4378 71.3123 87.4235 71.0594 86.4002 71.0921C84.9295 71.1384 83.7281 71.7573 82.7961 72.9476C82.2473 73.649 81.9035 74.3944 81.7661 75.1838C81.6274 75.9721 81.6996 76.766 81.9813 77.5645C82.2597 78.3821 82.9144 79.6233 83.9456 81.288C84.1 81.5263 84.215 81.7137 84.2916 81.8481C84.8788 82.8013 85.2101 83.5557 85.2856 84.1125C85.3623 84.6693 85.2214 85.1752 84.8641 85.6315C84.4133 86.2074 83.842 86.4954 83.1489 86.4954C82.4558 86.4954 81.739 86.2041 80.9997 85.6236C80.346 85.1097 79.9212 84.484 79.7239 83.7477C79.5279 83.0114 79.5425 82.0955 79.769 81.0022L76.3757 80.1462C75.9463 81.69 75.9688 83.1288 76.4444 84.4637C76.7318 85.2712 77.1803 86.0279 77.7878 86.736L76.1446 88.8355L78.5958 90.7621L80.1702 88.7496C81.3885 89.4973 82.591 89.8417 83.7755 89.7785C85.2766 89.6983 86.5625 88.9766 87.6286 87.6135C88.4209 86.6016 88.8075 85.5795 88.7872 84.5496L88.7905 84.5529Z" fill="#F2904A"/>
<path id="Vector_73" d="M88.3626 82.6093C88.2849 82.397 88.1958 82.1779 88.0967 81.9497C86.786 81.9599 85.4945 81.8842 84.2288 81.7408C84.2525 81.7803 84.2739 81.8165 84.2931 81.8503C84.6718 82.4659 84.9445 82.9989 85.1102 83.4484C85.2014 83.6957 85.26 83.9171 85.2871 84.1147C85.3637 84.6715 85.2229 85.1774 84.8656 85.6337C84.4148 86.2097 83.8434 86.4977 83.1503 86.4977C82.4572 86.4977 81.7405 86.2063 81.0012 85.6258C80.4388 85.1842 80.0455 84.6591 79.8212 84.0526C79.7851 83.9543 79.7536 83.8538 79.7254 83.7511C79.5293 83.0147 79.544 82.0988 79.7705 81.0056L76.3771 80.1495C75.9478 81.6934 75.9703 83.1322 76.4459 84.4671C76.4538 84.4908 76.4628 84.5145 76.4718 84.5382C76.7592 85.3186 77.1998 86.0527 77.7904 86.7393L76.1472 88.8388L78.5984 90.7655L80.1728 88.753C81.3911 89.5006 82.5936 89.8451 83.7781 89.7818C85.2792 89.7016 86.5651 88.98 87.6312 87.6169C88.4235 86.6049 88.81 85.5829 88.7898 84.5529C88.7785 84.0029 88.6365 83.3547 88.3615 82.6093H88.3626Z" fill="#F08640"/>
<path id="Vector_74" d="M67.1807 86.8861C66.6747 85.5151 66.3265 84.0751 66.1473 82.5878C65.5455 77.5983 66.9181 72.6731 70.014 68.7181C73.1087 64.7642 77.5557 62.2537 82.5348 61.6506C87.5138 61.0475 92.4286 62.4231 96.3753 65.5254C96.4215 65.5616 96.4305 65.6293 96.3933 65.6768C96.3572 65.7231 96.2896 65.7321 96.2423 65.6948C88.1888 59.3659 76.4986 60.781 70.183 68.8514C67.1232 72.7601 65.7663 77.6299 66.3603 82.5618C66.9553 87.4937 69.4313 91.8993 73.3329 94.9655C73.3791 95.0017 73.3881 95.0694 73.351 95.1169C73.3149 95.1632 73.2473 95.1722 73.1999 95.135C70.4309 92.9587 68.3708 90.1138 67.1807 86.8872V86.8861Z" fill="#111111"/>
<path id="Vector_75" d="M74.7225 93.0976C74.7101 93.0637 74.7146 93.0242 74.7383 92.9937C74.7744 92.9474 74.842 92.9383 74.8893 92.9756C81.8473 98.4451 91.9496 97.2209 97.4065 90.2482C100.05 86.8703 101.224 82.6623 100.709 78.4012C100.195 74.139 98.0545 70.3331 94.6837 67.6836C94.6375 67.6475 94.6285 67.5797 94.6657 67.5323C94.7017 67.486 94.7694 67.4769 94.8167 67.5142C98.2326 70.1987 100.401 74.0555 100.922 78.3753C101.442 82.6939 100.254 86.9584 97.5744 90.3815C92.0443 97.4479 81.8068 98.6879 74.7552 93.1461L74.7214 93.0987L74.7225 93.0976Z" fill="#111111"/>
<path id="Vector_76" d="M81.7941 65.9919C81.7761 65.9422 81.7963 65.8857 81.8448 65.8597C81.8752 65.8439 84.9046 64.2685 87.9689 65.2804C88.0252 65.2996 88.0556 65.3605 88.0376 65.4159C88.0184 65.4724 87.9576 65.5029 87.9024 65.4848C84.926 64.5011 81.9755 66.0337 81.9462 66.0495C81.8944 66.0777 81.829 66.0574 81.8009 66.0043L81.7952 65.9907L81.7941 65.9919Z" fill="#111111"/>
<path id="Vector_77" d="M82.2204 67.8383C82.2023 67.7886 82.2226 67.7321 82.2711 67.7062C82.3015 67.6904 85.3308 66.1149 88.3951 67.1279C88.4515 67.1471 88.4819 67.2081 88.4639 67.2635C88.4447 67.3199 88.385 67.3504 88.3286 67.3323C85.35 66.3475 82.4018 67.8812 82.3725 67.897C82.3195 67.9253 82.2553 67.9049 82.2271 67.8518L82.2215 67.8383H82.2204Z" fill="#111111"/>
<path id="Vector_78" d="M86.3013 71.1305L86.2945 71.0966C86.2923 71.0368 86.3396 70.9871 86.3982 70.9859C87.408 70.9543 88.4223 71.1994 89.4151 71.7132L90.8915 69.8272C90.9275 69.7809 90.9952 69.7719 91.0425 69.8091C91.0887 69.8453 91.0977 69.913 91.0605 69.9605L89.4737 71.9877L89.3948 71.9459C88.411 71.4207 87.4046 71.1711 86.4061 71.2028C86.3587 71.2039 86.3182 71.1745 86.3024 71.1327L86.3013 71.1305Z" fill="#111111"/>
<path id="Vector_79" d="M85.5154 74.8821C85.5031 74.8482 85.5076 74.8087 85.5324 74.7782C85.9291 74.2711 86.4339 74.0091 87.0312 73.999C87.6207 73.9899 88.2337 74.2316 88.8513 74.7172C89.4869 75.2164 89.9051 75.7992 90.0989 76.4519C90.2837 77.0765 90.2803 77.8388 90.091 78.7185L93.1327 79.709C93.5351 78.4035 93.5418 77.1645 93.1519 76.0239C92.8904 75.2582 92.4419 74.523 91.8209 73.8408C91.7804 73.7968 91.7837 73.729 91.8277 73.6895C91.8716 73.65 91.9393 73.6534 91.9787 73.6963C92.6188 74.3999 93.082 75.1577 93.3536 75.9539C93.7695 77.1691 93.7526 78.4893 93.3029 79.8773L93.2702 79.98L89.8374 78.862L89.86 78.766C90.0617 77.8817 90.073 77.1239 89.8927 76.5118C89.7135 75.9053 89.3179 75.3564 88.7183 74.8855C88.1402 74.4315 87.5733 74.2056 87.0346 74.2135C86.4971 74.2226 86.0609 74.4496 85.7003 74.9103C85.6642 74.9567 85.5966 74.9657 85.5493 74.9284L85.5143 74.881L85.5154 74.8821Z" fill="#111111"/>
<path id="Vector_80" d="M78.4979 90.8028C78.4855 90.7689 78.49 90.7294 78.5137 90.6989L80.1478 88.6118L80.229 88.6615C81.4258 89.3956 82.6171 89.7367 83.7733 89.6746C85.2362 89.5966 86.5063 88.8817 87.5476 87.5502C87.5837 87.5039 87.6513 87.4949 87.6986 87.5322C87.7448 87.5683 87.7539 87.6361 87.7167 87.6835C86.6348 89.0658 85.3128 89.8078 83.7846 89.8891C82.6114 89.9512 81.4055 89.617 80.1997 88.8942L78.6839 90.831C78.6478 90.8773 78.5802 90.8864 78.5329 90.8491L78.499 90.8017L78.4979 90.8028Z" fill="#111111"/>
<path id="Vector_81" d="M76.3715 84.5755C76.3624 84.5518 76.3546 84.5281 76.3455 84.5032C75.8654 83.1536 75.8418 81.6787 76.2745 80.1202L76.3027 80.0197L79.8978 80.9265L79.8764 81.0282C79.6544 82.0999 79.6386 83.0068 79.8291 83.724C80.0184 84.4332 80.4342 85.0453 81.0665 85.5422C81.7832 86.1058 82.4831 86.3904 83.1491 86.3915C83.8129 86.3915 84.3471 86.1216 84.7799 85.5693C85.1169 85.139 85.2521 84.6545 85.18 84.1305C85.1721 84.0718 85.2127 84.0176 85.2713 84.0097C85.3299 84.0018 85.384 84.0424 85.3919 84.1012C85.4719 84.685 85.322 85.2237 84.9478 85.7015C84.4779 86.3023 83.8727 86.6061 83.148 86.6061C82.4335 86.6061 81.6875 86.3045 80.9324 85.7116C80.2629 85.1853 79.8212 84.5348 79.6194 83.7793C79.4256 83.052 79.4335 82.1462 79.6431 81.0858L76.4503 80.2805C76.0582 81.7577 76.0897 83.1536 76.5439 84.4321C76.8301 85.2237 77.2697 85.9736 77.8681 86.6704C77.9075 86.7156 77.9019 86.7834 77.8568 86.8218C77.8118 86.8602 77.7441 86.8557 77.7058 86.8105C77.1085 86.1148 76.6588 85.3638 76.3681 84.5766L76.3715 84.5755Z" fill="#111111"/>
</g>
<path id="Vector_82" d="M126.022 94.184C128.032 89.9342 124.436 90.9134 124.436 90.9134C124.991 87.6676 125.089 85.3321 124.35 85.2135C123.811 85.1265 123.264 85.3264 122.873 85.7115C121.633 86.9313 117.345 93.2161 115.125 95.6928C113.094 96.4009 111.766 95.581 111.916 93.4962C111.994 92.4222 111.887 90.0867 110.376 92.4696C109.141 94.4166 108.247 97.5709 108.247 97.5709L96.8125 101.241L104.95 115.701C104.95 115.701 117.41 110.127 119.292 109.3C120.08 108.955 120.905 108.037 122.358 106.745C122.454 106.66 123.897 105.72 123.993 105.633C125.925 103.882 127.108 102.484 127.772 101.104C129.941 96.5873 127.695 97.3722 127.695 97.3722C129.511 92.4696 126.023 94.1851 126.023 94.1851L126.022 94.184Z" fill="#EFC6BA"/>
<path id="Vector_83" d="M108.247 97.5699C108.247 97.5699 96.8124 95.7234 71.8745 96.7533C71.8745 96.7533 73.6044 105.787 74.1814 106.076C74.7585 106.365 90.5194 109.158 91.865 109.543C93.2106 109.928 99.4575 111.084 99.746 111.084C100.034 111.084 107.896 110.535 108.001 110.327C108.107 110.12 108.248 97.5687 108.248 97.5687L108.247 97.5699Z" fill="#EFC6BA"/>
<path id="Vector_84" d="M108.907 109.993C108.907 109.993 126.133 103.934 152.438 105.23C178.744 106.526 126.318 122.577 126.318 122.577L108.907 109.993Z" fill="#EFC6BA"/>
<path id="Vector_85" d="M121.642 95.0039C121.603 94.9937 121.566 94.9734 121.533 94.9441C121.423 94.8447 121.413 94.6741 121.512 94.5635C122.753 93.1766 124.218 90.6412 124.28 90.5339C124.354 90.4052 124.521 90.3634 124.646 90.4357C124.774 90.5102 124.818 90.6751 124.744 90.8027C124.681 90.9122 123.189 93.494 121.912 94.9215C121.842 94.9994 121.736 95.0276 121.642 95.0017V95.0039Z" fill="#ED7163"/>
<path id="Vector_86" d="M125.076 101.039C125.028 101.027 124.984 101 124.948 100.96C124.847 100.851 124.855 100.681 124.966 100.581C126.498 99.178 127.469 97.2773 127.478 97.2581C127.544 97.1259 127.71 97.0706 127.838 97.1395C127.971 97.2061 128.023 97.3688 127.957 97.5009C127.947 97.5212 126.932 99.51 125.328 100.978C125.258 101.043 125.162 101.062 125.077 101.039H125.076Z" fill="#ED7163"/>
<path id="Vector_87" d="M123.425 97.8285C123.377 97.8161 123.333 97.789 123.297 97.7494C123.197 97.6399 123.204 97.4693 123.315 97.37C124.848 95.9673 125.818 94.0666 125.827 94.0474C125.893 93.9152 126.059 93.8599 126.188 93.9288C126.321 93.9954 126.372 94.1581 126.306 94.2902C126.296 94.3105 125.282 96.2993 123.677 97.7675C123.607 97.8319 123.511 97.8511 123.426 97.8285H123.425Z" fill="#ED7163"/>
<g id="Group_13">
<path id="Vector_88" d="M108.247 97.7866C108.239 97.7866 108.23 97.7866 108.222 97.7855C108.194 97.7821 105.283 97.4456 97.4378 96.7984C89.6019 96.1525 71.8012 96.9622 71.6231 96.9701C71.5048 96.9769 71.4022 96.8832 71.3977 96.7634C71.3921 96.6437 71.4845 96.5421 71.6039 96.5376C71.7831 96.5297 89.6109 95.7188 97.4739 96.367C105.328 97.0142 108.243 97.353 108.272 97.3564C108.39 97.3699 108.476 97.4783 108.461 97.5969C108.448 97.7076 108.355 97.7889 108.247 97.7889V97.7866Z" fill="#111111"/>
<path id="Vector_89" d="M80.4756 119.174C77.63 119.174 74.6367 118.919 71.5657 118.242C62.223 116.178 56.6309 111.09 55.3901 107.236C55.3529 107.122 55.416 107 55.5298 106.963C55.6437 106.925 55.7654 106.989 55.8026 107.102C57.0073 110.841 62.4833 115.79 71.6604 117.817C80.1815 119.7 88.1279 118.283 93.9307 117.25C94.4694 117.154 94.9912 117.061 95.4939 116.974C100.144 116.17 114.138 110.272 119.938 107.772C122.615 106.619 124.914 104.812 126.587 102.545C126.658 102.449 126.794 102.428 126.889 102.499C126.985 102.571 127.005 102.706 126.934 102.802C125.216 105.131 122.855 106.986 120.108 108.17C114.293 110.675 100.262 116.589 95.566 117.401C95.0633 117.488 94.5427 117.581 94.0051 117.677C90.25 118.345 85.6034 119.173 80.4756 119.173V119.174Z" fill="#111111"/>
<path id="Vector_90" d="M122.358 106.962C122.249 106.962 122.156 106.88 122.144 106.77C122.13 106.651 122.215 106.544 122.333 106.529C122.515 106.508 140.651 104.419 146.182 104.897C146.3 104.907 146.389 105.012 146.379 105.132C146.369 105.251 146.266 105.342 146.145 105.33C140.656 104.855 122.564 106.939 122.382 106.96C122.375 106.96 122.366 106.962 122.358 106.962Z" fill="#111111"/>
<path id="Vector_91" d="M143.366 54.9512C143.359 54.9512 143.354 54.9512 143.347 54.9512C143.228 54.941 143.14 54.836 143.151 54.7163L143.675 48.7216C143.685 48.6031 143.792 48.5138 143.909 48.5251C144.029 48.5353 144.117 48.6403 144.105 48.76L143.581 54.7547C143.571 54.8676 143.477 54.9523 143.366 54.9523V54.9512Z" fill="#111111"/>
<path id="Vector_92" d="M144.618 131.814C125.007 131.814 109.436 125.608 109.251 125.533C109.141 125.488 109.087 125.361 109.132 125.25C109.177 125.14 109.303 125.087 109.413 125.131C109.633 125.22 131.677 134.002 156.32 130.597C156.403 130.583 165.212 129.104 167.355 125.73C169.536 122.298 171.279 117.091 171.296 117.038C171.334 116.925 171.455 116.864 171.57 116.901C171.683 116.939 171.745 117.061 171.706 117.176C171.689 117.229 169.929 122.486 167.719 125.963C165.472 129.5 156.754 130.965 156.383 131.026C152.365 131.58 148.415 131.814 144.617 131.814H144.618Z" fill="#111111"/>
<path id="Vector_93" d="M166.442 123.435C166.41 123.435 166.379 123.429 166.348 123.414C166.241 123.362 166.196 123.232 166.248 123.125L168.042 119.401C168.094 119.294 168.224 119.249 168.331 119.301C168.438 119.353 168.483 119.483 168.431 119.59L166.637 123.313C166.6 123.391 166.522 123.435 166.442 123.435Z" fill="#111111"/>
<path id="Vector_94" d="M164.264 124.574C164.23 124.574 164.196 124.566 164.165 124.55C164.059 124.495 164.017 124.364 164.072 124.258L166.251 120.037C166.306 119.931 166.436 119.889 166.543 119.945C166.649 120 166.69 120.131 166.635 120.237L164.457 124.458C164.418 124.532 164.343 124.575 164.264 124.575V124.574Z" fill="#111111"/>
</g>
<path id="Vector_95" d="M222.466 144H0.535318C0.240048 144 0 143.615 0 143.139C0 142.664 0.238921 142.279 0.535318 142.279H222.466C222.761 142.279 223.001 142.664 223.001 143.139C223.001 143.615 222.762 144 222.466 144Z" fill="#111111"/>
<path id="Vector_96" d="M109.113 98.5162C108.493 97.7392 108.379 97.1328 108.379 97.1328C108.756 94.3624 109.896 91.5594 110.93 90.9393C111.848 90.3905 112.461 90.7858 112.3 92.7813C112.139 94.7769 112.32 97.6274 113.41 99.6987C112.621 100.452 109.114 98.5173 109.114 98.5173L109.113 98.5162Z" fill="#EFC6BA"/>
</g>
<defs>
<clipPath id="clip0_1762_4838">
<rect width="223" height="144" fill="white"/>
</clipPath>
</defs>
</svg>
