<svg width="220" height="160" viewBox="0 0 220 160" fill="none" xmlns="http://www.w3.org/2000/svg">
<g id="Image">
<g id="Group 2654">
<g id="Group">
<g id="Group_2">
<path id="Vector" d="M36.3105 8V151.9" stroke="#E2E7E9" stroke-width="1.21889" stroke-miterlimit="10"/>
<path id="Vector_2" d="M73.6182 8V151.9" stroke="#E2E7E9" stroke-width="1.21889" stroke-miterlimit="10"/>
<path id="Vector_3" d="M110.926 8V151.9" stroke="#E2E7E9" stroke-width="1.21889" stroke-miterlimit="10"/>
<path id="Vector_4" d="M148.233 8V151.9" stroke="#E2E7E9" stroke-width="1.21889" stroke-miterlimit="10"/>
<path id="Vector_5" d="M184.208 8V151.9" stroke="#E2E7E9" stroke-width="1.21889" stroke-miterlimit="10"/>
</g>
<g id="Group_3">
<path id="Vector_6" d="M3 60.3979H216.6" stroke="#E2E7E9" stroke-width="1.21889" stroke-miterlimit="10"/>
<path id="Vector_7" d="M3 41.7556H216.6" stroke="#E2E7E9" stroke-width="1.21889" stroke-miterlimit="10"/>
<path id="Vector_8" d="M3 25.3213H216.6" stroke="#E2E7E9" stroke-width="1.21889" stroke-miterlimit="10"/>
<path id="Vector_9" d="M3 79.0408H216.6" stroke="#E2E7E9" stroke-width="1.21889" stroke-miterlimit="10"/>
<path id="Vector_10" d="M3 97.6833H216.6" stroke="#E2E7E9" stroke-width="1.21889" stroke-miterlimit="10"/>
<path id="Vector_11" d="M3 116.316H216.6" stroke="#E2E7E9" stroke-width="1.21889" stroke-miterlimit="10"/>
<path id="Vector_12" d="M3 134.959H216.6" stroke="#E2E7E9" stroke-width="1.21889" stroke-miterlimit="10"/>
</g>
<path id="Vector_13" d="M200.611 8H18.9889C10.1585 8 3 15.1585 3 23.9889V135.911C3 144.742 10.1585 151.9 18.9889 151.9H200.611C209.441 151.9 216.6 144.742 216.6 135.911V23.9889C216.6 15.1585 209.441 8 200.611 8Z" stroke="#E2E7E9" stroke-width="1.21889" stroke-miterlimit="10"/>
</g>
<g id="Group_4">
<path id="Vector_14" d="M142.977 86.7086H117.556V151.303H142.977V86.7086Z" fill="#479CFF"/>
<path id="Vector_15" d="M105.786 104.164H80.3643V152H105.786V104.164Z" fill="#479CFF"/>
<path id="Vector_16" d="M68.18 123.297H42.7588V152H68.18V123.297Z" fill="#479CFF"/>
<path id="Vector_17" d="M178.703 69.4132H153.282V151.312H178.703V69.4132Z" fill="#479CFF"/>
</g>
<g id="Group_5">
<path id="Vector_18" d="M23.373 128.991C28.5532 123.537 33.7239 118.083 38.904 112.638C47.149 103.962 55.3846 95.2763 63.6296 86.6003C65.5099 84.622 67.3807 82.6438 69.261 80.6749L68.0106 81.1931H96.2335C97.0514 81.1931 97.7189 81.259 98.4146 80.6749C99.2607 79.9684 100.003 79.0641 100.774 78.2822L106.415 72.5642C111.511 67.3925 116.606 62.2208 121.702 57.0585C124.917 53.7991 128.123 50.5492 131.338 47.2898L130.088 47.8079H158.696C159.655 47.8079 160.351 47.5253 160.971 46.7905L169.301 37.0971C171.858 34.1109 174.425 31.1341 176.982 28.1479C178.458 26.4335 175.976 23.9277 174.49 25.6516C169.696 31.2378 164.901 36.8239 160.097 42.4101C159.411 43.2014 158.734 44.0021 158.047 44.7934L159.298 44.2753H131.018C130.201 44.2753 129.533 44.2094 128.837 44.7934C127.991 45.4999 127.249 46.4043 126.478 47.1861L120.837 52.9042C115.741 58.0759 110.646 63.2476 105.55 68.4098C102.335 71.6692 99.1291 74.9192 95.9138 78.1786L97.1642 77.6605H76.5564C73.7548 77.6605 70.925 77.5286 68.1328 77.6605C66.7884 77.7264 65.8671 79.1206 65.0116 80.0249L50.6181 95.1821L31.8342 114.964C28.2429 118.742 24.5482 122.454 21.0509 126.316C20.9945 126.372 20.9381 126.429 20.8816 126.495C19.321 128.143 21.803 130.64 23.373 128.991Z" fill="#0CB0A6"/>
<path id="Vector_19" d="M177.941 21.4598L162.918 27.6771C161.658 28.1952 161.442 29.8815 162.513 30.7104L175.393 40.6393C176.474 41.4683 178.044 40.8183 178.223 39.4712L180.357 23.325C180.536 21.9779 179.191 20.9417 177.932 21.4598H177.941Z" fill="#0CB0A6"/>
</g>
</g>
</g>
</svg>
