<svg width="221" height="160" viewBox="0 0 221 160" fill="none" xmlns="http://www.w3.org/2000/svg">
<g id="Image" clip-path="url(#clip0_1762_3578)">
<g id="Group">
<g id="Group_2">
<g id="Group_3">
<path id="Vector" d="M116.006 13.4081H31.4366C30.5105 13.4081 29.7598 14.1588 29.7598 15.0849V63.7153C29.7598 64.6413 30.5105 65.3921 31.4366 65.3921H116.006C116.932 65.3921 117.683 64.6413 117.683 63.7153V15.0849C117.683 14.1588 116.932 13.4081 116.006 13.4081Z" fill="white"/>
<path id="Vector_2" d="M116.003 65.8016H31.4368C30.2848 65.8016 29.3472 64.864 29.3472 63.712V15.0848C29.3472 13.9328 30.2848 12.9952 31.4368 12.9952H116.003C117.155 12.9952 118.093 13.9328 118.093 15.0848V63.712C118.093 64.864 117.155 65.8016 116.003 65.8016ZM31.4368 13.8176C30.736 13.8176 30.1696 14.3872 30.1696 15.0848V63.712C30.1696 64.4128 30.7392 64.9792 31.4368 64.9792H116.003C116.704 64.9792 117.27 64.4096 117.27 63.712V15.0848C117.27 14.384 116.701 13.8176 116.003 13.8176H31.4368Z" fill="#111111"/>
</g>
<path id="Vector_3" d="M99.011 25.088H67.939C67.3258 25.088 66.8286 25.5852 66.8286 26.1984V28.4288C66.8286 29.0421 67.3258 29.5392 67.939 29.5392H99.011C99.6243 29.5392 100.121 29.0421 100.121 28.4288V26.1984C100.121 25.5852 99.6243 25.088 99.011 25.088Z" fill="#479CFF"/>
<g id="Group_4" opacity="0.18">
<path id="Vector_4" d="M105.478 34.8128H67.5681C67.1585 34.8128 66.8257 34.48 66.8257 34.0704C66.8257 33.6608 67.1585 33.328 67.5681 33.328H105.478C105.888 33.328 106.221 33.6608 106.221 34.0704C106.221 34.48 105.888 34.8128 105.478 34.8128Z" fill="#111111"/>
</g>
<g id="Group_5" opacity="0.18">
<path id="Vector_5" d="M105.478 39.8144H67.5681C67.1585 39.8144 66.8257 39.4816 66.8257 39.072C66.8257 38.6624 67.1585 38.3296 67.5681 38.3296H105.478C105.888 38.3296 106.221 38.6624 106.221 39.072C106.221 39.4816 105.888 39.8144 105.478 39.8144Z" fill="#111111"/>
</g>
<g id="Group_6" opacity="0.18">
<path id="Vector_6" d="M105.478 44.8128H67.5681C67.1585 44.8128 66.8257 44.48 66.8257 44.0704C66.8257 43.6608 67.1585 43.328 67.5681 43.328H105.478C105.888 43.328 106.221 43.6608 106.221 44.0704C106.221 44.48 105.888 44.8128 105.478 44.8128Z" fill="#111111"/>
</g>
<g id="Group_7" opacity="0.18">
<path id="Vector_7" d="M105.478 57.1424H67.5681C67.1585 57.1424 66.8257 56.8096 66.8257 56.4C66.8257 55.9904 67.1585 55.6576 67.5681 55.6576H105.478C105.888 55.6576 106.221 55.9904 106.221 56.4C106.221 56.8096 105.888 57.1424 105.478 57.1424Z" fill="#111111"/>
</g>
<g id="Group_8" opacity="0.18">
<path id="Vector_8" d="M94.9411 49.8112H67.5715C67.1619 49.8112 66.8291 49.4784 66.8291 49.0688C66.8291 48.6592 67.1619 48.3264 67.5715 48.3264H94.9411C95.3507 48.3264 95.6835 48.6592 95.6835 49.0688C95.6835 49.4784 95.3507 49.8112 94.9411 49.8112Z" fill="#111111"/>
</g>
<g id="Group_9">
<path id="Vector_9" d="M36.8452 57.5649C36.8452 57.5649 37.6068 47.5393 41.2356 45.4305C42.778 44.5345 44.9156 44.3457 47.3124 44.3265C49.7252 44.3073 52.0164 44.5921 53.274 45.2161C56.6244 46.8833 58.01 57.4913 58.01 57.4913L36.8452 57.5617V57.5649Z" fill="#479CFF"/>
<path id="Vector_10" d="M40.6436 57.5072C40.6436 57.5072 40.6276 57.5072 40.6212 57.5072C40.5188 57.4944 40.4452 57.4016 40.458 57.2992L40.89 53.728C40.9028 53.6256 40.9988 53.552 41.098 53.5648C41.2004 53.5776 41.274 53.6704 41.2612 53.7728L40.8292 57.344C40.8164 57.44 40.7364 57.5072 40.6436 57.5072Z" fill="#111111"/>
<path id="Vector_11" d="M54.1859 57.5072C54.0931 57.5072 54.0131 57.4368 54.0003 57.344L53.5683 53.7728C53.5555 53.6704 53.6291 53.5776 53.7315 53.5648C53.8339 53.552 53.9267 53.6256 53.9395 53.728L54.3715 57.2992C54.3843 57.4016 54.3107 57.4944 54.2083 57.5072C54.2019 57.5072 54.1923 57.5072 54.1859 57.5072Z" fill="#111111"/>
<g id="Group_10">
<path id="Vector_12" d="M47.8368 43.4816C37.312 43.6864 38.4064 32.4352 38.56 31.184C38.5696 31.1008 38.5792 31.0208 38.5824 30.9376L38.592 30.7808C38.7168 28.784 40.3328 27.2064 42.3296 27.1296L51.0912 26.7936C53.12 26.7168 54.8736 28.208 55.1072 30.224C55.6768 35.1136 55.488 43.328 47.8336 43.4784L47.8368 43.4816Z" fill="#B18674"/>
<path id="Vector_13" d="M49.824 35.0272C49.7792 35.424 49.4176 35.7088 49.0208 35.664C48.624 35.6192 48.3392 35.2576 48.384 34.8608C48.4288 34.464 48.7904 34.1792 49.1872 34.224C49.584 34.2688 49.8688 34.6304 49.824 35.0272Z" fill="#111111"/>
<path id="Vector_14" d="M44.6464 34.8576C44.7392 34.4672 45.1296 34.2272 45.52 34.32C45.9104 34.4128 46.1504 34.8032 46.0576 35.1936C45.9648 35.584 45.5744 35.824 45.184 35.7312C44.7936 35.6384 44.5536 35.248 44.6464 34.8576Z" fill="#111111"/>
<path id="Vector_15" d="M47.1491 38.1568C46.7619 38.1568 46.3843 38.0608 46.0739 37.8816C45.9843 37.8304 45.9555 37.7152 46.0067 37.6256C46.0579 37.536 46.1731 37.5072 46.2627 37.5584C46.5539 37.728 46.9187 37.8048 47.2931 37.7792C47.6387 37.7536 47.9587 37.6448 48.2179 37.4624C48.3011 37.4016 48.4195 37.424 48.4771 37.5072C48.5379 37.5904 48.5155 37.7088 48.4323 37.7664C48.1187 37.9872 47.7347 38.1216 47.3187 38.1504C47.2611 38.1536 47.2035 38.1568 47.1459 38.1568H47.1491Z" fill="#111111"/>
<path id="Vector_16" d="M54.8034 34.5408C55.629 34.368 57.1842 34.0832 57.7826 34.7808C58.2914 35.376 58.1346 36.2976 57.4882 36.7776C56.4354 37.5584 54.685 37.6352 54.1602 37.6896" fill="#B18674"/>
<g id="Group_11">
<path id="Vector_17" d="M57.152 35.6512C57.12 35.6512 57.088 35.6416 57.056 35.6256C56.496 35.296 56.0544 35.4368 56.0512 35.4368C55.952 35.4688 55.8464 35.4144 55.8144 35.3184C55.7824 35.2192 55.8368 35.1136 55.9328 35.0816C55.9584 35.0752 56.544 34.8896 57.2448 35.3024C57.3344 35.3536 57.3632 35.4688 57.312 35.5584C57.2768 35.6192 57.216 35.6512 57.152 35.6512Z" fill="#111111"/>
<path id="Vector_18" d="M56.2048 36.3488C56.16 36.3488 56.112 36.3328 56.0768 36.2976C56.0032 36.2272 56 36.1088 56.0704 36.032C56.0704 36.032 56.2848 35.8016 56.544 35.3408C56.5952 35.2512 56.7072 35.2192 56.7968 35.2704C56.8864 35.3216 56.9184 35.4336 56.8672 35.5232C56.5824 36.0288 56.3488 36.2784 56.3392 36.288C56.304 36.3264 56.2528 36.3456 56.2048 36.3456V36.3488Z" fill="#111111"/>
</g>
<path id="Vector_19" d="M39.0178 34.6144C38.1922 34.4512 36.6338 34.1792 36.0418 34.8832C35.5394 35.4816 35.7058 36.4032 36.3554 36.8768C37.4178 37.648 39.165 37.7056 39.693 37.76" fill="#B18674"/>
<g id="Group_12">
<path id="Vector_20" d="M36.6782 35.7472C36.6142 35.7472 36.5534 35.7152 36.5182 35.6576C36.4638 35.568 36.4926 35.4528 36.5822 35.4016C37.2798 34.9824 37.8686 35.1616 37.891 35.168C37.9902 35.2 38.0446 35.3056 38.0126 35.4016C37.9806 35.5008 37.8782 35.5552 37.779 35.5232C37.7566 35.5168 37.3182 35.392 36.7742 35.7184C36.7454 35.7376 36.7102 35.744 36.6782 35.744V35.7472Z" fill="#111111"/>
<path id="Vector_21" d="M37.632 36.4352C37.584 36.4352 37.536 36.416 37.4976 36.3776C37.488 36.368 37.2512 36.1216 36.96 35.616C36.9088 35.5264 36.9408 35.4112 37.0304 35.36C37.12 35.3088 37.2352 35.3408 37.2864 35.4304C37.5488 35.888 37.7632 36.1152 37.7664 36.1152C37.8368 36.1888 37.8368 36.3072 37.7632 36.3808C37.728 36.416 37.68 36.4352 37.632 36.4352Z" fill="#111111"/>
</g>
<path id="Vector_22" d="M44.8066 42.3904L44.7778 45.2192L47.6546 45.68L50.0546 45.1936L49.8722 42.1344L44.8066 42.3904Z" fill="#B18674"/>
<path id="Vector_23" d="M48.4417 32.7136C48.6401 32.5024 49.0433 32.5088 49.3409 32.528C49.6193 32.544 50.1249 32.5568 50.3457 32.7392C50.4609 32.8352 50.4993 32.992 50.4545 33.1168C50.3905 33.2896 50.1985 33.392 50.0001 33.4336C49.8273 33.4688 49.6417 33.4624 49.4593 33.456C49.2129 33.4464 48.9665 33.4368 48.7201 33.4176C48.6593 33.4144 48.5985 33.408 48.5409 33.3824C48.3937 33.3152 48.3361 33.056 48.3457 32.9376C48.3521 32.8448 48.3841 32.7712 48.4385 32.7136H48.4417Z" fill="#111111"/>
<path id="Vector_24" d="M45.9872 32.7872C45.7888 32.5792 45.3824 32.5888 45.0848 32.608C44.8064 32.6272 44.3008 32.6464 44.08 32.8288C43.9648 32.928 43.9296 33.0816 43.9744 33.2064C44.0384 33.3792 44.2336 33.4816 44.432 33.5168C44.608 33.5488 44.7904 33.5424 44.9728 33.5328C45.2192 33.52 45.4656 33.5104 45.7088 33.488C45.7696 33.4816 45.8304 33.4784 45.888 33.4528C46.0352 33.3856 46.0896 33.1264 46.08 33.008C46.0736 32.9152 46.0384 32.8416 45.984 32.784L45.9872 32.7872Z" fill="#111111"/>
<path id="Vector_25" d="M38.4899 34.5376L39.5171 35.4688L39.6515 31.12L38.8483 30.9856C38.5379 30.9952 38.2019 30.912 38.2467 31.2192L38.4899 34.5344V34.5376Z" fill="#111111"/>
<path id="Vector_26" d="M55.3376 34.3648L54.5664 35.2672L54 30.3168L55.4048 29.616L55.3376 34.3648Z" fill="#111111"/>
<path id="Vector_27" d="M38.2466 31.0848C38.2466 32.5152 40.7938 31.5584 42.189 31.2448C44.301 30.768 46.4802 30.592 48.6434 30.7232C50.5538 30.8384 52.525 31.1872 54.3458 30.5952C54.717 30.4736 55.085 30.3072 55.3634 30.032C55.5842 29.8112 55.7346 29.5328 55.8594 29.248C56.3586 28.0992 56.4642 26.784 56.1474 25.5712C56.0034 25.024 55.7602 24.4736 55.3058 24.1376C54.8034 23.7632 54.1378 23.712 53.5106 23.7376C50.557 23.8464 47.8306 25.2704 45.2226 26.6624C44.9442 26.1056 44.6242 25.5104 44.061 25.248C43.213 24.8512 42.2242 25.376 41.5074 25.9776C39.8914 27.3344 38.2434 29.0912 38.2466 31.0848Z" fill="#111111"/>
</g>
<path id="Vector_28" d="M47.4787 45.8176C47.4787 45.8176 47.4467 45.8176 47.4307 45.8176C45.3251 45.8144 44.5059 45.4688 44.4739 45.4528C44.3779 45.4112 44.3363 45.3024 44.3779 45.2064C44.4195 45.1104 44.5283 45.0688 44.6243 45.1104C44.6339 45.1136 45.4211 45.44 47.4339 45.4432C48.5827 45.4432 49.1203 45.3792 50.1603 45.1744C50.2627 45.1552 50.3587 45.2224 50.3779 45.3216C50.3971 45.424 50.3331 45.52 50.2307 45.5424C49.1939 45.744 48.6147 45.8176 47.4787 45.8176Z" fill="#111111"/>
</g>
</g>
<g id="Group_13">
<g id="Group_14">
<path id="Vector_29" d="M88.1727 57.1553H3.60307C2.677 57.1553 1.92627 57.906 1.92627 58.8321V107.462C1.92627 108.389 2.677 109.139 3.60307 109.139H88.1727C89.0987 109.139 89.8495 108.389 89.8495 107.462V58.8321C89.8495 57.906 89.0987 57.1553 88.1727 57.1553Z" fill="white"/>
<path id="Vector_30" d="M88.1697 109.549H3.60327C2.45127 109.549 1.51367 108.611 1.51367 107.459V58.832C1.51367 57.68 2.45127 56.7424 3.60327 56.7424H88.1697C89.3217 56.7424 90.2593 57.68 90.2593 58.832V107.459C90.2593 108.611 89.3217 109.549 88.1697 109.549ZM3.60327 57.5648C2.90247 57.5648 2.33607 58.1344 2.33607 58.832V107.459C2.33607 108.16 2.90567 108.726 3.60327 108.726H88.1697C88.8705 108.726 89.4369 108.157 89.4369 107.459V58.832C89.4369 58.1312 88.8673 57.5648 88.1697 57.5648H3.60327Z" fill="#111111"/>
</g>
<g id="Group_15">
<path id="Vector_31" d="M9.22852 101.466C9.22852 101.466 10.0253 90.96 13.8301 88.752C15.4461 87.8144 17.6861 87.616 20.1981 87.5936C22.7261 87.5712 25.1261 87.872 26.4445 88.528C29.9549 90.2752 31.4077 101.392 31.4077 101.392L9.22852 101.466Z" fill="#0CB0A6"/>
<path id="Vector_32" d="M13.2097 101.523C13.2097 101.523 13.1937 101.523 13.1873 101.523C13.0785 101.51 13.0017 101.414 13.0177 101.306L13.4689 97.5648C13.4817 97.456 13.5809 97.3792 13.6865 97.3952C13.7953 97.408 13.8721 97.504 13.8561 97.6128L13.4049 101.354C13.3921 101.453 13.3089 101.526 13.2097 101.526V101.523Z" fill="#111111"/>
<path id="Vector_33" d="M27.4017 101.523C27.3025 101.523 27.2193 101.45 27.2065 101.35L26.7553 97.6096C26.7425 97.5008 26.8193 97.4048 26.9249 97.392C27.0305 97.3792 27.1297 97.456 27.1425 97.5616L27.5937 101.302C27.6065 101.411 27.5297 101.507 27.4241 101.52C27.4177 101.52 27.4081 101.52 27.4017 101.52V101.523Z" fill="#111111"/>
<g id="Group_16">
<path id="Vector_34" d="M20.7904 86.7072C9.76323 86.9216 10.9088 75.1296 11.0688 73.8208C11.0784 73.7344 11.088 73.648 11.0944 73.5616L11.104 73.3984C11.2352 71.3056 12.928 69.6544 15.0208 69.5744L24.2016 69.2224C26.3264 69.1424 28.1632 70.704 28.4096 72.816C29.0048 77.9392 28.8064 86.5472 20.7872 86.704L20.7904 86.7072Z" fill="#EFC6BA"/>
<path id="Vector_35" d="M22.1217 78.5216C22.5405 78.5216 22.8801 78.182 22.8801 77.7632C22.8801 77.3443 22.5405 77.0048 22.1217 77.0048C21.7028 77.0048 21.3633 77.3443 21.3633 77.7632C21.3633 78.182 21.7028 78.5216 22.1217 78.5216Z" fill="#111111"/>
<path id="Vector_36" d="M17.4463 77.6736C17.5423 77.264 17.9519 77.0144 18.3615 77.1104C18.7711 77.2064 19.0207 77.616 18.9247 78.0256C18.8287 78.4352 18.4191 78.6848 18.0095 78.5888C17.5999 78.4928 17.3503 78.0832 17.4463 77.6736Z" fill="#111111"/>
<path id="Vector_37" d="M20.0705 81.1264C19.6641 81.1264 19.2705 81.0272 18.9441 80.8384C18.8513 80.784 18.8193 80.6656 18.8737 80.5696C18.9281 80.4768 19.0465 80.4448 19.1425 80.4992C19.4465 80.6752 19.8305 80.7584 20.2241 80.7296C20.5889 80.704 20.9217 80.5888 21.1937 80.3968C21.2833 80.3328 21.4049 80.3552 21.4657 80.4448C21.5265 80.5344 21.5073 80.656 21.4177 80.7168C21.0881 80.9504 20.6849 81.088 20.2497 81.12C20.1889 81.1232 20.1281 81.1264 20.0705 81.1264Z" fill="#111111"/>
<path id="Vector_38" d="M28.0927 77.3377C28.9567 77.1585 30.5855 76.8577 31.2159 77.5905C31.7503 78.2145 31.5839 79.1809 30.9055 79.6833C29.8015 80.5025 27.9679 80.5793 27.4175 80.6401" fill="#EFC6BA"/>
<g id="Group_17">
<path id="Vector_39" d="M30.5538 78.5024C30.5186 78.5024 30.4866 78.4928 30.4546 78.4736C29.8786 78.1344 29.4178 78.272 29.3986 78.2784C29.2962 78.3104 29.1842 78.2528 29.1522 78.1504C29.1202 78.048 29.1746 77.9392 29.277 77.904C29.3026 77.8944 29.917 77.7024 30.653 78.1344C30.7458 78.1888 30.7778 78.3104 30.7234 78.4032C30.6882 78.464 30.621 78.4992 30.5538 78.4992V78.5024Z" fill="#111111"/>
<path id="Vector_40" d="M29.5617 79.2351C29.5137 79.2351 29.4657 79.2159 29.4273 79.1807C29.3505 79.1071 29.3473 78.9823 29.4209 78.9023C29.4209 78.9023 29.6449 78.6623 29.9169 78.1791C29.9713 78.0831 30.0897 78.0511 30.1825 78.1023C30.2785 78.1567 30.3105 78.2751 30.2593 78.3679C29.9617 78.8991 29.7153 79.1583 29.7057 79.1711C29.6673 79.2127 29.6161 79.2319 29.5649 79.2319L29.5617 79.2351Z" fill="#111111"/>
</g>
<path id="Vector_41" d="M11.5519 77.4176C10.6847 77.2448 9.05273 76.96 8.43193 77.6992C7.90393 78.3264 8.07993 79.2928 8.76153 79.7888C9.87193 80.5984 11.7055 80.6592 12.2591 80.7136" fill="#EFC6BA"/>
<g id="Group_18">
<path id="Vector_42" d="M9.0976 78.6016C9.0304 78.6016 8.9664 78.5664 8.9312 78.5056C8.8768 78.4128 8.9056 78.2912 8.9984 78.2368C9.7312 77.7952 10.3456 77.984 10.3712 77.9936C10.4736 78.0256 10.5312 78.1376 10.4992 78.24C10.4672 78.3424 10.3584 78.3999 10.2528 78.3679C10.2304 78.3615 9.7696 78.2304 9.2 78.576C9.168 78.5952 9.1328 78.6048 9.1008 78.6048L9.0976 78.6016Z" fill="#111111"/>
<path id="Vector_43" d="M10.0993 79.3247C10.0481 79.3247 9.9969 79.3055 9.9585 79.2639C9.9489 79.2543 9.6993 78.9951 9.3985 78.4671C9.3441 78.3743 9.3761 78.2527 9.4721 78.1983C9.5649 78.1439 9.6865 78.1759 9.7409 78.2719C10.0161 78.7519 10.2401 78.9887 10.2433 78.9919C10.3169 79.0687 10.3169 79.1935 10.2401 79.2671C10.2017 79.3055 10.1537 79.3215 10.1025 79.3215L10.0993 79.3247Z" fill="#111111"/>
</g>
<path id="Vector_44" d="M17.6189 85.5648L17.5869 88.5312L20.6013 89.0144L23.1165 88.5024L22.9245 85.2992L17.6189 85.5648Z" fill="#EFC6BA"/>
<path id="Vector_45" d="M21.4273 75.4241C21.6321 75.2033 22.0577 75.2097 22.3713 75.2289C22.6625 75.2481 23.1937 75.2609 23.4241 75.4529C23.5457 75.5553 23.5841 75.7153 23.5393 75.8465C23.4753 76.0289 23.2705 76.1377 23.0625 76.1761C22.8801 76.2113 22.6849 76.2049 22.4961 76.1985C22.2401 76.1889 21.9809 76.1793 21.7217 76.1601C21.6577 76.1569 21.5937 76.1505 21.5329 76.1249C21.3793 76.0545 21.3185 75.7857 21.3281 75.6609C21.3345 75.5649 21.3697 75.4849 21.4273 75.4241Z" fill="#111111"/>
<path id="Vector_46" d="M18.851 75.504C18.643 75.2832 18.2174 75.296 17.907 75.3184C17.6158 75.3376 17.0846 75.3568 16.8542 75.552C16.7326 75.6544 16.6942 75.8176 16.7422 75.9488C16.8094 76.1312 17.0142 76.2368 17.219 76.2752C17.4014 76.3104 17.5966 76.3008 17.7886 76.2912C18.0446 76.2784 18.3038 76.2656 18.5598 76.2464C18.6238 76.24 18.6878 76.2336 18.7454 76.208C18.899 76.1376 18.9566 75.8656 18.947 75.7408C18.9406 75.6448 18.9054 75.568 18.8478 75.5072L18.851 75.504Z" fill="#111111"/>
<path id="Vector_47" d="M10.9985 77.3344L11.8849 78.1152L12.2849 73.9679L11.1297 73.8464C10.9249 73.824 10.7521 73.9935 10.7681 74.1983L11.0017 77.3312L10.9985 77.3344Z" fill="#111111"/>
<path id="Vector_48" d="M28.6879 77.2545L27.8847 77.8881L27.1743 73.4977L28.9439 73.4401L28.6879 77.2545Z" fill="#111111"/>
<path id="Vector_49" d="M11.1969 74.608C13.1649 74.0032 14.6913 72.3424 15.7185 70.56C18.1409 72.6496 21.7441 73.3728 21.8849 73.12C22.0417 72.8384 21.9201 72.096 21.6033 71.5776C24.1697 73.4144 30.4129 75.072 30.4737 74.944C30.9889 73.8656 29.5937 66.3584 20.2753 65.936C15.7889 65.7312 12.1761 67.8528 11.0881 69.5296C10.0897 71.0688 9.65772 73.0336 9.89452 74.8512C9.89452 74.8512 10.8833 74.7072 11.2001 74.608H11.1969Z" fill="#111111"/>
</g>
<path id="Vector_50" d="M20.419 89.1584H20.3678C18.1598 89.1552 17.3054 88.7936 17.2702 88.7776C17.171 88.7328 17.1262 88.6176 17.1678 88.5184C17.2094 88.4192 17.3246 88.3744 17.4238 88.416C17.4238 88.416 18.259 88.7616 20.3678 88.7648C21.571 88.7712 22.1342 88.6976 23.2254 88.4832C23.3342 88.4608 23.4334 88.5312 23.4558 88.6368C23.475 88.7424 23.4078 88.8448 23.3022 88.8672C22.2142 89.0784 21.6062 89.1552 20.419 89.1552V89.1584Z" fill="#111111"/>
<g id="Group_19">
<path id="Vector_51" d="M17.4271 79.216C17.4837 79.216 17.5295 79.1702 17.5295 79.1136C17.5295 79.0571 17.4837 79.0112 17.4271 79.0112C17.3706 79.0112 17.3247 79.0571 17.3247 79.1136C17.3247 79.1702 17.3706 79.216 17.4271 79.216Z" fill="#DDB49F"/>
<path id="Vector_52" d="M18.5569 79.3633C18.5569 79.4209 18.5121 79.4657 18.4545 79.4657C18.3969 79.4657 18.3521 79.4209 18.3521 79.3633C18.3521 79.3057 18.3969 79.2609 18.4545 79.2609C18.5121 79.2609 18.5569 79.3057 18.5569 79.3633Z" fill="#DDB49F"/>
<path id="Vector_53" d="M18.3617 80.2592C18.4182 80.2592 18.4641 80.2134 18.4641 80.1568C18.4641 80.1003 18.4182 80.0544 18.3617 80.0544C18.3051 80.0544 18.2593 80.1003 18.2593 80.1568C18.2593 80.2134 18.3051 80.2592 18.3617 80.2592Z" fill="#DDB49F"/>
<path id="Vector_54" d="M17.885 79.68C17.885 79.7376 17.8402 79.7824 17.7826 79.7824C17.725 79.7824 17.6802 79.7376 17.6802 79.68C17.6802 79.6224 17.725 79.5776 17.7826 79.5776C17.8402 79.5776 17.885 79.6224 17.885 79.68Z" fill="#DDB49F"/>
<path id="Vector_55" d="M17.4592 80.1409C17.4592 80.1985 17.4144 80.2433 17.3568 80.2433C17.2992 80.2433 17.2544 80.1985 17.2544 80.1409C17.2544 80.0833 17.2992 80.0385 17.3568 80.0385C17.4144 80.0385 17.4592 80.0833 17.4592 80.1409Z" fill="#DDB49F"/>
<path id="Vector_56" d="M22.0638 79.216C22.1204 79.216 22.1662 79.1702 22.1662 79.1136C22.1662 79.0571 22.1204 79.0112 22.0638 79.0112C22.0073 79.0112 21.9614 79.0571 21.9614 79.1136C21.9614 79.1702 22.0073 79.216 22.0638 79.216Z" fill="#DDB49F"/>
<path id="Vector_57" d="M23.1936 79.3633C23.1936 79.4209 23.1488 79.4657 23.0912 79.4657C23.0336 79.4657 22.9888 79.4209 22.9888 79.3633C22.9888 79.3057 23.0336 79.2609 23.0912 79.2609C23.1488 79.2609 23.1936 79.3057 23.1936 79.3633Z" fill="#DDB49F"/>
<path id="Vector_58" d="M22.9984 80.2592C23.0549 80.2592 23.1008 80.2134 23.1008 80.1568C23.1008 80.1003 23.0549 80.0544 22.9984 80.0544C22.9418 80.0544 22.896 80.1003 22.896 80.1568C22.896 80.2134 22.9418 80.2592 22.9984 80.2592Z" fill="#DDB49F"/>
<path id="Vector_59" d="M22.4193 79.7824C22.4758 79.7824 22.5217 79.7366 22.5217 79.68C22.5217 79.6235 22.4758 79.5776 22.4193 79.5776C22.3627 79.5776 22.3169 79.6235 22.3169 79.68C22.3169 79.7366 22.3627 79.7824 22.4193 79.7824Z" fill="#DDB49F"/>
<path id="Vector_60" d="M21.9935 80.2433C22.0501 80.2433 22.0959 80.1974 22.0959 80.1409C22.0959 80.0843 22.0501 80.0385 21.9935 80.0385C21.937 80.0385 21.8911 80.0843 21.8911 80.1409C21.8911 80.1974 21.937 80.2433 21.9935 80.2433Z" fill="#DDB49F"/>
</g>
</g>
<path id="Vector_61" d="M71.1775 68.8384H40.1055C39.4923 68.8384 38.9951 69.3355 38.9951 69.9488V72.1792C38.9951 72.7924 39.4923 73.2896 40.1055 73.2896H71.1775C71.7908 73.2896 72.2879 72.7924 72.2879 72.1792V69.9488C72.2879 69.3355 71.7908 68.8384 71.1775 68.8384Z" fill="#76ADA0"/>
<g id="Group_20" opacity="0.18">
<path id="Vector_62" d="M77.645 78.5632H39.7346C39.325 78.5632 38.9922 78.2304 38.9922 77.8208C38.9922 77.4112 39.325 77.0784 39.7346 77.0784H77.645C78.0546 77.0784 78.3874 77.4112 78.3874 77.8208C78.3874 78.2304 78.0546 78.5632 77.645 78.5632Z" fill="#111111"/>
</g>
<g id="Group_21" opacity="0.18">
<path id="Vector_63" d="M77.6447 82.0768H39.7375C39.3275 82.0768 38.9951 82.4092 38.9951 82.8192C38.9951 83.2292 39.3275 83.5616 39.7375 83.5616H77.6447C78.0547 83.5616 78.3871 83.2292 78.3871 82.8192C78.3871 82.4092 78.0547 82.0768 77.6447 82.0768Z" fill="#111111"/>
</g>
<g id="Group_22" opacity="0.18">
<path id="Vector_64" d="M77.645 88.56H39.7346C39.325 88.56 38.9922 88.2272 38.9922 87.8176C38.9922 87.408 39.325 87.0752 39.7346 87.0752H77.645C78.0546 87.0752 78.3874 87.408 78.3874 87.8176C78.3874 88.2272 78.0546 88.56 77.645 88.56Z" fill="#111111"/>
</g>
<g id="Group_23" opacity="0.18">
<path id="Vector_65" d="M77.645 101.37H39.7346C39.325 101.37 38.9922 101.037 38.9922 100.627C38.9922 100.218 39.325 99.8849 39.7346 99.8849H77.645C78.0546 99.8849 78.3874 100.218 78.3874 100.627C78.3874 101.037 78.0546 101.37 77.645 101.37Z" fill="#111111"/>
</g>
<g id="Group_24" opacity="0.18">
<path id="Vector_66" d="M60.2562 93.5616H39.7346C39.325 93.5616 38.9922 93.2288 38.9922 92.8192C38.9922 92.4096 39.325 92.0768 39.7346 92.0768H60.2562C60.6658 92.0768 60.9986 92.4096 60.9986 92.8192C60.9986 93.2288 60.6658 93.5616 60.2562 93.5616Z" fill="#111111"/>
</g>
</g>
<g id="Group_25">
<g id="Group_26">
<path id="Vector_67" d="M123.782 98.2592H39.2124C38.2864 98.2592 37.5356 99.0099 37.5356 99.936V148.566C37.5356 149.492 38.2864 150.243 39.2124 150.243H123.782C124.708 150.243 125.459 149.492 125.459 148.566V99.936C125.459 99.0099 124.708 98.2592 123.782 98.2592Z" fill="white"/>
<path id="Vector_68" d="M123.779 150.656H39.2126C38.0606 150.656 37.123 149.718 37.123 148.566V99.9392C37.123 98.7872 38.0606 97.8496 39.2126 97.8496H123.779C124.931 97.8496 125.869 98.7872 125.869 99.9392V148.566C125.869 149.718 124.931 150.656 123.779 150.656ZM39.2126 98.672C38.515 98.672 37.9454 99.2416 37.9454 99.9392V148.566C37.9454 149.267 38.515 149.834 39.2126 149.834H123.779C124.48 149.834 125.046 149.264 125.046 148.566V99.9392C125.046 99.2384 124.477 98.672 123.779 98.672H39.2126Z" fill="#111111"/>
</g>
<path id="Vector_69" d="M106.787 109.942H75.7149C75.1016 109.942 74.6045 110.44 74.6045 111.053V113.283C74.6045 113.896 75.1016 114.394 75.7149 114.394H106.787C107.4 114.394 107.897 113.896 107.897 113.283V111.053C107.897 110.44 107.4 109.942 106.787 109.942Z" fill="#DD724A"/>
<g id="Group_27" opacity="0.18">
<path id="Vector_70" d="M113.254 119.667H75.344C74.9344 119.667 74.6016 119.334 74.6016 118.925C74.6016 118.515 74.9344 118.182 75.344 118.182H113.254C113.664 118.182 113.997 118.515 113.997 118.925C113.997 119.334 113.664 119.667 113.254 119.667Z" fill="#111111"/>
</g>
<g id="Group_28" opacity="0.18">
<path id="Vector_71" d="M113.255 123.184H75.3474C74.9374 123.184 74.605 123.516 74.605 123.926C74.605 124.336 74.9374 124.669 75.3474 124.669H113.255C113.665 124.669 113.997 124.336 113.997 123.926C113.997 123.516 113.665 123.184 113.255 123.184Z" fill="#111111"/>
</g>
<g id="Group_29" opacity="0.18">
<path id="Vector_72" d="M113.254 129.667H75.344C74.9344 129.667 74.6016 129.334 74.6016 128.925C74.6016 128.515 74.9344 128.182 75.344 128.182H113.254C113.664 128.182 113.997 128.515 113.997 128.925C113.997 129.334 113.664 129.667 113.254 129.667Z" fill="#111111"/>
</g>
<g id="Group_30" opacity="0.18">
<path id="Vector_73" d="M95.8656 134.666H75.344C74.9344 134.666 74.6016 134.333 74.6016 133.923C74.6016 133.514 74.9344 133.181 75.344 133.181H95.8656C96.2752 133.181 96.608 133.514 96.608 133.923C96.608 134.333 96.2752 134.666 95.8656 134.666Z" fill="#111111"/>
</g>
<g id="Group_31">
<path id="Vector_74" d="M66.0867 129.389C66.0867 129.389 66.4035 117.942 65.9299 115.763C64.8771 110.906 60.3619 107.434 54.1379 107.725C47.9139 108.019 44.8387 111.245 44.1347 116.173C43.8371 118.272 44.0355 130.003 44.0355 130.003C43.8531 131.939 66.4291 131.28 66.0867 129.389Z" fill="#111111"/>
<path id="Vector_75" d="M45.5845 142.48C45.5845 142.48 46.3205 132.774 49.8341 130.736C51.3253 129.869 53.3957 129.686 55.7157 129.667C58.0517 129.648 60.2693 129.923 61.4853 130.531C64.7269 132.144 66.0709 142.413 66.0709 142.413L45.5845 142.483V142.48Z" fill="#0CB0A6"/>
<path id="Vector_76" d="M56.1026 128.963C44.765 129.299 45.821 117.162 45.9746 115.811C45.9842 115.722 45.9938 115.635 45.997 115.546L46.0066 115.379C46.1186 113.226 47.8434 111.51 49.9938 111.405L59.4306 110.947C61.6162 110.842 63.5202 112.429 63.7954 114.602C64.461 119.866 64.349 128.717 56.1026 128.963Z" fill="#EFC6BA"/>
<path id="Vector_77" d="M58.154 119.834C58.1092 120.262 57.7252 120.573 57.2964 120.528C56.8676 120.483 56.5572 120.099 56.602 119.67C56.6468 119.242 57.0308 118.931 57.4596 118.976C57.8884 119.021 58.1988 119.405 58.154 119.834Z" fill="#111111"/>
<path id="Vector_78" d="M52.5733 119.709C52.6693 119.29 53.0853 119.024 53.5077 119.12C53.9301 119.216 54.1925 119.632 54.0965 120.054C54.0005 120.474 53.5845 120.739 53.1621 120.643C52.7429 120.547 52.4773 120.131 52.5733 119.709Z" fill="#111111"/>
<path id="Vector_79" d="M55.277 123.21C54.8706 123.21 54.4802 123.11 54.1538 122.928C54.0674 122.88 54.0386 122.771 54.0866 122.685C54.1346 122.598 54.2434 122.57 54.3298 122.618C54.6498 122.8 55.0498 122.88 55.4594 122.845C55.837 122.813 56.1858 122.691 56.4642 122.49C56.5442 122.432 56.653 122.451 56.7106 122.528C56.7682 122.608 56.749 122.72 56.6722 122.774C56.3394 123.014 55.9298 123.162 55.4882 123.197C55.4178 123.203 55.3474 123.206 55.2802 123.206L55.277 123.21Z" fill="#111111"/>
<g id="Group_32">
<path id="Vector_80" d="M63.514 119.254C64.4004 119.059 66.074 118.733 66.7268 119.482C67.2804 120.115 67.1204 121.114 66.4292 121.635C65.3028 122.49 63.418 122.589 62.8516 122.656" fill="#EFC6BA"/>
<g id="Group_33">
<path id="Vector_81" d="M66.0583 120.4C66.0295 120.4 65.9975 120.394 65.9687 120.378C65.3607 120.029 64.8807 120.179 64.8615 120.186C64.7687 120.214 64.6695 120.166 64.6375 120.074C64.6055 119.981 64.6567 119.882 64.7495 119.85C64.7751 119.84 65.3927 119.638 66.1479 120.07C66.2343 120.118 66.2631 120.227 66.2119 120.314C66.1799 120.371 66.1191 120.403 66.0583 120.403V120.4Z" fill="#111111"/>
<path id="Vector_82" d="M65.0439 121.162C64.9991 121.162 64.9575 121.146 64.9223 121.114C64.8519 121.046 64.8455 120.934 64.9127 120.864C64.9127 120.864 65.1431 120.611 65.4183 120.109C65.4663 120.022 65.5719 119.99 65.6583 120.038C65.7447 120.086 65.7767 120.192 65.7287 120.278C65.4311 120.826 65.1815 121.094 65.1719 121.104C65.1367 121.142 65.0887 121.162 65.0439 121.162Z" fill="#111111"/>
</g>
</g>
<g id="Group_34">
<path id="Vector_83" d="M46.5059 119.504C45.6131 119.334 43.9331 119.059 43.3027 119.827C42.7683 120.477 42.9571 121.469 43.6611 121.971C44.8131 122.79 46.6979 122.835 47.2675 122.886" fill="#EFC6BA"/>
<g id="Group_35">
<path id="Vector_84" d="M43.9937 120.726C43.9329 120.726 43.8753 120.698 43.8433 120.643C43.7921 120.56 43.8177 120.451 43.9009 120.4C44.6401 119.946 45.2641 120.128 45.2897 120.138C45.3825 120.166 45.4369 120.266 45.4081 120.358C45.3793 120.451 45.2801 120.502 45.1873 120.477C45.1649 120.47 44.6817 120.336 44.0865 120.704C44.0577 120.723 44.0257 120.73 43.9937 120.73V120.726Z" fill="#111111"/>
<path id="Vector_85" d="M45.0305 121.459C44.9857 121.459 44.9409 121.443 44.9057 121.408C44.8961 121.398 44.6369 121.136 44.3233 120.598C44.2753 120.515 44.3009 120.406 44.3873 120.355C44.4705 120.304 44.5793 120.333 44.6305 120.419C44.9217 120.915 45.1553 121.155 45.1585 121.158C45.2257 121.229 45.2257 121.341 45.1585 121.408C45.1233 121.443 45.0785 121.459 45.0337 121.459H45.0305Z" fill="#111111"/>
</g>
</g>
<path id="Vector_86" d="M51.5649 117.328C52.5601 117.299 53.6833 117.258 54.9601 117.197C60.7905 116.922 64.1857 116.307 65.2033 116.099C65.3825 116.064 65.4913 115.866 65.4401 115.67C64.0481 110.381 59.5617 107.491 54.3969 107.734C49.2449 107.978 45.8081 111.331 44.9057 116.707C44.8641 116.954 45.0177 117.187 45.2417 117.232C45.7985 117.338 46.3841 117.398 49.3921 117.373L50.3617 114.707L51.5649 117.328Z" fill="#111111"/>
<path id="Vector_87" d="M53.0529 127.818L52.8257 130.87L58.5153 130.787L58.1345 127.494L53.0529 127.818Z" fill="#EFC6BA"/>
<path id="Vector_88" d="M56.6917 117.565C56.8869 117.357 57.2837 117.366 57.5749 117.386C57.8501 117.405 58.3461 117.418 58.5605 117.6C58.6757 117.696 58.7109 117.846 58.6661 117.971C58.6053 118.141 58.4133 118.243 58.2181 118.278C58.0453 118.31 57.8661 118.304 57.6869 118.298C57.4469 118.288 57.2037 118.278 56.9637 118.259C56.9029 118.256 56.8421 118.25 56.7877 118.224C56.6437 118.16 56.5893 117.904 56.5957 117.786C56.6021 117.696 56.6341 117.622 56.6885 117.565H56.6917Z" fill="#111111"/>
<path id="Vector_89" d="M53.8917 117.667C53.6965 117.459 53.2996 117.469 53.0084 117.488C52.7332 117.507 52.2373 117.52 52.0229 117.702C51.9077 117.798 51.8725 117.949 51.9173 118.074C51.9781 118.243 52.1701 118.342 52.3653 118.381C52.5381 118.413 52.7173 118.406 52.8965 118.4C53.1365 118.39 53.3797 118.381 53.6197 118.358C53.6805 118.355 53.7413 118.349 53.7957 118.323C53.9397 118.259 53.9941 118.003 53.9877 117.885C53.9813 117.795 53.9493 117.722 53.8949 117.664L53.8917 117.667Z" fill="#111111"/>
<path id="Vector_90" d="M55.8145 131.277H55.7633C53.4945 131.274 52.6145 130.899 52.5761 130.883C52.4737 130.838 52.4289 130.72 52.4705 130.618C52.5153 130.515 52.6337 130.47 52.7361 130.512C52.7489 130.518 53.6033 130.867 55.7633 130.87C56.9857 130.87 57.5809 130.8 58.7041 130.582C58.8161 130.56 58.9185 130.634 58.9409 130.742C58.9633 130.851 58.8897 130.957 58.7809 130.979C57.6641 131.197 57.0401 131.277 55.8145 131.277Z" fill="#111111"/>
<path id="Vector_91" d="M48.5154 142.442C48.5154 142.442 48.4994 142.442 48.4898 142.442C48.381 142.429 48.301 142.326 48.3138 142.218L48.7778 138.371C48.7906 138.259 48.8898 138.182 49.0018 138.195C49.1106 138.208 49.1906 138.31 49.1778 138.419L48.7138 142.266C48.701 142.368 48.6146 142.442 48.5154 142.442Z" fill="#111111"/>
<path id="Vector_92" d="M63.1106 142.442C63.0114 142.442 62.9218 142.368 62.9122 142.266L62.4482 138.419C62.4354 138.31 62.5122 138.208 62.6242 138.195C62.7362 138.182 62.8354 138.259 62.8482 138.371L63.3122 142.218C63.325 142.326 63.2482 142.429 63.1362 142.442C63.1266 142.442 63.1202 142.442 63.1106 142.442Z" fill="#111111"/>
<g id="Group_36">
<path id="Vector_93" d="M52.762 121.392C52.762 121.45 52.714 121.498 52.6564 121.498C52.5988 121.498 52.5508 121.45 52.5508 121.392C52.5508 121.334 52.5988 121.286 52.6564 121.286C52.714 121.286 52.762 121.334 52.762 121.392Z" fill="#DDB49F"/>
<path id="Vector_94" d="M53.8147 121.651C53.8147 121.709 53.7667 121.757 53.7091 121.757C53.6515 121.757 53.6035 121.709 53.6035 121.651C53.6035 121.594 53.6515 121.546 53.7091 121.546C53.7667 121.546 53.8147 121.594 53.8147 121.651Z" fill="#DDB49F"/>
<path id="Vector_95" d="M53.6163 122.573C53.6747 122.573 53.7219 122.525 53.7219 122.467C53.7219 122.409 53.6747 122.362 53.6163 122.362C53.558 122.362 53.5107 122.409 53.5107 122.467C53.5107 122.525 53.558 122.573 53.6163 122.573Z" fill="#DDB49F"/>
<path id="Vector_96" d="M53.1233 121.978C53.1233 122.035 53.0753 122.083 53.0177 122.083C52.9601 122.083 52.9121 122.035 52.9121 121.978C52.9121 121.92 52.9601 121.872 53.0177 121.872C53.0753 121.872 53.1233 121.92 53.1233 121.978Z" fill="#DDB49F"/>
<path id="Vector_97" d="M52.6882 122.451C52.6882 122.509 52.6403 122.557 52.5827 122.557C52.5251 122.557 52.4771 122.509 52.4771 122.451C52.4771 122.394 52.5251 122.346 52.5827 122.346C52.6403 122.346 52.6882 122.394 52.6882 122.451Z" fill="#DDB49F"/>
<path id="Vector_98" d="M57.53 121.392C57.53 121.45 57.482 121.498 57.4244 121.498C57.3668 121.498 57.3188 121.45 57.3188 121.392C57.3188 121.334 57.3668 121.286 57.4244 121.286C57.482 121.286 57.53 121.334 57.53 121.392Z" fill="#DDB49F"/>
<path id="Vector_99" d="M58.5857 121.651C58.5857 121.709 58.5377 121.757 58.4801 121.757C58.4225 121.757 58.3745 121.709 58.3745 121.651C58.3745 121.594 58.4225 121.546 58.4801 121.546C58.5377 121.546 58.5857 121.594 58.5857 121.651Z" fill="#DDB49F"/>
<path id="Vector_100" d="M58.3844 122.573C58.4427 122.573 58.49 122.525 58.49 122.467C58.49 122.409 58.4427 122.362 58.3844 122.362C58.3261 122.362 58.2788 122.409 58.2788 122.467C58.2788 122.525 58.3261 122.573 58.3844 122.573Z" fill="#DDB49F"/>
<path id="Vector_101" d="M57.8948 121.978C57.8948 122.035 57.8468 122.083 57.7892 122.083C57.7316 122.083 57.6836 122.035 57.6836 121.978C57.6836 121.92 57.7316 121.872 57.7892 121.872C57.8468 121.872 57.8948 121.92 57.8948 121.978Z" fill="#DDB49F"/>
<path id="Vector_102" d="M57.4563 122.451C57.4563 122.509 57.4083 122.557 57.3507 122.557C57.2931 122.557 57.2451 122.509 57.2451 122.451C57.2451 122.394 57.2931 122.346 57.3507 122.346C57.4083 122.346 57.4563 122.394 57.4563 122.451Z" fill="#DDB49F"/>
</g>
</g>
<g id="Group_37">
<path id="Vector_103" d="M78.1475 138.842L78.5667 140.131C78.5859 140.195 78.6467 140.237 78.7139 140.237H80.0707C80.2179 140.237 80.2819 140.426 80.1603 140.515L79.0627 141.312C79.0083 141.35 78.9859 141.421 79.0083 141.485L79.4275 142.774C79.4723 142.915 79.3123 143.034 79.1907 142.947L78.0931 142.15C78.0387 142.112 77.9651 142.112 77.9139 142.15L76.8163 142.947C76.6947 143.034 76.5347 142.918 76.5795 142.774L76.9987 141.485C77.0179 141.421 76.9987 141.354 76.9443 141.312L75.8467 140.515C75.7251 140.429 75.7891 140.237 75.9363 140.237H77.2931C77.3603 140.237 77.4179 140.195 77.4403 140.131L77.8595 138.842C77.9043 138.701 78.1059 138.701 78.1507 138.842H78.1475Z" fill="#DD724A"/>
<path id="Vector_104" d="M85.5845 138.842L86.0037 140.131C86.0229 140.195 86.0837 140.237 86.1509 140.237H87.5077C87.6549 140.237 87.7189 140.426 87.5973 140.515L86.4997 141.312C86.4453 141.35 86.4229 141.421 86.4453 141.485L86.8645 142.774C86.9093 142.915 86.7493 143.034 86.6277 142.947L85.5301 142.15C85.4757 142.112 85.4021 142.112 85.3509 142.15L84.2533 142.947C84.1317 143.034 83.9717 142.918 84.0165 142.774L84.4357 141.485C84.4549 141.421 84.4357 141.354 84.3813 141.312L83.2837 140.515C83.1621 140.429 83.2261 140.237 83.3733 140.237H84.7301C84.7973 140.237 84.8549 140.195 84.8773 140.131L85.2965 138.842C85.3413 138.701 85.5429 138.701 85.5877 138.842H85.5845Z" fill="#DD724A"/>
<path id="Vector_105" d="M93.021 138.842L93.4402 140.131C93.4594 140.195 93.5202 140.237 93.5874 140.237H94.9442C95.0914 140.237 95.1554 140.426 95.0338 140.515L93.9362 141.312C93.8818 141.35 93.8594 141.421 93.8818 141.485L94.301 142.774C94.3458 142.915 94.1858 143.034 94.0642 142.947L92.9666 142.15C92.9122 142.112 92.8386 142.112 92.7874 142.15L91.6898 142.947C91.5682 143.034 91.4082 142.918 91.453 142.774L91.8722 141.485C91.8914 141.421 91.8722 141.354 91.8178 141.312L90.7202 140.515C90.5986 140.429 90.6626 140.237 90.8098 140.237H92.1666C92.2338 140.237 92.2914 140.195 92.3138 140.131L92.733 138.842C92.7778 138.701 92.9794 138.701 93.0242 138.842H93.021Z" fill="#DD724A"/>
<g id="Group_38" opacity="0.42">
<path id="Vector_106" d="M100.461 138.842L100.88 140.131C100.899 140.195 100.96 140.237 101.027 140.237H102.384C102.531 140.237 102.595 140.426 102.474 140.515L101.376 141.312C101.322 141.35 101.299 141.421 101.322 141.485L101.741 142.774C101.786 142.915 101.626 143.034 101.504 142.947L100.407 142.15C100.352 142.112 100.279 142.112 100.227 142.15L99.1297 142.947C99.0081 143.034 98.8481 142.918 98.8929 142.774L99.3121 141.485C99.3313 141.421 99.3121 141.354 99.2577 141.312L98.1601 140.515C98.0385 140.429 98.1025 140.237 98.2497 140.237H99.6065C99.6737 140.237 99.7313 140.195 99.7537 140.131L100.173 138.842C100.218 138.701 100.419 138.701 100.464 138.842H100.461Z" fill="#DD724A"/>
</g>
</g>
</g>
<g id="Group_39">
<path id="Vector_107" d="M141.697 41.097C142.934 35.9321 139.749 30.743 134.584 29.5068C129.419 28.2707 124.23 31.4555 122.994 36.6204C121.757 41.7853 124.942 46.9744 130.107 48.2106C135.272 49.4467 140.461 46.2619 141.697 41.097Z" fill="#0CB0A6"/>
<path id="Vector_108" d="M131.456 43.7984C131.277 43.7984 131.11 43.7152 131.002 43.5744L127.709 39.312C127.514 39.0592 127.562 38.6976 127.811 38.5056C128.064 38.3104 128.426 38.3584 128.618 38.608L131.402 42.2112L135.613 35.3664C135.779 35.0944 136.134 35.0112 136.406 35.1776C136.678 35.344 136.762 35.6992 136.595 35.9712L131.946 43.5264C131.846 43.6864 131.674 43.7888 131.485 43.7984C131.475 43.7984 131.466 43.7984 131.453 43.7984H131.456Z" fill="white"/>
</g>
<g id="Group_40">
<path id="Vector_109" d="M104.804 91.8529C110.114 91.8529 114.42 87.5476 114.42 82.2368C114.42 76.9261 110.114 72.6208 104.804 72.6208C99.4927 72.6208 95.1875 76.9261 95.1875 82.2368C95.1875 87.5476 99.4927 91.8529 104.804 91.8529Z" fill="#0CB0A6"/>
<g id="Group_41">
<path id="Vector_110" d="M108.4 86.4097C108.253 86.4097 108.106 86.3521 107.994 86.2401L100.797 79.0433C100.573 78.8193 100.573 78.4545 100.797 78.2305C101.021 78.0065 101.386 78.0065 101.61 78.2305L108.807 85.4273C109.031 85.6513 109.031 86.0161 108.807 86.2401C108.695 86.3521 108.547 86.4097 108.4 86.4097Z" fill="white"/>
<path id="Vector_111" d="M101.203 86.4097C101.056 86.4097 100.909 86.3521 100.797 86.2401C100.573 86.0161 100.573 85.6513 100.797 85.4273L107.994 78.2305C108.218 78.0065 108.583 78.0065 108.807 78.2305C109.031 78.4545 109.031 78.8193 108.807 79.0433L101.61 86.2401C101.498 86.3521 101.351 86.4097 101.203 86.4097Z" fill="white"/>
</g>
</g>
</g>
<g id="Group_42">
<g id="43 search">
<path id="Vector_112" d="M102.474 127.574L105.75 123.165L118.429 132.589L115.152 136.998L102.474 127.574Z" fill="#111111"/>
<path id="Vector_113" d="M129.482 144.224C127.943 146.294 125.018 146.726 122.947 145.187L108.762 134.643C107.991 134.07 107.831 132.979 108.403 132.208L111.901 127.504C112.474 126.733 113.565 126.573 114.336 127.146L128.522 137.69C130.592 139.229 131.024 142.154 129.485 144.224H129.482Z" fill="#0CB0A6"/>
<g id="Group_43" opacity="0.43">
<path id="Vector_114" d="M101.678 126.266C107.504 120.44 107.504 110.994 101.678 105.168C95.852 99.3423 86.4061 99.3423 80.5802 105.168C74.7542 110.994 74.7542 120.44 80.5802 126.266C86.4061 132.092 95.852 132.092 101.678 126.266Z" fill="#E9F5F9"/>
</g>
<path id="Vector_115" d="M72.5509 118.448C74.0613 128.707 83.6037 135.798 93.8629 134.288C104.122 132.778 111.213 123.235 109.703 112.976C108.193 102.717 98.6501 95.6256 88.3909 97.136C78.1317 98.6464 71.0405 108.189 72.5509 118.448ZM105.885 113.539C107.085 121.69 101.45 129.27 93.2997 130.47C85.1493 131.67 77.5685 126.035 76.3685 117.885C75.1685 109.734 80.8037 102.154 88.9541 100.954C97.1045 99.7536 104.685 105.389 105.885 113.539Z" fill="#111111"/>
</g>
<g id="Group_44">
<g id="Group_45">
<g id="Group_46">
<path id="Vector_116" d="M147.591 143.795L174.375 137.949C174.784 137.859 174.916 137.478 174.666 137.097L153.348 104.157C153.098 103.766 152.58 103.504 152.189 103.571L126.72 107.952C126.33 108.019 126.202 108.403 126.439 108.813L146.423 143.238C146.656 143.638 147.181 143.888 147.591 143.798V143.795Z" fill="white"/>
<path id="Vector_117" d="M128.573 112.518L126.311 108.589C126.148 108.304 126.311 108.019 126.676 107.958L152.234 103.562C152.599 103.498 153.037 103.67 153.21 103.946L155.623 107.712L128.57 112.518H128.573Z" fill="#479CFF"/>
<path id="Vector_118" d="M147.421 144.211C146.906 144.211 146.352 143.904 146.08 143.437L126.096 109.008C125.904 108.675 125.872 108.32 126.007 108.032C126.125 107.779 126.362 107.606 126.653 107.555L152.122 103.174C152.675 103.078 153.344 103.408 153.683 103.939L175.002 136.88C175.2 137.181 175.248 137.52 175.13 137.808C175.021 138.077 174.778 138.269 174.464 138.336L147.68 144.182C147.597 144.201 147.511 144.208 147.424 144.208L147.421 144.211ZM152.317 103.955C152.295 103.955 152.275 103.955 152.256 103.958L126.791 108.339C126.791 108.339 126.736 108.352 126.727 108.368C126.711 108.4 126.714 108.489 126.784 108.608L146.768 143.033C146.912 143.28 147.264 143.459 147.507 143.405L174.291 137.558C174.343 137.545 174.381 137.526 174.391 137.504C174.4 137.481 174.4 137.414 174.333 137.312L153.015 104.368C152.851 104.115 152.531 103.952 152.317 103.952V103.955Z" fill="#111111"/>
</g>
<g id="Group_47" opacity="0.3">
<path id="Vector_119" d="M147.04 124.077L153.568 122.803C153.901 122.739 154.006 122.419 153.805 122.093C153.6 121.766 153.165 121.552 152.832 121.616L146.313 122.877C145.981 122.941 145.872 123.264 146.07 123.597C146.272 123.93 146.704 124.144 147.04 124.08V124.077Z" fill="#111111"/>
<path id="Vector_120" d="M152.589 125.6L162.807 123.577C162.967 123.545 163.018 123.395 162.919 123.238C162.819 123.081 162.608 122.982 162.445 123.014L152.234 125.027C152.074 125.059 152.019 125.213 152.119 125.373C152.215 125.533 152.426 125.635 152.589 125.603V125.6Z" fill="#111111"/>
<path id="Vector_121" d="M153.552 127.162L163.792 125.114C163.955 125.082 164.003 124.928 163.904 124.774C163.805 124.618 163.591 124.518 163.431 124.55L153.197 126.589C153.034 126.621 152.983 126.774 153.082 126.934C153.178 127.091 153.389 127.194 153.552 127.162Z" fill="#111111"/>
<path id="Vector_122" d="M154.515 128.726L164.781 126.653C164.944 126.621 164.992 126.467 164.893 126.313C164.794 126.157 164.579 126.057 164.419 126.089L154.163 128.153C154 128.185 153.949 128.342 154.045 128.499C154.141 128.656 154.352 128.758 154.515 128.726Z" fill="#111111"/>
<path id="Vector_123" d="M155.482 130.285L165.77 128.186C165.933 128.154 165.984 128 165.882 127.843C165.782 127.686 165.568 127.59 165.408 127.622L155.13 129.712C154.966 129.744 154.915 129.901 155.011 130.058C155.107 130.214 155.318 130.317 155.482 130.285Z" fill="#111111"/>
<path id="Vector_124" d="M156.445 131.846L166.755 129.722C166.919 129.69 166.97 129.536 166.871 129.379C166.771 129.226 166.557 129.126 166.394 129.158L156.093 131.274C155.93 131.306 155.879 131.462 155.975 131.619C156.071 131.776 156.282 131.878 156.445 131.843V131.846Z" fill="#111111"/>
<path id="Vector_125" d="M157.408 133.405L167.741 131.254C167.904 131.219 167.955 131.069 167.856 130.912C167.757 130.758 167.543 130.659 167.379 130.691L157.056 132.832C156.893 132.867 156.839 133.021 156.938 133.177C157.034 133.334 157.248 133.437 157.411 133.401L157.408 133.405Z" fill="#111111"/>
<path id="Vector_126" d="M158.371 134.96L168.727 132.781C168.89 132.746 168.941 132.592 168.842 132.438C168.743 132.285 168.528 132.186 168.365 132.221L158.016 134.387C157.853 134.422 157.799 134.576 157.898 134.736C157.994 134.893 158.208 134.992 158.371 134.96Z" fill="#111111"/>
<path id="Vector_127" d="M159.338 136.515L169.715 134.31C169.878 134.275 169.93 134.121 169.83 133.968C169.731 133.814 169.517 133.715 169.354 133.75L158.982 135.945C158.819 135.981 158.765 136.137 158.861 136.294C158.957 136.451 159.171 136.55 159.334 136.515H159.338Z" fill="#111111"/>
<path id="Vector_128" d="M140.547 127.99L150.775 125.958C150.935 125.926 150.989 125.773 150.89 125.613C150.794 125.453 150.583 125.35 150.423 125.382L140.205 127.405C140.045 127.437 139.991 127.594 140.083 127.757C140.179 127.917 140.387 128.022 140.547 127.99Z" fill="#111111"/>
<path id="Vector_129" d="M141.485 129.584L151.735 127.526C151.898 127.494 151.949 127.337 151.853 127.181C151.757 127.021 151.546 126.918 151.383 126.953L141.143 129.001C140.979 129.033 140.925 129.19 141.021 129.353C141.117 129.513 141.325 129.619 141.485 129.587V129.584Z" fill="#111111"/>
<path id="Vector_130" d="M142.423 131.178L152.695 129.094C152.858 129.062 152.909 128.906 152.813 128.749C152.717 128.589 152.506 128.49 152.343 128.522L142.08 130.595C141.917 130.627 141.863 130.784 141.959 130.947C142.055 131.107 142.263 131.213 142.426 131.181L142.423 131.178Z" fill="#111111"/>
<path id="Vector_131" d="M143.36 132.768L153.655 130.659C153.818 130.627 153.869 130.47 153.773 130.314C153.677 130.157 153.466 130.054 153.303 130.086L143.015 132.186C142.852 132.218 142.797 132.378 142.893 132.538C142.989 132.698 143.197 132.803 143.36 132.768Z" fill="#111111"/>
<path id="Vector_132" d="M144.298 134.358L154.615 132.224C154.778 132.189 154.832 132.035 154.733 131.875C154.637 131.718 154.426 131.616 154.263 131.648L143.952 133.773C143.789 133.808 143.735 133.965 143.827 134.125C143.923 134.285 144.131 134.39 144.295 134.355L144.298 134.358Z" fill="#111111"/>
<path id="Vector_133" d="M145.232 135.946L155.574 133.786C155.738 133.75 155.792 133.597 155.693 133.437C155.597 133.28 155.386 133.178 155.222 133.213L144.89 135.363C144.726 135.398 144.672 135.555 144.765 135.715C144.861 135.875 145.069 135.978 145.232 135.946Z" fill="#111111"/>
<path id="Vector_134" d="M146.17 137.533L156.535 135.347C156.698 135.312 156.752 135.155 156.656 134.998C156.56 134.841 156.349 134.739 156.183 134.774L145.828 136.95C145.664 136.985 145.607 137.142 145.703 137.302C145.799 137.462 146.007 137.565 146.17 137.529V137.533Z" fill="#111111"/>
<path id="Vector_135" d="M150.355 138.425L157.495 136.905C157.658 136.87 157.712 136.713 157.616 136.557C157.52 136.4 157.306 136.301 157.143 136.333L150.01 137.846C149.847 137.881 149.789 138.038 149.885 138.198C149.981 138.358 150.192 138.457 150.355 138.425Z" fill="#111111"/>
</g>
<path id="Vector_136" d="M138.554 109.081L143.844 108.153C144.071 108.112 144.141 107.894 144 107.661C143.86 107.43 143.559 107.273 143.328 107.315L138.045 108.237C137.818 108.275 137.744 108.499 137.885 108.733C138.026 108.966 138.324 109.123 138.554 109.081Z" fill="#111111"/>
<g id="Group_48" opacity="0.3">
<path id="Vector_137" d="M142.416 116.963C143.578 118.893 146.083 120.157 148.01 119.789C149.936 119.421 150.541 117.581 149.36 115.674C148.179 113.763 145.677 112.493 143.77 112.838C141.862 113.184 141.258 115.03 142.419 116.963H142.416Z" fill="#111111"/>
</g>
</g>
<path id="Vector_138" d="M130.099 149.984C130.099 149.984 119.315 144.138 118.48 143.894C118.016 143.76 108.97 138.019 110.845 137.027C111.85 136.496 114.666 139.286 116.602 139.581C117.581 139.731 118.467 138.982 118.688 138.838C119.901 138.054 117.584 135.402 118.176 134.397C118.768 133.392 119.642 134.045 119.888 134.509C120.874 136.374 125.578 141.568 126.758 142.019C128.019 142.502 134.118 144.88 134.118 144.88L130.099 149.978V149.984Z" fill="#EFC6BA"/>
<path id="Vector_139" d="M172.678 126.173C172.678 126.173 165.29 116.381 164.925 115.593C164.723 115.155 157.696 107.069 156.995 109.069C156.618 110.144 159.798 112.512 160.381 114.381C160.675 115.328 160.067 116.317 159.958 116.553C159.366 117.869 156.397 115.974 155.491 116.707C154.586 117.44 155.36 118.208 155.859 118.384C157.853 119.078 163.686 122.957 164.31 124.054C164.976 125.229 168.24 130.905 168.24 130.905L172.682 126.169L172.678 126.173Z" fill="#EFC6BA"/>
<path id="Vector_140" d="M134.771 130.861C134.771 130.861 134.784 130.858 134.79 130.861C134.707 130.899 134.694 130.902 134.771 130.861Z" fill="#363957"/>
<path id="Vector_141" d="M169.178 162.077C169.002 160.762 171.078 138.755 171.078 138.755C171.078 138.755 169.478 153.136 159.072 155.984C147.027 159.28 124.666 148.611 124.666 148.611C124.666 148.611 128.141 141.533 128.902 141.28C129.568 141.059 154.605 141.462 154.605 141.462C155.658 139.094 162.662 123.664 163.981 118.534C168.848 99.5999 183.626 98.8927 183.626 98.8927C183.626 98.8927 203.83 97.5679 212.17 101.539C220.675 105.59 218.016 131.296 218.016 131.296C218.016 131.296 215.19 151.725 214.605 160.813L169.174 162.08L169.178 162.077Z" fill="#479CFF"/>
<path id="Vector_142" d="M216.519 144.941C216.519 144.941 216.499 144.941 216.49 144.941C216.279 144.925 216.122 144.742 216.138 144.531L217.287 129.421C217.303 129.209 217.482 129.056 217.696 129.069C217.907 129.085 218.064 129.267 218.048 129.478L216.899 144.589C216.883 144.79 216.717 144.941 216.519 144.941Z" fill="#111111"/>
</g>
<g id="Group_49">
<path id="Vector_143" d="M172.733 63.072C172.733 63.072 168.557 75.2608 169.338 82.7008C170.074 89.728 174.807 94.3168 181.092 94.32L180.599 99.6672C180.599 99.6672 190.871 101.338 199.002 98.9472L199.127 87.8112L199.053 64.2432L196.042 59.5872L180.359 57.2736C177.29 56.8192 174.327 58.6016 173.287 61.5232L172.736 63.0688L172.733 63.072Z" fill="#EFC6BA"/>
<path id="Vector_144" d="M176.57 72.4703C176.407 73.1263 175.741 73.5231 175.085 73.3599C174.429 73.1967 174.033 72.5311 174.196 71.8751C174.359 71.2191 175.025 70.8223 175.681 70.9855C176.337 71.1487 176.733 71.8143 176.57 72.4703Z" fill="#111111"/>
<path id="Vector_145" d="M171.591 79.9488C171.568 79.9488 171.546 79.9488 171.524 79.9488C170.672 79.936 169.853 79.6832 169.22 79.2384C169.047 79.1168 169.005 78.88 169.127 78.7072C169.248 78.5344 169.485 78.4928 169.658 78.6144C170.17 78.9728 170.836 79.1776 171.536 79.1872C172.18 79.1968 172.794 79.0464 173.3 78.7488C173.482 78.6432 173.716 78.704 173.821 78.8864C173.927 79.0688 173.866 79.3024 173.684 79.408C173.076 79.7632 172.352 79.952 171.591 79.952V79.9488Z" fill="#111111"/>
<path id="Vector_146" d="M174.173 67.4656C175.066 66.9024 177.168 67.7696 177.741 68.1632C177.741 68.1632 178.093 68.8416 177.504 69.3664C176.816 69.9776 174.852 69.2096 174.106 69.0336C174.045 69.0176 173.981 69.0048 173.936 68.9632C173.879 68.912 173.86 68.8352 173.84 68.7616C173.776 68.4832 173.738 68.1856 173.828 67.9136C173.895 67.712 174.013 67.568 174.173 67.4688V67.4656Z" fill="#111111"/>
<path id="Vector_147" d="M189.315 66.6207C189.315 66.5759 190.131 66.9663 182.672 65.4079C181.987 65.2639 181.578 61.7951 181.578 61.7951C181.578 61.7951 179.437 64.7359 178.861 64.6175C175.687 63.9647 173.21 63.4687 172.509 63.3599C172.4 63.3439 176.192 46.2495 197.866 51.4079C209.594 54.1983 214.186 64.7967 213.568 76.5887C213.299 81.6959 214.144 87.3471 214.771 93.9135C214.915 95.4207 214.65 99.1039 214.442 100.88C214.442 100.88 214.423 113.315 208.695 114.038C203.357 114.71 186.013 114.269 183.155 110.39C177.914 103.277 189.207 68.7231 189.315 66.6207Z" fill="#111111"/>
<g id="Group_50">
<path id="Vector_148" d="M187.149 73.4431C189.351 73.1775 193.495 72.7775 194.909 74.7519C196.109 76.4255 195.485 78.8127 193.684 79.9199C190.743 81.7311 186.138 81.5327 184.746 81.5615" fill="#EFC6BA"/>
<path id="Vector_149" d="M192.979 77.0207C192.899 77.0207 192.816 76.9951 192.746 76.9407C191.491 75.9647 190.359 76.1695 190.349 76.1727C190.141 76.2111 189.943 76.0767 189.901 75.8687C189.863 75.6607 189.997 75.4623 190.205 75.4207C190.266 75.4079 191.69 75.1519 193.213 76.3359C193.379 76.4639 193.408 76.7039 193.28 76.8703C193.203 76.9663 193.091 77.0175 192.979 77.0175V77.0207Z" fill="#111111"/>
<path id="Vector_150" d="M190.506 78.3967C190.394 78.3967 190.285 78.3487 190.209 78.2559C190.077 78.0927 190.1 77.8526 190.263 77.7182C190.276 77.7086 190.855 77.2287 191.617 76.2047C191.741 76.0351 191.981 75.9999 192.151 76.1247C192.321 76.2495 192.356 76.4895 192.231 76.6591C191.405 77.7759 190.772 78.291 190.746 78.3134C190.676 78.371 190.589 78.3999 190.506 78.3999V78.3967Z" fill="#111111"/>
</g>
<path id="Vector_151" d="M203.378 52.9447C206.492 49.8305 206.492 44.7814 203.378 41.6672C200.263 38.553 195.214 38.553 192.1 41.6672C188.986 44.7814 188.986 49.8305 192.1 52.9447C195.214 56.0589 200.263 56.0589 203.378 52.9447Z" fill="#111111"/>
<path id="Vector_152" d="M189.863 51.7471L202.221 55.0527C203.213 55.3183 204.231 54.7295 204.493 53.7375C204.759 52.7455 204.17 51.7279 203.178 51.4623L190.82 48.1567C189.828 47.8911 188.81 48.4799 188.545 49.4719C188.279 50.4639 188.868 51.4815 189.86 51.7439L189.863 51.7471Z" fill="#479CFF"/>
<path id="Vector_153" d="M170.445 71.8975C170.445 71.8975 168.247 73.7919 168.778 74.8543C169.309 75.9167 171.13 75.7631 171.13 75.7631L170.449 71.8975H170.445Z" fill="#EFC6BA"/>
</g>
<path id="Vector_154" d="M169.741 155.913C169.741 155.913 169.718 155.913 169.709 155.913C169.498 155.897 169.344 155.712 169.36 155.501C169.795 150.259 170.678 133.782 170.685 133.616C170.694 133.405 170.88 133.238 171.085 133.254C171.296 133.267 171.456 133.446 171.446 133.654C171.437 133.821 170.557 150.307 170.118 155.561C170.102 155.76 169.936 155.91 169.738 155.91L169.741 155.913Z" fill="#111111"/>
</g>
</g>
<defs>
<clipPath id="clip0_1762_3578">
<rect width="220.16" height="160" fill="white"/>
</clipPath>
</defs>
</svg>
