<svg width="103" height="160" viewBox="0 0 103 160" fill="none" xmlns="http://www.w3.org/2000/svg">
<g id="Image">
<g id="Mop">
<g id="Group">
<g id="Group_2">
<path id="Vector" d="M35.306 92.8607H40.0073L40.0073 24.618H35.306L35.306 92.8607Z" fill="#8CA1A6"/>
<path id="Vector_2" d="M29.2836 25.113L46.0298 25.113V17.5518H29.2836V25.113Z" fill="#8CA1A6"/>
</g>
<g id="Group_3">
<path id="Vector_3" d="M4.93652 11.4946V16.0094C4.93652 17.8375 6.41793 19.3189 8.24607 19.3189H67.9339C69.7621 19.3189 71.2435 17.8375 71.2435 16.0094V11.5197L4.93772 11.4528C4.93772 11.4671 4.93772 11.4803 4.93772 11.4946H4.93652Z" fill="#0CB0A6"/>
<path id="Vector_4" d="M71.2425 11.5197V11.4934C71.2425 9.66524 69.7611 8.18384 67.933 8.18384H8.24634C6.43255 8.18503 4.96071 9.64372 4.93799 11.4527L71.2425 11.5197Z" fill="#111111"/>
</g>
<path id="Vector_5" d="M38.8947 22.4179C39.0056 21.7348 38.5417 21.0911 37.8586 20.9802C37.1755 20.8694 36.5319 21.3332 36.421 22.0163C36.3101 22.6994 36.774 23.3431 37.4571 23.4539C38.1402 23.5648 38.7838 23.101 38.8947 22.4179Z" fill="#111111"/>
</g>
<path id="Vector_6" d="M40.0074 25.4059H35.3061C35.1447 25.4059 35.0132 25.2744 35.0132 25.113C35.0132 24.9516 35.1447 24.8201 35.3061 24.8201H40.0074C40.1688 24.8201 40.3003 24.9516 40.3003 25.113C40.3003 25.2744 40.1688 25.4059 40.0074 25.4059Z" fill="#111111"/>
<path id="Vector_7" d="M46.0299 19.6119H35.1806C35.0192 19.6119 34.8877 19.4803 34.8877 19.3189C34.8877 19.1575 35.0192 19.026 35.1806 19.026H46.0299C46.1913 19.026 46.3229 19.1575 46.3229 19.3189C46.3229 19.4803 46.1913 19.6119 46.0299 19.6119Z" fill="#111111"/>
<path id="Vector_8" d="M35.6481 19.6119H29.2837C29.1222 19.6119 28.9907 19.4803 28.9907 19.3189C28.9907 19.1575 29.1222 19.026 29.2837 19.026H35.6481C35.8095 19.026 35.941 19.1575 35.941 19.3189C35.941 19.4803 35.8095 19.6119 35.6481 19.6119Z" fill="#111111"/>
<path id="Vector_9" d="M40.0073 68.5114C39.8459 68.5114 39.7144 68.3799 39.7144 68.2185V38.7817C39.7144 38.6203 39.8459 38.4888 40.0073 38.4888C40.1687 38.4888 40.3002 38.6203 40.3002 38.7817V68.2185C40.3002 68.3799 40.1687 68.5114 40.0073 68.5114Z" fill="#111111"/>
<path id="Vector_10" d="M40.0073 39.0746C39.8459 39.0746 39.7144 38.9431 39.7144 38.7816V34.0493C39.7144 33.8879 39.8459 33.7563 40.0073 33.7563C40.1687 33.7563 40.3002 33.8879 40.3002 34.0493V38.7816C40.3002 38.9431 40.1687 39.0746 40.0073 39.0746Z" fill="#111111"/>
<path id="Vector_11" d="M40.0073 34.3434C39.8459 34.3434 39.7144 34.2119 39.7144 34.0505V25.113C39.7144 24.9516 39.8459 24.8201 40.0073 24.8201C40.1687 24.8201 40.3002 24.9516 40.3002 25.113V34.0505C40.3002 34.2119 40.1687 34.3434 40.0073 34.3434Z" fill="#111111"/>
<path id="Vector_12" d="M35.1816 68.5114C35.0202 68.5114 34.8887 68.3798 34.8887 68.2184V25.113C34.8887 24.9516 35.0202 24.8201 35.1816 24.8201C35.343 24.8201 35.4745 24.9516 35.4745 25.113V68.2184C35.4745 68.3798 35.343 68.5114 35.1816 68.5114Z" fill="#111111"/>
<path id="Vector_13" d="M54.9542 11.7767L4.93795 11.7457C4.77654 11.7457 4.64502 11.6141 4.64502 11.4527C4.64502 11.2913 4.77654 11.1598 4.93795 11.1598L54.9542 11.1909C55.1156 11.1909 55.2471 11.3224 55.2471 11.4838C55.2471 11.6452 55.1156 11.7767 54.9542 11.7767Z" fill="#111111"/>
<path id="Vector_14" d="M61.694 11.7816L55.1347 11.778C54.9733 11.778 54.8418 11.6465 54.8418 11.4851C54.8418 11.3237 54.9733 11.1921 55.1347 11.1921L61.694 11.1957C61.8555 11.1957 61.987 11.3272 61.987 11.4887C61.987 11.6501 61.8555 11.7816 61.694 11.7816Z" fill="#111111"/>
<path id="Vector_15" d="M63.9397 11.7827H61.6943C61.5329 11.7815 61.4014 11.65 61.4014 11.4886C61.4014 11.3272 61.5329 11.1957 61.6943 11.1957H63.9397C64.1011 11.1969 64.2327 11.3284 64.2327 11.4898C64.2327 11.6512 64.1011 11.7827 63.9397 11.7827Z" fill="#111111"/>
<path id="Vector_16" d="M71.2424 11.7875L63.9394 11.7828C63.778 11.7828 63.6465 11.6512 63.6465 11.4898C63.6465 11.3284 63.778 11.1969 63.9394 11.1969L71.2424 11.2017C71.4038 11.2017 71.5354 11.3332 71.5354 11.4946C71.5354 11.656 71.4038 11.7875 71.2424 11.7875Z" fill="#111111"/>
</g>
<g id="Group_4">
<g id="Group_5">
<path id="Vector_17" d="M72.5575 36.4429H63.6069V39.8433H72.5575V36.4429Z" fill="#111111"/>
<path id="Vector_18" d="M72.7439 32.6611C72.7272 32.6587 72.7081 32.6575 72.6913 32.6551C71.6105 32.5272 70.0669 32.4076 68.0809 32.4076C66.2707 32.4076 64.6028 32.5535 63.4167 32.6945C62.392 32.8165 61.6328 33.5733 61.6328 34.4677V37.9889C61.6328 38.4277 62.0441 38.7828 62.5523 38.7828H73.612C74.1189 38.7828 74.5314 38.4277 74.5314 37.9889V34.4366C74.5314 33.5411 73.771 32.7854 72.7451 32.6635L72.7439 32.6611Z" fill="#0CB0A6"/>
<path id="Vector_19" d="M80.6258 58.6282V47.9391H54.9541V47.9965V58.627C54.9541 59.1841 55.3152 59.6708 55.8556 59.9494H79.7255C80.2659 59.6708 80.627 59.1841 80.627 58.627L80.6258 58.6282Z" fill="#479CFF"/>
<path id="Vector_20" d="M82.0188 75.5071L81.977 72.2812C81.971 71.8699 81.8359 71.4777 81.6195 71.1143L54.4711 71.4706C54.2643 71.84 54.1388 72.2358 54.1447 72.6459L54.1866 75.8717C54.1914 76.2555 54.58 76.5616 55.0534 76.5544L81.1699 76.2113C81.6434 76.2053 82.0236 75.8897 82.0188 75.5059V75.5071Z" fill="#4A92F0"/>
<path id="Vector_21" d="M82.2052 100.121L54.6468 100.483C54.0155 100.491 53.5085 100.912 53.5157 101.424L53.6042 108.189C53.6209 109.457 60.3082 109.811 68.5498 109.703C76.7913 109.594 83.4666 109.065 83.4499 107.797L83.3614 101.032C83.3542 100.52 82.8377 100.112 82.2052 100.121Z" fill="#69AAFF"/>
<path id="Vector_22" d="M81.1709 76.2125L55.0532 76.5557L81.2474 77.6533L81.1709 76.2125Z" fill="#3C76C2"/>
<path id="Vector_23" d="M79.7244 59.9504H55.8545L79.154 61.4892L79.2676 61.1258C79.5092 60.3952 79.7268 59.9504 79.7268 59.9504H79.7244Z" fill="#111111"/>
<g id="Group_6">
<path id="Vector_24" d="M81.3658 71.2948C81.2367 71.0712 81.0848 70.856 80.8923 70.6611C77.737 67.446 78.5955 63.1644 79.2686 61.127L74.5506 60.8902L55.8555 59.9517H55.8531C55.8531 59.9517 58.9737 66.2946 54.6873 70.6623C54.4948 70.8583 54.343 71.0736 54.2139 71.296H81.3646L81.3658 71.2948Z" fill="#111111"/>
<path id="Vector_25" d="M80.6258 47.939V46.8497C80.6258 43.8355 78.2752 41.2661 74.9776 40.2773C74.0414 39.9963 73.0299 39.8433 71.9741 39.8433H63.607C58.828 39.8433 54.9541 42.9806 54.9541 46.8497V47.939H75.5348H80.6246H80.6258Z" fill="#111111"/>
<path id="Vector_26" d="M82.2051 100.121L81.2247 77.463L69.6042 77.0601C69.352 77.5814 69.0925 78.0991 68.8247 78.6109C69.0925 78.0979 69.352 77.5814 69.6042 77.0601L55.0532 76.5555L54.7292 95.5819L54.6455 100.483L82.204 100.121H82.2051ZM66.8985 81.9969C66.7885 82.1763 66.6761 82.3532 66.5637 82.5314C66.6761 82.3544 66.7873 82.1763 66.8985 81.9969ZM64.6339 85.3651C64.4606 85.6018 64.286 85.8373 64.109 86.0717C64.286 85.8373 64.4618 85.6018 64.6339 85.3651ZM61.8839 88.8109C62.3682 88.2549 62.8393 87.6906 63.2972 87.1155C62.8393 87.6894 62.3682 88.2549 61.8839 88.8109Z" fill="#4F9BFF"/>
</g>
</g>
<path id="Vector_27" d="M72.5575 39.0745H63.6069C63.4455 39.0745 63.314 38.943 63.314 38.7816C63.314 38.6202 63.4455 38.4886 63.6069 38.4886H72.5575C72.7189 38.4886 72.8504 38.6202 72.8504 38.7816C72.8504 38.943 72.7189 39.0745 72.5575 39.0745Z" fill="#111111"/>
</g>
<g id="Bucket">
<path id="Vector_28" d="M77.772 79.3666C76.7414 82.6929 75.5314 85.9414 74.1492 89.0955C75.5314 85.9426 76.7414 82.6929 77.772 79.3666H17.4302C18.5051 89.5152 21.4117 116.31 23.9847 134.314C24.5562 138.308 25.1098 141.87 25.6251 144.722C26.278 148.34 29.1475 150.953 32.4965 150.962C42.6559 150.988 64.3736 151.02 74.3632 151.034C77.5413 151.038 80.3295 148.694 81.1497 145.311C81.6053 143.436 82.0692 141.291 82.4052 139.181C85.2137 121.539 87.7282 90.4753 88.5771 79.3666H77.772ZM43.1318 125.865C40.4679 127.539 37.737 129.017 34.9524 130.301C37.737 129.016 40.4691 127.539 43.1318 125.865ZM69.9597 97.4424C70.267 96.9031 70.5683 96.3615 70.8636 95.8151C71.3813 94.8609 71.8799 93.8949 72.3641 92.9192C71.8811 93.8949 71.3813 94.8609 70.8636 95.8151C70.5671 96.3615 70.2658 96.9031 69.9597 97.4424Z" fill="#111111"/>
<path id="Vector_29" d="M94.9964 68.2184H12.1943V83.9459H94.9964V68.2184Z" fill="#479CFF"/>
<path id="Vector_30" d="M67.4952 84.2388H17.9189C17.7575 84.2388 17.626 84.1073 17.626 83.9459C17.626 83.7845 17.7575 83.653 17.9189 83.653H67.494C67.6554 83.653 67.7869 83.7845 67.7869 83.9459C67.7869 84.1073 67.6554 84.2388 67.494 84.2388H67.4952Z" fill="#111111"/>
<path id="Vector_31" d="M92.9099 69.6101C92.2355 71.3019 90.8832 69.6041 87.9946 70.9994C87.8116 71.0879 87.6203 71.1752 87.429 71.2613C80.1954 74.5553 67.4582 76.7445 52.9418 76.7445C38.4255 76.7445 25.6883 74.5553 18.4546 71.2613C18.2633 71.174 18.0732 71.0879 17.8891 70.9994C14.5891 69.4056 14.8736 74.0794 14.5126 72.115L13.3062 71.1405L13.9685 76.7445C13.9685 79.7743 17.7599 82.3509 23.9845 84.2388V89.4207C23.9845 91.3206 25.5221 92.8594 27.4196 92.8594C29.317 92.8594 30.8546 91.3194 30.8546 89.4207L30.9969 82.5673C37.2753 83.7211 44.7325 81.2688 52.9346 81.2688C74.4587 81.2688 91.9139 83.2476 91.9139 76.7445L93.2363 71.5112L92.9099 69.6089V69.6101Z" fill="#479CFF"/>
<path id="Vector_32" d="M90.3416 79.9932C89.9112 80.4176 89.3983 80.8289 88.8052 81.2247C91.5456 90.4634 91.8266 98.87 89.5931 105.59C87.502 111.883 83.3686 116.447 77.6403 118.789C64.1952 124.287 43.8812 116.619 29.9627 91.7272C29.3828 90.6906 28.8137 89.6289 28.2577 88.5325C28.0293 88.0829 27.4793 87.9036 27.031 88.1319C26.5814 88.3603 26.4021 88.9103 26.6304 89.3598C27.2139 90.5089 27.8105 91.6256 28.4203 92.7112C39.8818 113.148 55.6631 122.292 68.777 122.292C72.181 122.292 75.408 121.676 78.3302 120.48C84.4782 117.967 89.0922 112.883 91.3244 106.166C93.7337 98.9155 93.3893 89.8704 90.3416 79.9932Z" fill="#111111"/>
<path id="Vector_33" d="M27.5846 90.8782C28.7006 90.8782 29.6052 89.9725 29.6052 88.8552C29.6052 87.7379 28.7006 86.8322 27.5846 86.8322C26.4686 86.8322 25.564 87.7379 25.564 88.8552C25.564 89.9725 26.4686 90.8782 27.5846 90.8782Z" fill="#111111"/>
</g>
<g id="Rag">
<path id="Vector_34" d="M71.8187 93.3533C70.9459 93.5793 70.5143 94.1113 70.4497 94.6673L70.7128 95.6203C71.0356 96.0626 71.6346 96.3902 72.4692 96.3902H94.9975L92.2081 88.0721L71.8199 93.3533H71.8187Z" fill="#6B848A"/>
<path id="Vector_35" d="M88.4143 66.3556C88.2481 65.8307 87.9421 65.3799 87.5439 65.038C87.0429 64.6076 86.4009 64.3947 85.7481 64.3888C85.54 64.3864 85.332 64.4043 85.1251 64.445L66.8784 67.9637C64.9725 67.9637 63.5903 69.7811 64.0973 71.62L69.6571 91.7989L70.4474 94.6685C70.5119 94.1125 70.9436 93.5805 71.8164 93.3545L97.0637 86.8155L88.4131 66.3568L88.4143 66.3556Z" fill="#8CA1A6"/>
<path id="Vector_36" d="M70.4488 94.9603C70.2957 94.9603 70.1666 94.8407 70.157 94.6864C70.065 93.2636 72.8329 92.7519 73.2155 92.6885L90.4089 88.2347C90.5655 88.1953 90.7257 88.2886 90.7664 88.4452C90.807 88.6018 90.7126 88.762 90.556 88.8027L73.3494 93.2589C73.341 93.2612 73.3315 93.2624 73.3231 93.2648C72.461 93.4059 70.6951 93.9308 70.7417 94.6482C70.7525 94.8096 70.6293 94.9495 70.4679 94.9591C70.4619 94.9591 70.4547 94.9591 70.4488 94.9591V94.9603Z" fill="#111111"/>
<path id="Vector_37" d="M90.4818 88.8122C90.3514 88.8122 90.2331 88.7249 90.1984 88.5922C90.1578 88.4355 90.2522 88.2753 90.4088 88.2347L96.9921 86.5297C97.1487 86.4902 97.3089 86.5835 97.3496 86.7401C97.3902 86.8967 97.2958 87.0569 97.1391 87.0976L90.5559 88.8026C90.5308 88.8086 90.5069 88.8122 90.4818 88.8122Z" fill="#111111"/>
</g>
<g id="Mitten">
<path id="Vector_38" d="M67.0041 66.5995C66.6645 66.5182 66.2927 66.4979 65.9483 66.4931C61.6954 66.4262 57.4425 66.3592 53.1896 66.2922C52.4961 66.2815 51.7632 66.2803 51.1618 66.6246C50.1407 67.2105 49.8741 68.5305 49.2774 69.5444C48.5995 70.6958 47.4565 71.4825 46.5346 72.451C44.8344 74.2385 43.7296 76.4744 42.4563 78.562C41.813 79.6165 41.1255 80.6532 40.2945 81.5714C39.5975 82.3402 38.1735 83.1329 38.0945 84.2748C38.0515 84.9037 38.519 85.4943 39.1085 85.7179C39.6979 85.9403 40.3699 85.8446 40.945 85.5876C41.5201 85.3305 42.0151 84.9264 42.4945 84.5175C43.4068 83.7403 44.4028 83.066 45.4047 82.4084C45.504 82.3426 45.6164 82.2756 45.7347 82.2936C46.0097 82.3366 46.0037 82.7336 45.9236 83.0002C44.2844 88.4105 42.6464 93.822 41.0071 99.2323C40.8649 99.701 40.7214 100.185 40.7728 100.673C40.8481 101.389 41.3838 102.035 42.0737 102.242C42.7635 102.449 43.5658 102.205 44.0226 101.649C44.331 101.273 44.4793 100.794 44.6192 100.329C45.5685 97.1746 46.5167 94.0205 47.466 90.8664C47.5677 90.5268 47.8809 90.1023 48.1738 90.3008C48.3723 90.4359 48.3245 90.7372 48.254 90.9668C47.1468 94.5741 46.0384 98.1825 44.9313 101.79C44.7005 102.539 44.4685 103.318 44.569 104.096C44.6694 104.875 45.1991 105.655 45.9739 105.783C46.6303 105.892 47.2903 105.506 47.6932 104.976C48.0961 104.447 48.2946 103.794 48.4847 103.155C49.617 99.3578 50.7493 95.5617 51.8815 91.7643C52.0023 91.359 52.477 90.8711 52.7305 91.2083C52.8381 91.3518 52.7902 91.555 52.7388 91.7272C51.7333 95.026 50.7277 98.3236 49.7222 101.622C49.5213 102.279 49.3205 102.981 49.507 103.642C49.8406 104.828 51.5755 105.315 52.4782 104.474C52.9493 104.035 53.1501 103.386 53.3319 102.768L56.4011 92.3322C56.492 92.0249 56.7359 91.6376 57.0288 91.7679C57.2775 91.8779 57.2416 92.2378 57.1627 92.4984C56.4358 94.9292 55.7088 97.3587 54.9819 99.7895C54.8192 100.332 54.6554 100.903 54.7762 101.456C55.0321 102.629 56.761 103.136 57.6087 102.286C57.9961 101.897 58.1694 101.35 58.3285 100.825C61.5412 90.2374 64.7539 79.6512 67.9666 69.0638C68.1483 68.4647 68.3217 67.7796 67.9988 67.2428C67.7836 66.8853 67.4178 66.6976 67.0065 66.5995H67.0041Z" fill="white"/>
</g>
<g id="Brush">
<g id="Group_7">
<path id="Vector_39" d="M64.2335 142.46L62.8394 147.092L63.259 151.104L64.2311 151.227H68.5426L69.8411 151.513L73.9385 150.597L77.1835 151.513L79.4768 151.636L86.8635 150.523L87.3178 151.555L88.6259 151.883L92 151.514L96.1859 151.883L96.8806 151.801L96.6271 145.733L92.4113 141.739C92.4113 141.739 85.8878 140.251 85.675 140.251C85.4622 140.251 73.4077 140.719 73.4077 140.719L64.2323 142.461L64.2335 142.46Z" fill="#0CB0A6"/>
<g id="Group_8">
<path id="Vector_40" d="M97.58 147.483C97.3517 145.457 96.9356 143.231 96.2266 140.877C95.716 139.182 95.123 137.653 94.5108 136.295L66.449 136.998L65.6204 137.018L65.1302 137.03C64.041 139.228 62.8704 142.178 62.1877 145.786C61.8195 147.736 61.6593 149.53 61.6162 151.104C61.6162 151.064 62.7963 151.158 62.9219 151.086C63.2734 150.887 63.2542 150.233 63.3272 149.862C63.552 148.725 63.7755 147.588 64.0003 146.452C64.1055 145.92 64.2203 145.366 64.5551 144.939C65.0393 145.806 64.9975 146.857 64.976 147.85C64.9568 148.719 64.9628 149.592 65.0932 150.451C65.2008 151.162 65.587 151.226 66.2147 151.226C66.9906 151.226 67.7666 151.226 68.5426 151.226C68.2891 149.672 68.1576 147.66 68.5211 145.376C68.594 144.918 68.6849 144.462 68.7925 144.012C68.8929 143.593 69.0962 143.163 69.2707 143.823C69.4357 144.443 69.3664 145.17 69.4513 145.812C69.5732 146.728 69.7657 147.632 69.9678 148.534C70.1579 149.382 70.3098 150.256 70.6398 151.066C70.8514 151.587 71.2567 151.557 71.7433 151.545C72.1642 151.536 72.5851 151.514 73.0047 151.514H74.4563C74.8006 151.514 75.8432 151.689 76.0955 151.483C76.2342 151.37 76.294 150.863 76.3418 150.689C76.4255 150.389 76.5008 150.086 76.5714 149.782C76.7077 149.195 76.8212 148.604 76.9324 148.012C77.1536 146.833 77.3557 145.647 77.6713 144.489C77.8232 143.93 77.9858 143.35 78.2273 142.823C78.4796 142.273 78.7701 142.383 78.8921 142.925C79.1563 144.097 79.3357 145.29 79.4481 146.484C79.4744 146.765 79.4983 147.05 79.5174 147.34C79.6203 148.938 79.5808 150.383 79.4768 151.636C79.4816 151.579 83.5133 151.594 83.9138 151.59C84.6563 151.581 85.3988 151.573 86.1413 151.566C86.4008 151.563 87.0404 151.679 87.258 151.544C87.3692 151.475 87.4206 151.221 87.478 151.105C87.5653 150.93 87.6634 150.76 87.7578 150.589C88.8016 148.706 89.5393 146.652 89.9291 144.533C89.971 144.303 90.0152 144.062 90.1623 143.883C90.3906 143.603 90.6525 143.64 90.6991 143.976C90.7445 144.3 90.7457 144.638 90.7493 144.965C90.7589 145.748 90.6907 146.531 90.5449 147.3C90.4779 147.655 90.3966 147.992 90.3045 148.315C89.849 149.93 89.7462 151.139 89.232 151.881C89.293 151.794 90.1515 151.881 90.2866 151.881H91.3364C92.0131 151.881 92.6946 151.903 93.3714 151.881C93.5854 151.874 93.7803 151.82 93.9907 151.796C94.2657 151.764 94.5527 151.816 94.7667 151.597C94.8863 151.475 94.9389 151.304 94.9807 151.138C95.3944 149.477 94.9939 147.685 95.4781 146.044C95.5235 145.889 95.6383 145.669 95.8416 145.748C96.0006 145.809 96.003 146.06 96.0293 146.2C96.1273 146.71 96.2062 147.224 96.284 147.74C96.4346 148.745 96.5733 149.794 96.6737 150.369C96.7598 150.864 96.8268 151.342 96.8782 151.801H97.818C97.818 150.506 97.7546 149.056 97.5777 147.484L97.58 147.483Z" fill="white"/>
<path id="Vector_41" d="M92.6947 152.185C92.4652 152.185 92.238 152.183 92.0132 152.18C91.7884 152.178 91.5625 152.175 91.3389 152.175H90.2891C90.2532 152.175 90.1719 152.171 90.0667 152.163C89.9089 152.153 89.5083 152.126 89.372 152.141C89.2788 152.191 89.1604 152.189 89.0671 152.124C88.9344 152.032 88.9009 151.85 88.993 151.716C89.3015 151.269 89.4557 150.592 89.6518 149.736C89.7534 149.292 89.8682 148.786 90.0237 148.238C90.1193 147.899 90.1958 147.575 90.258 147.248C90.3991 146.501 90.466 145.734 90.4577 144.97V144.919C90.4541 144.627 90.4505 144.325 90.4134 144.044C90.4063 144.052 90.3979 144.061 90.3907 144.07C90.2927 144.191 90.2568 144.381 90.2197 144.582C89.8204 146.747 89.0791 148.814 88.015 150.733L87.9504 150.849C87.8763 150.983 87.8057 151.109 87.7412 151.238C87.7316 151.257 87.7161 151.301 87.7029 151.341C87.6479 151.498 87.5786 151.694 87.4136 151.796C87.1924 151.934 86.86 151.917 86.414 151.879C86.3064 151.869 86.206 151.861 86.145 151.862C85.4025 151.869 84.66 151.878 83.9175 151.886C83.829 151.886 83.5672 151.886 83.2121 151.886C82.2065 151.886 79.8822 151.886 79.5618 151.92C79.5271 151.93 79.49 151.934 79.4529 151.932C79.2915 151.918 79.172 151.776 79.1851 151.616C79.3023 150.205 79.3155 148.774 79.2258 147.363C79.209 147.102 79.1875 146.832 79.1576 146.515C79.0428 145.286 78.8575 144.101 78.6076 142.993C78.5921 142.922 78.5742 142.869 78.5586 142.829C78.5407 142.859 78.5191 142.897 78.4952 142.949C78.2693 143.441 78.1174 143.975 77.9548 144.569C77.6882 145.547 77.4993 146.567 77.3175 147.553C77.2852 147.725 77.2542 147.897 77.2219 148.07C77.0975 148.732 76.9887 149.289 76.8584 149.851C76.7807 150.185 76.7054 150.486 76.6252 150.771C76.6145 150.81 76.6025 150.869 76.5894 150.937C76.5164 151.303 76.4531 151.573 76.2809 151.713C76.0238 151.923 75.5157 151.896 74.827 151.836C74.6775 151.823 74.5353 151.811 74.4563 151.811H73.0048C72.7382 151.811 72.4656 151.82 72.2002 151.829C72.0495 151.833 71.8989 151.838 71.7494 151.842H71.6956C71.2293 151.854 70.6482 151.868 70.3672 151.179C70.0886 150.494 69.9332 149.77 69.7826 149.068C69.7491 148.911 69.7156 148.756 69.6809 148.6C69.4872 147.735 69.2876 146.809 69.1608 145.854C69.125 145.584 69.1154 145.302 69.1058 145.029C69.0963 144.741 69.0855 144.465 69.0484 144.205C68.9552 144.608 68.8751 145.018 68.8093 145.426C68.508 147.314 68.5152 149.251 68.8308 151.183C68.8452 151.268 68.8201 151.354 68.7651 151.42C68.7089 151.486 68.6276 151.523 68.5415 151.523H67.7655C67.2478 151.523 66.7301 151.523 66.2136 151.523C65.5512 151.523 64.945 151.444 64.8027 150.498C64.6664 149.593 64.664 148.688 64.6831 147.846L64.6855 147.748C64.7023 147.019 64.719 146.27 64.5193 145.61C64.4081 145.899 64.346 146.218 64.2874 146.512L63.6142 149.922C63.5999 149.996 63.5879 150.09 63.576 150.189C63.5269 150.603 63.4648 151.117 63.0654 151.343C62.9459 151.411 62.7773 151.421 62.0683 151.397C61.9296 151.392 61.7622 151.388 61.6928 151.389C61.6653 151.396 61.6366 151.398 61.6079 151.398C61.4465 151.393 61.3186 151.26 61.3234 151.097C61.3736 149.299 61.5673 147.493 61.9009 145.732C62.4772 142.681 63.4755 139.71 64.8685 136.901C64.9163 136.804 65.0155 136.741 65.1231 136.738L94.5037 136.002C94.6233 135.997 94.7297 136.066 94.7775 136.174C95.4531 137.671 96.0354 139.225 96.5076 140.792C97.1581 142.952 97.6172 145.192 97.8719 147.449C98.0333 148.881 98.1146 150.346 98.1146 151.8C98.1146 151.961 97.9831 152.093 97.8217 152.093H96.8819C96.7324 152.093 96.6069 151.981 96.5901 151.832C96.5375 151.361 96.4694 150.885 96.3881 150.418C96.3247 150.054 96.2482 149.521 96.1609 148.904C96.1095 148.542 96.0545 148.159 95.9983 147.783C95.9254 147.296 95.8465 146.776 95.746 146.255C95.7436 146.241 95.7412 146.226 95.7388 146.212C95.5212 147.002 95.5105 147.826 95.4985 148.695C95.4878 149.524 95.4758 150.38 95.269 151.208C95.2175 151.415 95.147 151.63 94.9796 151.801C94.7345 152.052 94.4392 152.065 94.2012 152.076C94.1439 152.079 94.0853 152.081 94.0279 152.088C93.9514 152.097 93.8772 152.11 93.8043 152.123C93.6728 152.146 93.5365 152.171 93.3846 152.175C93.1562 152.183 92.9255 152.185 92.6959 152.185H92.6947ZM79.7686 151.668C79.7626 151.72 79.7447 151.767 79.7172 151.806C79.7435 151.769 79.7626 151.723 79.7686 151.668ZM89.7439 151.556C89.8491 151.561 89.9687 151.568 90.1074 151.578C90.1934 151.584 90.2604 151.588 90.2891 151.588H91.3389C91.566 151.588 91.7932 151.591 92.0204 151.593C92.4628 151.598 92.9207 151.603 93.3655 151.588C93.4743 151.585 93.5843 151.566 93.7015 151.545C93.7864 151.53 93.8724 151.515 93.9597 151.505C94.0315 151.496 94.1032 151.493 94.1737 151.49C94.3722 151.481 94.4798 151.472 94.5599 151.391C94.6281 151.321 94.6675 151.194 94.6998 151.066C94.8899 150.303 94.9007 149.518 94.9115 148.685C94.9234 147.784 94.9366 146.852 95.1996 145.959C95.2379 145.828 95.3347 145.591 95.5475 145.486C95.6719 145.425 95.8142 145.42 95.9493 145.473C96.2398 145.585 96.2853 145.902 96.3092 146.073C96.3128 146.098 96.3163 146.122 96.3199 146.142C96.4216 146.674 96.5053 147.222 96.5758 147.694C96.632 148.072 96.687 148.457 96.7396 148.82C96.8233 149.408 96.9022 149.962 96.9644 150.316C97.0325 150.71 97.0923 151.108 97.1413 151.506H97.5263C97.5168 150.17 97.4367 148.829 97.2884 147.514C97.0385 145.291 96.5866 143.086 95.9457 140.96C95.4997 139.479 94.9533 138.011 94.322 136.591L65.3132 137.318C63.9849 140.032 63.0308 142.898 62.4748 145.84C62.1663 147.471 61.9798 149.138 61.9176 150.804C61.9678 150.805 62.024 150.808 62.0862 150.809C62.2954 150.816 62.6709 150.828 62.7988 150.814C62.9231 150.706 62.965 150.354 62.9937 150.117C63.0068 150.005 63.02 149.9 63.0379 149.804L63.7111 146.394C63.8115 145.884 63.9371 145.249 64.3232 144.758C64.3842 144.681 64.4799 144.638 64.5767 144.646C64.6748 144.654 64.7621 144.71 64.8099 144.796C65.3168 145.703 65.2929 146.747 65.2702 147.758L65.2678 147.856C65.2499 148.672 65.2511 149.546 65.3814 150.408C65.4531 150.882 65.6133 150.933 66.2136 150.934C66.7313 150.934 67.2478 150.934 67.7655 150.934H68.2007C67.9281 149.052 67.9389 147.169 68.2318 145.33C68.3059 144.868 68.3992 144.4 68.508 143.943C68.5857 143.622 68.7268 143.193 69.0664 143.189H69.0712C69.4059 143.189 69.5135 143.594 69.5542 143.747C69.6618 144.153 69.6774 144.585 69.6917 145.005C69.7013 145.275 69.7096 145.531 69.7419 145.773C69.8663 146.704 70.0623 147.615 70.2536 148.469C70.2883 148.626 70.323 148.783 70.3565 148.941C70.5012 149.618 70.6518 150.317 70.9113 150.955C71.0332 151.254 71.2042 151.266 71.6824 151.254H71.7363C71.8845 151.249 72.0328 151.244 72.181 151.239C72.45 151.231 72.7286 151.221 73.0048 151.221H74.4563C74.5604 151.221 74.7074 151.234 74.8784 151.249C75.1379 151.272 75.7333 151.324 75.9007 151.258C75.9449 151.171 75.9927 150.928 76.0143 150.82C76.031 150.737 76.0454 150.665 76.0597 150.61C76.1374 150.334 76.2104 150.041 76.2869 149.715C76.4148 149.162 76.5224 148.612 76.6456 147.957C76.6779 147.785 76.7089 147.614 76.7412 147.442C76.9254 146.444 77.1167 145.412 77.3893 144.41C77.5578 143.789 77.7181 143.232 77.962 142.7C78.1784 142.226 78.4402 142.151 78.622 142.169C78.8097 142.188 79.0584 142.325 79.1791 142.86C79.4338 143.994 79.6227 145.204 79.7411 146.457C79.771 146.776 79.7937 147.059 79.8104 147.322C79.8953 148.648 79.8906 149.992 79.7961 151.321C79.8224 151.321 79.8499 151.319 79.8774 151.318C80.1082 151.312 80.4418 151.307 80.8698 151.305C81.6458 151.299 82.5891 151.299 83.2133 151.299C83.566 151.299 83.8254 151.299 83.9127 151.299C84.6552 151.291 85.3977 151.282 86.1402 151.275C86.2299 151.276 86.3387 151.283 86.4654 151.294C86.6328 151.309 86.97 151.337 87.0895 151.303C87.1099 151.264 87.1362 151.189 87.1517 151.145C87.1732 151.085 87.1924 151.029 87.2175 150.977C87.288 150.834 87.3657 150.696 87.4411 150.563L87.5044 150.449C88.5375 148.585 89.2572 146.577 89.6446 144.483C89.6925 144.223 89.7451 143.936 89.9388 143.7C90.1337 143.46 90.3752 143.36 90.6023 143.423C90.7016 143.451 90.9407 143.557 90.9933 143.939C91.0388 144.264 91.0423 144.594 91.0459 144.912V144.963C91.0555 145.766 90.985 146.571 90.8367 147.357C90.7721 147.701 90.6908 148.042 90.5904 148.398C90.4397 148.933 90.3262 149.429 90.2257 149.868C90.0739 150.531 89.9459 151.095 89.7451 151.56L89.7439 151.556ZM61.9092 151.113C61.9092 151.148 61.9009 151.182 61.8889 151.213C61.9009 151.183 61.908 151.15 61.9092 151.113Z" fill="#111111"/>
</g>
<path id="Vector_42" d="M96.1931 135.543C96.125 134.489 95.2043 133.693 94.151 133.693H79.8738C79.3298 133.693 78.8921 133.242 78.9077 132.698L79.0141 129.017C79.0296 128.493 79.4577 128.077 79.9802 128.077H92.1196C93.2124 128.077 94.0984 127.19 94.0984 126.096C94.0984 125.002 93.2124 124.115 92.1196 124.115H78.225C76.5857 124.115 75.0039 124.715 73.7772 125.803L64.4762 134.047C64.389 134.108 64.31 134.177 64.2335 134.25C64.1989 134.284 64.1642 134.316 64.1319 134.352L64.1259 134.357C63.8055 134.715 63.613 135.189 63.6214 135.71C63.6405 136.802 64.5755 137.657 65.6659 137.657H94.2167C95.3538 137.657 96.2661 136.698 96.1919 135.544L96.1931 135.543Z" fill="#479CFF"/>
</g>
</g>
</g>
</svg>
