<svg width="100" height="100" viewBox="0 0 100 100" fill="none" xmlns="http://www.w3.org/2000/svg">
<g id="Image">
<g id="Group 2655">
<g id="Group">
<g id="Group_2">
<path id="Vector" d="M19.6606 20.003H80.2285L80.2742 19.9477C82.903 16.7928 82.903 12.2102 80.2742 9.05528L80.2285 9H19.6606L19.9599 9.32216C22.7698 12.3474 22.6611 17.0597 19.714 19.9496L19.6606 20.003Z" fill="#E2E7E9"/>
<path id="Vector_2" d="M68.1651 90.9999H12.8643V15.5251C12.8643 12.0042 15.7198 9.14863 19.2426 9.14863H73.3444C73.3444 9.14863 78.9584 8.81503 78.8459 9.14863C74.9056 9.22488 75.1077 20.1516 75.1077 20.1516V84.0573C75.1077 87.8908 71.9986 90.9999 68.1651 90.9999Z" fill="#F6F8F8"/>
<path id="Vector_3" d="M68.0851 91H7.51731L7.47156 90.9448C4.84281 87.7899 4.84281 83.2072 7.47156 80.0524L7.51731 79.9971H68.0851L67.7859 80.3192C64.976 83.3445 64.4976 88.5028 68.0851 91Z" fill="#E2E7E9"/>
</g>
<path id="Vector_4" d="M63.9448 21.3544H26.3188V24.5207H63.9448V21.3544Z" fill="#0CB0A6"/>
<path id="Vector_5" d="M69.1812 75.155H52.3584V76.1863H69.1812V75.155Z" fill="#479CFF"/>
<path id="Vector_6" d="M69.1834 30.4683H21.0845V31.755H69.1834V30.4683Z" fill="#E6E6E6"/>
<path id="Vector_7" d="M69.1834 36.7819H21.0845V38.0686H69.1834V36.7819Z" fill="#E6E6E6"/>
<path id="Vector_8" d="M69.1834 43.0974H21.0845V44.3841H69.1834V43.0974Z" fill="#E6E6E6"/>
<path id="Vector_9" d="M69.1834 49.4109H21.0845V50.6976H69.1834V49.4109Z" fill="#E6E6E6"/>
<path id="Vector_10" d="M69.1834 55.7246H21.0845V57.0113H69.1834V55.7246Z" fill="#E6E6E6"/>
<path id="Vector_11" d="M69.1834 68.3535H21.0845V69.6402H69.1834V68.3535Z" fill="#E6E6E6"/>
<path id="Vector_12" d="M69.1834 62.04H21.0845V63.3268H69.1834V62.04Z" fill="#E6E6E6"/>
</g>
<g id="Group_3">
<path id="Vector_13" d="M72.4385 68.658L69.3713 67.5739L70.366 62.9046L82.115 29.6982L86.5444 31.2648L74.8042 64.4479L72.4385 68.658Z" fill="#153E49"/>
<path id="Vector_14" d="M85.8057 17.1761L80.178 33.0843C80.1436 33.1815 80.1946 33.2883 80.2918 33.3227L85.5502 35.1829C85.6475 35.2173 85.7543 35.1663 85.7887 35.0691L91.4164 19.1609C91.4508 19.0636 91.3998 18.9569 91.3025 18.9225L86.0441 17.0623C85.9469 17.0278 85.8401 17.0788 85.8057 17.1761Z" fill="#113542"/>
<path id="Vector_15" d="M91.3266 20.8776L91.1631 20.8194L84.9066 18.6059C84.8291 18.5788 84.7421 18.6198 84.715 18.6973L84.4786 19.3637C84.4515 19.4412 84.4925 19.5282 84.57 19.5553L90.6861 21.7193C90.7636 21.7464 90.8065 21.8331 90.7775 21.9109L87.6614 30.7194C87.6343 30.7969 87.6753 30.8839 87.7528 30.911L88.3878 31.1363C88.4652 31.1633 88.5522 31.1224 88.5793 31.0449L92.032 21.2871C92.0591 21.2096 92.0181 21.1226 91.9407 21.0955L91.327 20.8795L91.3266 20.8776Z" fill="#1A1A1A"/>
<path id="Vector_16" d="M70.4261 72.2306L68.5233 71.5562L70.3679 62.9043L74.7954 64.4712L70.4261 72.2306Z" fill="#5D7A7F"/>
<path id="Vector_17" d="M70.4261 72.2307L68.5233 71.5564L67.7488 72.3124L67.676 75.945L68.183 76.1242L70.4878 73.2355L70.4261 72.2307Z" fill="#DAE7E8"/>
<path id="Vector_18" d="M69.7242 62.7612L69.7261 62.7558C69.7737 62.621 69.9222 62.5502 70.0569 62.5979L75.132 64.3932C75.2668 64.4409 75.3377 64.5893 75.29 64.7241L75.2881 64.7295C75.2404 64.8643 75.092 64.9351 74.9572 64.8874L69.8821 63.0921C69.7473 63.0444 69.6765 62.896 69.7242 62.7612Z" fill="#688689"/>
<path id="Vector_19" d="M69.48 63.4505L69.4819 63.4451C69.5296 63.3104 69.678 63.2395 69.8128 63.2872L74.8879 65.0826C75.0227 65.1302 75.0935 65.2787 75.0458 65.4134L75.0439 65.4188C74.9962 65.5536 74.8478 65.6245 74.7131 65.5768L69.638 63.7814C69.5032 63.7337 69.4323 63.5853 69.48 63.4505Z" fill="#688689"/>
<g id="Group_4">
<path id="Vector_20" d="M69.1617 73.7842C69.0926 73.9811 68.8746 74.0856 68.6774 74.0147C68.4806 73.9456 68.3761 73.7276 68.447 73.5304C68.516 73.3335 68.734 73.229 68.9312 73.2999C69.1281 73.369 69.2326 73.587 69.1617 73.7842Z" fill="#153E49"/>
<path id="Vector_21" d="M68.6564 73.797L67.8726 76.0128L68.0451 76.0738L68.829 73.858L68.6564 73.797Z" fill="#153E49"/>
</g>
<path id="Vector_22" opacity="0.28" d="M80.772 33.493L85.2013 35.0596L83.7557 39.1454L80.772 33.493Z" fill="#111111"/>
</g>
</g>
</g>
</svg>
